<svg xmlns="http://www.w3.org/2000/svg" viewBox="0 0 500 500"><g id="freepik--background-simple--inject-135"><path d="M449,142.6S382.34,62.84,279,44.53,155.48,104,120.83,149.79,47,212.55,45,278.58s24.85,100,76.49,123.57,104.61,36,156.26,43.15,92.83,3.26,113.1-39.23S402,344,425.49,323.69,502,211.24,449,142.6Z" style="fill:#FFC100"></path><path d="M449,142.6S382.34,62.84,279,44.53,155.48,104,120.83,149.79,47,212.55,45,278.58s24.85,100,76.49,123.57,104.61,36,156.26,43.15,92.83,3.26,113.1-39.23S402,344,425.49,323.69,502,211.24,449,142.6Z" style="fill:#fff;opacity:0.7000000000000001"></path></g><g id="freepik--Circles--inject-135"><path d="M394.89,92.24a16.17,16.17,0,1,1,16.16-16.17A16.18,16.18,0,0,1,394.89,92.24Zm0-31.33a15.17,15.17,0,1,0,15.16,15.16A15.18,15.18,0,0,0,394.89,60.91Z" style="opacity:0.30000000000000004"></path><path d="M176.56,128.57a6.5,6.5,0,1,1,6.5-6.5A6.5,6.5,0,0,1,176.56,128.57Zm0-12a5.5,5.5,0,1,0,5.5,5.5A5.51,5.51,0,0,0,176.56,116.57Z" style="opacity:0.30000000000000004"></path><path d="M230.22,48.24a8.84,8.84,0,1,1,8.84-8.83A8.84,8.84,0,0,1,230.22,48.24Zm0-16.67a7.84,7.84,0,1,0,7.84,7.84A7.84,7.84,0,0,0,230.22,31.57Z" style="opacity:0.30000000000000004"></path><path d="M314.89,79.91a4.84,4.84,0,1,1,4.83-4.84A4.84,4.84,0,0,1,314.89,79.91Zm0-8.67a3.84,3.84,0,1,0,3.83,3.83A3.84,3.84,0,0,0,314.89,71.24Z" style="opacity:0.30000000000000004"></path><path d="M145.22,177.91a7.84,7.84,0,1,1,7.84-7.84A7.85,7.85,0,0,1,145.22,177.91Zm0-14.67a6.84,6.84,0,1,0,6.84,6.83A6.84,6.84,0,0,0,145.22,163.24Z" style="opacity:0.30000000000000004"></path><path d="M330.89,281.9a8.17,8.17,0,1,1,8.16-8.16A8.18,8.18,0,0,1,330.89,281.9Zm0-15.33a7.17,7.17,0,1,0,7.16,7.17A7.18,7.18,0,0,0,330.89,266.57Z" style="opacity:0.30000000000000004"></path><path d="M350.22,216.57a4.17,4.17,0,1,1,4.17-4.17A4.17,4.17,0,0,1,350.22,216.57Zm0-7.33a3.17,3.17,0,1,0,3.17,3.16A3.18,3.18,0,0,0,350.22,209.24Z" style="opacity:0.30000000000000004"></path><path d="M370.89,132.57a7.5,7.5,0,1,1,7.5-7.5A7.5,7.5,0,0,1,370.89,132.57Zm0-14a6.5,6.5,0,1,0,6.5,6.5A6.51,6.51,0,0,0,370.89,118.57Z" style="opacity:0.30000000000000004"></path><path d="M224.56,113.24a17.84,17.84,0,1,1,17.83-17.83A17.85,17.85,0,0,1,224.56,113.24Zm0-34.67a16.84,16.84,0,1,0,16.83,16.84A16.86,16.86,0,0,0,224.56,78.57Z" style="opacity:0.30000000000000004"></path><path d="M279.56,53.91a5.5,5.5,0,1,1,5.5-5.5A5.5,5.5,0,0,1,279.56,53.91Zm0-10a4.5,4.5,0,1,0,4.5,4.5A4.5,4.5,0,0,0,279.56,43.91Z" style="opacity:0.30000000000000004"></path><path d="M68.44,194.56a17.5,17.5,0,1,1,17.5-17.5A17.52,17.52,0,0,1,68.44,194.56Zm0-34a16.5,16.5,0,1,0,16.5,16.5A16.52,16.52,0,0,0,68.44,160.56Z" style="opacity:0.30000000000000004"></path><path d="M86.89,93.91a7.5,7.5,0,1,1,7.5-7.5A7.52,7.52,0,0,1,86.89,93.91Zm0-14a6.5,6.5,0,1,0,6.5,6.5A6.51,6.51,0,0,0,86.89,79.91Z" style="opacity:0.30000000000000004"></path><path d="M146.22,51.24a5.5,5.5,0,1,1,5.5-5.5A5.51,5.51,0,0,1,146.22,51.24Zm0-10a4.5,4.5,0,1,0,4.5,4.5A4.51,4.51,0,0,0,146.22,41.24Z" style="opacity:0.30000000000000004"></path></g><g id="freepik--leaves-2--inject-135"><path d="M466.55,384.77l-.55-2.33c-3-12.59-5.63-23.47-13.21-34.34a122.82,122.82,0,0,0-16.61-19.87,64,64,0,0,0-13.73-10c-1.71-.9-13.66-5.06-24.21-8.74-7-2.43-14.22-4.95-15-5.32a.48.48,0,0,0-.32-.11h0a.5.5,0,0,0-.5.49v3.57c0,1.45-.91,35.6,1.34,45.73,2.32,10.43,5.45,12.81,33.5,25.41,27.53,12.37,53.7,27.7,54,27.85a.43.43,0,0,0,.25.07.47.47,0,0,0,.3-.1.5.5,0,0,0,.18-.52C472,406.43,468.73,393.8,466.55,384.77Z" style="fill:#263238"></path><path d="M384.94,417.71l1.4-1.49c7.54-8.08,14.06-15.06,18.23-25.58a104.29,104.29,0,0,0,6.33-21.18,54.52,54.52,0,0,0,.65-14.49c-.16-1.64-2.82-12.11-5.17-21.35-1.56-6.13-3.17-12.46-3.26-13.16a.45.45,0,0,0-.06-.28h0a.41.41,0,0,0-.58-.12l-2.55,1.67c-1.05.65-25.78,16.12-31.93,22.49-6.34,6.57-6.56,9.91-2.32,35.83,4.15,25.42,5.56,51.28,5.58,51.54a.43.43,0,0,0,.06.22.5.5,0,0,0,.22.16.44.44,0,0,0,.46-.11C372.06,431.77,379.53,423.52,384.94,417.71Z" style="fill:#263238"></path><path d="M470.53,243.19l-2,.06c-11.05.3-20.59.56-31,5A105.44,105.44,0,0,0,418,258.6a54.32,54.32,0,0,0-10.77,9.72c-1.06,1.26-6.64,10.51-11.57,18.68-3.26,5.41-6.64,11-7.08,11.56a.36.36,0,0,0-.15.24h0a.43.43,0,0,0,.32.51l3,.63c1.2.29,29.58,7,38.44,6.94,9.13-.1,11.66-2.3,27.13-23.51,15.18-20.82,32.61-40,32.78-40.18a.35.35,0,0,0,.1-.19.43.43,0,0,0-.43-.52C489.58,242.49,478.46,243,470.53,243.19Z" style="fill:#263238"></path><path d="M364.8,229.46l-.73,1.91c-4,10.32-7.39,19.23-7.32,30.54a105.21,105.21,0,0,0,2.08,22,54.29,54.29,0,0,0,4.83,13.68c.76,1.46,7.16,10.17,12.8,17.86,3.74,5.09,7.61,10.36,8,11a.42.42,0,0,0,.17.23h0a.42.42,0,0,0,.59-.11c.08-.1,1.73-2.5,1.73-2.5.73-1,17.86-24.61,21.17-32.83,3.42-8.46,2.36-11.65-11.28-34.08-13.39-22-24.39-45.46-24.5-45.69a.39.39,0,0,0-.14-.17.42.42,0,0,0-.26-.08.43.43,0,0,0-.38.28C371.47,211.6,367.64,222.05,364.8,229.46Z" style="fill:#263238"></path></g><g id="freepik--Bird--inject-135"><path d="M310.78,112.38s-2.78-4-12.89-6.82-21.23-8.34-39.67,2.27a97.55,97.55,0,0,0-30.07,27.55c-1.52,2-7.08,4-7.08,4l4.55.25-2.52,2.53h2.77a46,46,0,0,0-4.54,9.1c-1.27,4-4.8,8.08-5.31,9.34S210,166.2,209.2,168s-3,2.28-9.35,13.65-15.67,27.54-15.67,28.8-13.39,18.45-20,33.86-12.89,36.9-13.39,41.44,3,1.52,4.55.76a25.09,25.09,0,0,1,3-1.26s1,5.56,4.29,4,8.85-5.56,9.1-6.57,2-2,3.29-7.33,5-14.15,5-14.15l1.77,7.33,2.52-2s-1.26,2.27.76,6.32,3.29,6.31,3.29,6.31l.76-1.76L191,284l-.25,8.34s-4.8,21.48-7.58,31.59-9.6,28.3-11.88,40.43.51,18.7,2,20S183.93,378,183.93,378s2,10.62,5.56,8.34,9.35-12.63,12.38-21.22,4-22.24,4-22.24,9.1-34.62,11.63-38.66,10.1-11.62,10.1-11.62l8.09-.51s-.51,2,5.81.76a43,43,0,0,0,12.38-5.05l6.83-3-2,3.29,4.81-2.28-1,3.29a44.82,44.82,0,0,0,7.08-1.77c2.53-1,5.81-2.27,5.81-2.27l-3,4.54a61.27,61.27,0,0,0,8.08-6.57c4.55-4.29,12.64-11.87,25.78-35.37s14.4-34.62,14.65-41.19.26-8.59.26-8.59l1.77,1s.25-3.28-2-9.6-4-14.15-5.3-17.18a102.22,102.22,0,0,1-3-10.11l-1-6.07v-1.77h1.76l.26-4a29.22,29.22,0,0,0-.76-6.82c-.76-2.28-1.26-4-1.26-4l2.27,2-.25-6.07,1.77,1.52-2.28-5.31v-3.28c0-.76.25-3.79.25-3.79s10.36-8.09,12.89-10.11,3.79-2.27,3.79-2.27a7.16,7.16,0,0,0-5.56-2.28C320.63,109.6,310.78,112.38,310.78,112.38Z" style="fill:#fff"></path><path d="M188.5,387.11a2.1,2.1,0,0,1-.81-.17c-2.27-1-3.62-6-4.08-8.07-3.1,2.53-9.08,7.07-10.61,5.79-1.7-1.42-4.48-8.28-2.2-20.44,1.48-7.86,4.83-18.2,7.8-27.32,1.6-4.93,3.11-9.58,4.09-13.15,2.74-10,7.53-31.35,7.57-31.57l.24-8.17-1.37-5.1-.19.44a.5.5,0,0,1-.44.3.49.49,0,0,1-.46-.25s-1.29-2.33-3.29-6.34a9.46,9.46,0,0,1-1.17-5.22l-1.36,1.09a.47.47,0,0,1-.47.08.49.49,0,0,1-.33-.35L180,262.82a104.2,104.2,0,0,0-4.44,12.66A16.75,16.75,0,0,1,172.8,282a3.15,3.15,0,0,0-.51.86c-.35,1.37-6.37,5.52-9.38,6.91a2.66,2.66,0,0,1-2.44,0c-1.45-.75-2.16-2.84-2.42-3.86a25,25,0,0,0-2.45,1.05c-.24.12-.54.31-.87.51-1.2.73-2.69,1.65-3.69,1-.64-.4-.87-1.32-.71-2.79.51-4.61,6.91-26.28,13.43-41.58,4.48-10.52,12-21.71,16.54-28.4a51.62,51.62,0,0,0,3.39-5.31c0-.92,3.35-7,10.47-19.64,1.81-3.22,3.63-6.45,5.25-9.37,4.35-7.83,6.83-10.58,8.17-12.05a6.25,6.25,0,0,0,1.16-1.54c.45-1.05,2.23-2.72,4-4.34a19.38,19.38,0,0,0,2.86-3,14.06,14.06,0,0,1,1.34-2.15,28.89,28.89,0,0,0,3.95-7.16A43,43,0,0,1,225,142.7H223.1a.5.5,0,0,1-.47-.31.53.53,0,0,1,.11-.55l1.74-1.73-3.43-.19a.5.5,0,0,1-.47-.43.49.49,0,0,1,.32-.54c.06,0,5.44-2,6.85-3.87l.38-.53A97.19,97.19,0,0,1,258,107.4c16.45-9.46,27.06-6.24,36.42-3.39,1.23.37,2.44.74,3.63,1.07,8.74,2.4,12.1,5.73,12.94,6.73,1.76-.49,10-2.71,13.46-2.71a7.64,7.64,0,0,1,6,2.47.51.51,0,0,1-.3.8,10.6,10.6,0,0,0-3.58,2.17c-2.32,1.86-11.35,8.91-12.72,10,0,.7-.23,2.92-.23,3.53v3.18l2.24,5.21a.5.5,0,0,1-.79.58l-.9-.77.21,4.92a.5.5,0,0,1-.83.39l-1-.85c.2.66.46,1.46.75,2.34a29.17,29.17,0,0,1,.79,7l-.26,4.08a.49.49,0,0,1-.5.46H312v1.27l1,6a102.64,102.64,0,0,0,3,10c.61,1.48,1.34,4,2.17,7,.92,3.25,2,6.93,3.15,10.22,2.28,6.34,2.06,9.67,2.05,9.81a.52.52,0,0,1-.27.4.48.48,0,0,1-.48,0l-1-.59c0,1.13-.08,3.5-.25,7.76-.3,8-2.29,19.2-14.71,41.41-13.11,23.45-21.37,31.24-25.8,35.43a62.43,62.43,0,0,1-8.23,6.69.5.5,0,0,1-.69-.69l2.16-3.24c-1.18.46-2.88,1.12-4.33,1.7a44.5,44.5,0,0,1-7.18,1.8.49.49,0,0,1-.46-.16.49.49,0,0,1-.1-.48l.67-2.2-3.77,1.79a.51.51,0,0,1-.59-.12.48.48,0,0,1-.05-.59l1.17-1.91-5.34,2.37a42.81,42.81,0,0,1-12.49,5.09c-3.27.65-5.25.56-6.06-.29a1.17,1.17,0,0,1-.28-.43l-7.44.46c-1,1-7.61,7.75-9.9,11.4-2.46,3.94-11.47,38.18-11.56,38.53,0,0-1,13.72-4.06,22.27-2.89,8.2-8.77,19-12.58,21.48A2.28,2.28,0,0,1,188.5,387.11Zm-4.57-9.66a.51.51,0,0,1,.17,0,.52.52,0,0,1,.32.38c.38,2,1.78,7.35,3.66,8.16a1.15,1.15,0,0,0,1.14-.15c3.23-2.08,9-12.07,12.18-21,3-8.43,4-22,4-22.11.39-1.5,9.16-34.82,11.7-38.88s9.87-11.41,10.18-11.72a.49.49,0,0,1,.32-.14l8.09-.51a.49.49,0,0,1,.41.18.47.47,0,0,1,.1.44.34.34,0,0,0,.12.17c.21.2,1.2.76,5.11,0a42.87,42.87,0,0,0,12.22-5l6.88-3.06a.5.5,0,0,1,.58.12.48.48,0,0,1,.05.59L260,286.82l3.28-1.55a.51.51,0,0,1,.54.08.49.49,0,0,1,.15.52l-.77,2.5a39.36,39.36,0,0,0,6.17-1.59c2.53-1,5.82-2.28,5.82-2.28a.49.49,0,0,1,.57.15.5.5,0,0,1,0,.59l-1.52,2.28a70,70,0,0,0,5.81-4.94c4.47-4.22,12.65-11.94,25.68-35.26,12.32-22,14.29-33.07,14.59-41,.25-6.48.26-8.55.26-8.57a.48.48,0,0,1,.25-.43.52.52,0,0,1,.5,0l1,.58a30.7,30.7,0,0,0-2-8.56c-1.19-3.32-2.24-7-3.16-10.29-.83-2.93-1.54-5.45-2.13-6.87A100,100,0,0,1,312.06,162l-1-6.1v-1.86a.5.5,0,0,1,.5-.5h1.29l.23-3.57a28.72,28.72,0,0,0-.74-6.63c-.75-2.26-1.26-4.05-1.27-4.07a.5.5,0,0,1,.22-.56.51.51,0,0,1,.6,0l1.39,1.24-.2-4.89a.5.5,0,0,1,.28-.47.51.51,0,0,1,.54.07l.14.12-1.43-3.33a.45.45,0,0,1,0-.2v-3.28c0-.77.25-3.71.26-3.83a.52.52,0,0,1,.19-.36c.1-.08,10.38-8.1,12.88-10.1a15.87,15.87,0,0,1,3.2-2.08,7.07,7.07,0,0,0-4.66-1.58c-3.68,0-13.41,2.73-13.51,2.76a.49.49,0,0,1-.54-.19c-.05-.07-2.88-4-12.61-6.63-1.2-.33-2.42-.7-3.66-1.08-9.17-2.78-19.56-5.94-35.63,3.31a96,96,0,0,0-29.53,26.87l-.39.54c-1,1.3-3.44,2.56-5.23,3.36l2.33.13a.5.5,0,0,1,.44.32.49.49,0,0,1-.11.53l-1.68,1.68h1.58a.48.48,0,0,1,.43.26.49.49,0,0,1,0,.51,46.15,46.15,0,0,0-4.49,9,30,30,0,0,1-4.07,7.44,16.15,16.15,0,0,0-1.25,2c-.26.66-1.34,1.69-3.1,3.34-1.49,1.4-3.36,3.15-3.72,4a6.94,6.94,0,0,1-1.34,1.82c-1.31,1.44-3.74,4.14-8,11.87-1.63,2.92-3.45,6.15-5.26,9.37-4.79,8.51-10.22,18.16-10.35,19.21,0,.49-.67,1.54-3.55,5.81-4.49,6.66-12,17.8-16.45,28.23-6.49,15.22-12.85,36.74-13.36,41.3-.16,1.46.15,1.77.25,1.84.47.3,1.83-.54,2.64-1,.35-.21.68-.41.94-.55a29.83,29.83,0,0,1,3.1-1.29.49.49,0,0,1,.41.05.5.5,0,0,1,.24.34c.15.82.81,3.09,2,3.72a1.69,1.69,0,0,0,1.56,0c3.4-1.57,8.54-5.43,8.83-6.25a3.69,3.69,0,0,1,.66-1.19,15.84,15.84,0,0,0,2.62-6.12c1.26-5.29,5-14.15,5.08-14.23a.49.49,0,0,1,.94.08l1.59,6.56,1.91-1.53a.5.5,0,0,1,.64,0,.49.49,0,0,1,.11.62s-1.09,2.13.77,5.85c1.26,2.53,2.24,4.38,2.78,5.4l.36-.82a.49.49,0,0,1,.49-.3.5.5,0,0,1,.45.36l1.77,6.58a.32.32,0,0,1,0,.14l-.25,8.34c-.06.31-4.85,21.7-7.6,31.7-1,3.6-2.5,8.26-4.1,13.2-3,9.09-6.3,19.4-7.76,27.19-2.18,11.61.36,18.24,1.85,19.49.64.52,5.29-2.43,10-6.32A.47.47,0,0,1,183.93,377.45Z" style="fill:#263238"></path><path d="M187.79,224.47c5.65-9.25,15.92-18.49,19.13-21.63S216,186,216,186s13.58-15.27,17.17-21.95-6.39-7.33-6.39-7.33,8.22-11.3,19-18a51.17,51.17,0,0,1,20.57-7.48c5.47.77,14.36-11,22.58-15.12s21.8-3.71,21.8-3.71-2.78-4-12.89-6.82-21.23-8.34-39.67,2.27a97.55,97.55,0,0,0-30.07,27.55c-1.52,2-7.08,4-7.08,4l4.55.25-2.52,2.53h2.77a46,46,0,0,0-4.54,9.1c-1.27,4-4.8,8.08-5.31,9.34S210,166.2,209.2,168s-3,2.28-9.35,13.65-15.67,27.54-15.67,28.8-13.39,18.45-20,33.86-12.89,36.9-13.39,41.44,3,1.52,4.55.76a25.09,25.09,0,0,1,3-1.26s.72,3.9,2.88,4.26l1.41-.22,12.64-41.19S182.14,233.72,187.79,224.47Z" style="fill:#bdbdbd"></path><path d="M161.29,290h-.08c-2-.33-2.85-2.92-3.16-4.09a25,25,0,0,0-2.45,1.05c-.24.12-.54.31-.87.51-1.2.73-2.69,1.65-3.69,1-.64-.4-.87-1.32-.71-2.79.51-4.61,6.91-26.28,13.43-41.58,4.48-10.52,12-21.71,16.54-28.4a51.62,51.62,0,0,0,3.39-5.31c0-.92,3.35-7,10.47-19.64,1.81-3.22,3.63-6.45,5.25-9.37,4.35-7.83,6.83-10.58,8.17-12.05a6.25,6.25,0,0,0,1.16-1.54c.45-1.05,2.23-2.72,4-4.34a19.38,19.38,0,0,0,2.86-3,14.06,14.06,0,0,1,1.34-2.15,28.89,28.89,0,0,0,3.95-7.16A43,43,0,0,1,225,142.7H223.1a.5.5,0,0,1-.47-.31.53.53,0,0,1,.11-.55l1.74-1.73-3.43-.19a.5.5,0,0,1-.47-.43.49.49,0,0,1,.32-.54c.06,0,5.44-2,6.85-3.87l.38-.53A97.19,97.19,0,0,1,258,107.4c16.45-9.46,27.06-6.24,36.42-3.39,1.23.37,2.44.74,3.63,1.07,10.17,2.79,13.05,6.85,13.17,7a.49.49,0,0,1,0,.52.5.5,0,0,1-.46.26c-.13,0-13.55-.35-21.56,3.66-3.44,1.72-7,4.8-10.43,7.78-4.84,4.19-9,7.82-12.38,7.4a51.27,51.27,0,0,0-20.3,7.4c-9.05,5.6-16.36,14.6-18.34,17.15,1.64.24,5,1,6.28,3.24.73,1.32.6,2.91-.38,4.73-3.5,6.51-16.12,20.78-17.18,22-.53,1.21-6,13.9-9.2,17-.39.39-.9.87-1.48,1.43-4.11,3.91-12.65,12.05-17.58,20.1-5.57,9.12-12.35,23.41-12.42,23.56l-12.61,41.12a.5.5,0,0,1-.4.35l-1.41.22Zm-2.88-5.26a.45.45,0,0,1,.25.07.5.5,0,0,1,.24.34c.18,1,1,3.52,2.4,3.84l1-.15,12.54-40.89c.09-.21,6.9-14.56,12.5-23.72h0c5-8.17,13.6-16.37,17.74-20.31.58-.55,1.08-1,1.47-1.42,3.11-3,9-16.59,9-16.73a.42.42,0,0,1,.09-.14c.13-.15,13.58-15.3,17.1-21.85.81-1.5.94-2.76.38-3.77-1.37-2.47-6.31-2.82-6.36-2.82a.5.5,0,0,1-.42-.29.48.48,0,0,1,0-.5c.08-.12,8.4-11.46,19.15-18.11a52.22,52.22,0,0,1,20.79-7.56h.11c2.92.4,7.16-3.27,11.64-7.16,3.49-3,7.09-6.14,10.64-7.92,6.93-3.46,17.39-3.77,20.88-3.77-1.36-1.29-4.79-3.88-11.87-5.83-1.2-.33-2.42-.7-3.66-1.08-9.17-2.78-19.56-5.94-35.63,3.31a96,96,0,0,0-29.53,26.87l-.39.54c-1,1.3-3.44,2.56-5.23,3.36l2.33.13a.5.5,0,0,1,.44.32.49.49,0,0,1-.11.53l-1.68,1.68h1.58a.48.48,0,0,1,.43.26.49.49,0,0,1,0,.51,46.15,46.15,0,0,0-4.49,9,30,30,0,0,1-4.07,7.44,16.15,16.15,0,0,0-1.25,2c-.26.66-1.34,1.69-3.1,3.34-1.49,1.4-3.36,3.15-3.72,4a6.94,6.94,0,0,1-1.34,1.82c-1.31,1.44-3.74,4.14-8,11.87-1.63,2.92-3.45,6.15-5.26,9.37-4.79,8.51-10.22,18.16-10.35,19.21,0,.49-.67,1.54-3.55,5.81-4.49,6.66-12,17.8-16.45,28.23-6.49,15.22-12.85,36.74-13.36,41.3-.16,1.46.15,1.77.25,1.84.47.3,1.83-.54,2.64-1,.35-.21.68-.41.94-.55a29.83,29.83,0,0,1,3.1-1.29Zm29.38-60.25h0Z" style="fill:#263238"></path><path d="M208.69,194a.49.49,0,0,1-.36-.84c.13-.14,13.42-14.2,18.14-21.41a50.32,50.32,0,0,1,4-5.24c2.73-3.19,3.86-4.51,1.3-7.55-3.7-4.4-12.39,1.54-12.47,1.6a.5.5,0,0,1-.7-.13.49.49,0,0,1,.13-.69c.38-.27,9.52-6.52,13.8-1.43,3.11,3.69,1.45,5.63-1.3,8.85a48.81,48.81,0,0,0-4,5.14c-4.77,7.28-18.11,21.41-18.24,21.55A.53.53,0,0,1,208.69,194Z" style="fill:#263238"></path><path d="M197.57,212.94a.5.5,0,0,1-.34-.86c.07-.06,6.83-6.58,9.31-9.56s5.94-12.88,6-13a.5.5,0,0,1,.63-.31.51.51,0,0,1,.31.64c-.15.41-3.6,10.23-6.15,13.29s-9.11,9.38-9.39,9.65A.51.51,0,0,1,197.57,212.94Z" style="fill:#263238"></path><path d="M173.79,239a.57.57,0,0,1-.18,0,.51.51,0,0,1-.29-.64c.55-1.51.73-1.91.81-2.08s.23-.47.36-.76a.5.5,0,0,1,.92.4l-1.15,2.8A.51.51,0,0,1,173.79,239Z" style="fill:#263238"></path><path d="M197.32,207.9a49.62,49.62,0,0,0-3.79,6.57l-18.19,33.6L191.26,216s-7.33,10.11-11.37,18.2-12.64,33.35-12.64,33.35,2.28-11.37,4.3-17.43,9.09-20.47,11.62-25,5.56-9.35,5.56-9.35-8.34,9.85-15.67,28.05c-6.32,15.7-8.69,22.55-9.22,24.13,1-3,7.56-22.82,9.95-29.43-4.13,10.1-10.08,25.22-12.6,34.36a63.11,63.11,0,0,0-2.36,13.87c.56,1.53,1.73,3.54,3.87,2.55,3.29-1.51,8.85-5.56,9.1-6.57s2-2,3.29-7.33,5-14.15,5-14.15a34,34,0,0,1-1.26-8.34c-.26-5.3-1.27-8.08,1.51-13.39s23.75-36.38,23.75-36.38S199.6,204.61,197.32,207.9Z" style="fill:#263238"></path><path d="M161.62,290a2.37,2.37,0,0,1-1-.19,4.7,4.7,0,0,1-2.31-2.95.63.63,0,0,1,0-.19,64.54,64.54,0,0,1,2.38-14c2.48-9,8.23-23.67,12.62-34.41A.51.51,0,0,1,174,238a.5.5,0,0,1,.29.64c-.53,1.49-1.28,3.63-2.13,6.11.15-.39.31-.77.47-1.17,7.27-18.06,15.66-28.08,15.75-28.18a.5.5,0,0,1,.8.59s-3.05,4.84-5.54,9.32c-2.36,4.25-9.54,18.8-11.59,24.93-.84,2.53-1.73,6-2.48,9.19,2.88-8.15,7.33-20.34,9.9-25.49,4-8,11.34-18.16,11.41-18.26a.51.51,0,0,1,.67-.14.5.5,0,0,1,.18.65l-3.47,7,4.86-9a49.88,49.88,0,0,1,3.82-6.62h0c2.34-3.38,6.88-4.92,7.08-5a.49.49,0,0,1,.55.17.51.51,0,0,1,0,.59c-.21.31-21,31.11-23.73,36.33-2.17,4.15-2,6.72-1.66,10.27.08.89.16,1.83.21,2.87a33.81,33.81,0,0,0,1.23,8.2.5.5,0,0,1,0,.36c0,.09-3.79,8.87-5,14.07A16.75,16.75,0,0,1,172.8,282a3.15,3.15,0,0,0-.51.86c-.35,1.37-6.37,5.52-9.38,6.91A3.14,3.14,0,0,1,161.62,290Zm-2.28-3.39a3.9,3.9,0,0,0,1.71,2.28,1.72,1.72,0,0,0,1.44-.1c3.4-1.57,8.54-5.43,8.83-6.25a3.69,3.69,0,0,1,.66-1.19,15.84,15.84,0,0,0,2.62-6.12,113.92,113.92,0,0,1,5-14.06,35.56,35.56,0,0,1-1.23-8.29c0-1-.13-2-.2-2.83a20.92,20.92,0,0,1,.1-6.38l-2.5,4.62a.5.5,0,0,1-.89-.46l12.8-25.8a127,127,0,0,0-7.36,12.35c-4,8-12.52,33-12.6,33.29a.5.5,0,0,1-1-.26c0-.11,2.08-10.36,4-16.55-4.23,10.72-6,15.75-6.46,17.19a.5.5,0,0,1-.95-.31c.41-1.22,1.35-4.06,2.51-7.55-1.72,4.75-3.22,9.21-4.2,12.76A63.25,63.25,0,0,0,159.34,286.63Zm20.08-55.38c-1.57,3-3.21,6.34-4.81,10.11C176.14,238,177.89,234.34,179.42,231.25Zm18.31-23.07a47.8,47.8,0,0,0-3.74,6.5L185.72,230c5.86-9.06,14.25-21.56,17.07-25.74a13.18,13.18,0,0,0-5.06,4Z" style="fill:#263238"></path><path d="M174.94,236.18a.65.65,0,0,1-.19,0,.51.51,0,0,1-.27-.65c1.89-4.57,3.18-7.58,3.18-7.58a.5.5,0,0,1,.92.39s-2,5.09-3.18,7.59A.51.51,0,0,1,174.94,236.18Z" style="fill:#263238"></path><path d="M222.59,292c-.51-1-3.54-1-3.54-1l-2.78,2.53-3-3s-4-5.81-4.8-7.83a13.07,13.07,0,0,0-1.77-3.28l-.76,4-5-4.8-1.26,3.28-2.78-4.54s-1.52,6.06-2.53,6.56-3.54-5.55-3.54-5.55l-.85,1.47L191,284l-.25,8.34s-4.8,21.48-7.58,31.59-9.6,28.3-11.88,40.43.51,18.7,2,20S183.93,378,183.93,378s2,10.62,5.56,8.34,9.35-12.63,12.38-21.22,4-22.24,4-22.24,9.1-34.62,11.63-38.66,10.1-11.62,10.1-11.62l-4.54.5Z" style="fill:#263238"></path><path d="M188.5,387.11a2.1,2.1,0,0,1-.81-.17c-2.27-1-3.62-6-4.08-8.07-3.1,2.53-9.08,7.07-10.61,5.79-1.7-1.42-4.48-8.28-2.2-20.44,1.48-7.86,4.83-18.2,7.8-27.32,1.6-4.93,3.11-9.58,4.09-13.15,2.74-10,7.53-31.35,7.57-31.57l.24-8.17-1.08-4a.5.5,0,0,1,.05-.38l.85-1.47a.5.5,0,0,1,.89.05c1.08,2.59,2.38,4.92,2.92,5.26.52-.52,1.54-3.54,2.2-6.2a.5.5,0,0,1,.41-.37.49.49,0,0,1,.5.23l2.25,3.69.9-2.34a.51.51,0,0,1,.36-.31.47.47,0,0,1,.45.13l4.39,4.16.59-3.14a.51.51,0,0,1,.37-.39.49.49,0,0,1,.51.17,13.77,13.77,0,0,1,1.85,3.43c.73,1.94,4.7,7.66,4.74,7.72l2.64,2.63,2.43-2.21a.51.51,0,0,1,.33-.13c.56,0,3.37.06,4,1.29l.35.7,4.2-.47a.5.5,0,0,1,.5.28.49.49,0,0,1-.09.57c-.08.07-7.57,7.59-10,11.53S206.49,342.61,206.4,343c0,0-1,13.72-4.06,22.27-2.89,8.2-8.77,19-12.58,21.48A2.28,2.28,0,0,1,188.5,387.11Zm-4.57-9.66a.51.51,0,0,1,.17,0,.52.52,0,0,1,.32.38c.38,2,1.78,7.35,3.66,8.16a1.15,1.15,0,0,0,1.14-.15c3.23-2.08,9-12.07,12.18-21,3-8.43,4-22,4-22.11.39-1.5,9.16-34.82,11.7-38.88,2-3.21,7-8.5,9.19-10.71l-3.15.35a.51.51,0,0,1-.5-.27l-.51-1c-.21-.41-1.63-.7-2.9-.73l-2.63,2.4a.5.5,0,0,1-.69,0l-3-3c-.23-.31-4.15-6-4.92-8a13.82,13.82,0,0,0-1-2.16l-.54,2.83a.5.5,0,0,1-.83.27l-4.51-4.28-1,2.58a.5.5,0,0,1-.42.32.48.48,0,0,1-.47-.24L197,278.65c-.58,2.14-1.57,5.3-2.49,5.75a.84.84,0,0,1-.66,0c-1-.38-2.41-3.22-3.16-4.92l-.25.43,1.05,3.89a.32.32,0,0,1,0,.14l-.25,8.34c-.06.31-4.85,21.7-7.6,31.7-1,3.6-2.5,8.26-4.1,13.2-3,9.09-6.3,19.4-7.76,27.19-2.18,11.61.36,18.24,1.85,19.49.64.52,5.29-2.43,10-6.32A.47.47,0,0,1,183.93,377.45Z" style="fill:#263238"></path><path d="M292.49,320.39s.62,3.59,1.25,6.57.78,3.28,1.72,2.35,2-4.39,2-4.39.46,5.17-2.67,6.42-3-2.19-3-2.19-1.41.31-1.72-1.72a54.83,54.83,0,0,1-.16-6.73Z" style="fill:#263238"></path><path d="M293.61,332.11a2.08,2.08,0,0,1-1.21-.36,2.9,2.9,0,0,1-1-2.11,1.69,1.69,0,0,1-.74-.29,2.57,2.57,0,0,1-1-1.85,54.35,54.35,0,0,1-.17-6.82.51.51,0,0,1,.44-.48l2.51-.31a.5.5,0,0,1,.55.41s.63,3.62,1.25,6.56a17.57,17.57,0,0,0,.6,2.35l.28-.26a15.41,15.41,0,0,0,1.91-4.18.49.49,0,0,1,.53-.34.48.48,0,0,1,.44.45c0,.22.47,5.55-3,6.92A3.8,3.8,0,0,1,293.61,332.11Zm-1.76-3.46a.5.5,0,0,1,.33.12.49.49,0,0,1,.18.4,2.36,2.36,0,0,0,.62,1.77,1.82,1.82,0,0,0,1.67-.06,3.66,3.66,0,0,0,2-2.47,5.3,5.3,0,0,1-.83,1.25c-.37.37-.78.73-1.27.58s-.81-.92-1.29-3.18-1-5-1.17-6.12l-1.61.2a49.52,49.52,0,0,0,.16,6.21,1.72,1.72,0,0,0,.56,1.17.83.83,0,0,0,.57.14Z" style="fill:#263238"></path><path d="M271.65,115.86h-.1a.49.49,0,0,1-.32-.22c-.33-.5-.14-.8,0-.91.33-.35.81-.08,1,0a.52.52,0,0,1,.26.41.54.54,0,0,1-.22.44l-.27.19A.55.55,0,0,1,271.65,115.86Zm.24-.72,0,0-.21.36a.45.45,0,0,0,.21-.12A.43.43,0,0,0,272,115Z" style="fill:#263238"></path><path d="M322.91,198.8s.25-3.28-2-9.6-4-14.15-5.3-17.18a102.22,102.22,0,0,1-3-10.11l-1-6.07v-1.77h1.76l.26-4a29.22,29.22,0,0,0-.76-6.82c-.76-2.28-1.26-4-1.26-4l2.27,2-.25-6.07,1.77,1.52-2.28-5.31v-3.28c0-.76.25-3.79.25-3.79s10.36-8.09,12.89-10.11,3.79-2.27,3.79-2.27a7.16,7.16,0,0,0-5.56-2.28c-3.79,0-13.64,2.78-13.64,2.78s-2.14-3.1-9.46-5.74l0,.34s1.4,2.8,0,2.24-5.16-3.49-4.94-2.61a4.11,4.11,0,0,1,.11,1.53s-2-1.53-2.19-1a6.48,6.48,0,0,0-.32,1.1s-3.83-2.41-3.83-1.31a17.41,17.41,0,0,1-.11,2s-6-2.84-5.58-1.85l.44,1s-3.72-.11-3.5.44.76,1.53.76,1.53-7.43-.33-6.34.22l1.1.54s-8,2-7,2.63a13.48,13.48,0,0,0,2.84,1.2l-.82.58a9.38,9.38,0,0,1,1,.73c2,1.53,1.2.44,2,1.53s3.93,3.94,2.84,7.77-5.47,3.61-8,2.51-4.81-2.51-4.16-1,2.19,2.62,4.16,3.5a30.15,30.15,0,0,0,3.06,1.2s-3.83-.22-6.45-.22-5.8-1.42-5.47-.76a14.35,14.35,0,0,0,1.53,2s-8.86,1.74-7.76,2.62a4.43,4.43,0,0,1,1.42,2l-3.39,1.53,2,2s-4.38.65-2.85,2.18,4.27,5.14,4.27,5.14-2.41-.65-1.42.11a23,23,0,0,1,2.18,2.08s-18.26,8.2-14.65,8.53a42.39,42.39,0,0,0,5.58.22s-2,2.19-2.19,2.51,2.19,1.43,2.19,1.43-2.63,4.37-3.17,5.14,3.93-.55,3.93-.55-12.57,14-12.14,14.54,4.38.22,4.38.22-3.28,10.5-3.39,12.58.76,2,.76,2-4.42,15.77-3.35,15.95a7.08,7.08,0,0,0,2.85-.53s-1.42,4.45-.18,4.45,9.79-2.67,9.79-2.67-4.81,10.85-3.38,10.85a14,14,0,0,0,4.09-1.24s-5.16,9.61-2.85,9.25,15.84-6,15.84-6-.53,6,.54,5.69,5.33-2.66,5.33-2.66.36,3,1.07,2.66,5.87-3.91,5.87-3.91.89,2.67,2.85,2.13a37.38,37.38,0,0,0,5.16-2.13l4.45,4.45,2.67-1.25s-2,5.34-1.24,6.41,5.33-2.85,5.33-2.85-.35,3.56.72,2.85,3.73-3,3.73-3-1.06,4.81,1.43,3.39a14.93,14.93,0,0,0,3.91-3.21s.18,2.14,1.07,1.6a18,18,0,0,0,2.67-2.67,28.28,28.28,0,0,0,3.74-2.84l4.27-7.83c1.07-.89,2.84-8.72,2.84-8.72a59.37,59.37,0,0,0,2.5-5.7,13.83,13.83,0,0,1,1-2.62c.26-6.57.26-8.59.26-8.59Z" style="fill:#FFC100"></path><path d="M298.09,239.13a1.16,1.16,0,0,1-.69-.22c-.66-.49-.72-1.68-.63-2.67-.88.74-2.1,1.75-2.76,2.19a.83.83,0,0,1-.93.06c-.5-.3-.63-1.23-.62-2.22-1.33,1-3.47,2.57-4.54,2.41a.91.91,0,0,1-.65-.39c-.63-.95.19-3.91.8-5.73l-1.6.74a.49.49,0,0,1-.56-.1l-4.2-4.19a35.61,35.61,0,0,1-4.93,2c-1.58.43-2.67-.81-3.2-1.86-1.36.94-4.81,3.3-5.42,3.6a.75.75,0,0,1-.7,0c-.53-.29-.83-1.39-1-2.33-1.24.67-3.93,2.08-4.79,2.37a.74.74,0,0,1-.7-.12c-.73-.58-.69-3.27-.55-5.27-2.91,1.21-13.15,5.45-15.2,5.76a.92.92,0,0,1-1-.36c-.82-1.17,1.22-5.6,2.64-8.39a9.64,9.64,0,0,1-3,.75.72.72,0,0,1-.61-.33c-.68-1.05,1.47-6.47,3.09-10.22-2.39.73-7.83,2.37-8.89,2.37a.91.91,0,0,1-.74-.38c-.52-.72-.16-2.56.17-3.79a5.39,5.39,0,0,1-2.18.24.6.6,0,0,1-.43-.28c-.69-1.1,1.69-10.21,3.26-15.86l-.11-.09a2.73,2.73,0,0,1-.55-2.21c.1-1.82,2.45-9.58,3.19-12-2.33.15-3.7,0-4.07-.46s-.67-.85,11-13.93c-2.49.61-2.71.29-2.87.07a.61.61,0,0,1,0-.74c.42-.6,2.17-3.48,2.86-4.64-1.8-.87-1.92-1.26-2-1.42a.69.69,0,0,1,.07-.49c.15-.22.88-1,1.47-1.72-.94,0-2.45-.06-4.49-.24-.67-.06-.87-.39-.91-.65-.2-1.16,4.77-4,14.77-8.54a18.92,18.92,0,0,0-1.65-1.52c-.4-.31-.52-.62-.37-.92s.26-.39.89-.34c-.93-1.18-2.43-3.05-3.41-4a1.25,1.25,0,0,1-.42-1.32c.28-.83,1.6-1.3,2.6-1.53l-1.31-1.31a.5.5,0,0,1-.13-.44.51.51,0,0,1,.28-.37l2.95-1.33a4.08,4.08,0,0,0-1.09-1.32.71.71,0,0,1-.26-.71c.07-.29.29-1.16,7.4-2.62a9,9,0,0,1-1-1.43.6.6,0,0,1,0-.66c.3-.38.77-.26,2,.06a16.65,16.65,0,0,0,3.84.64c1.05,0,2.3,0,3.42.08l-.24-.1c-2.32-1-3.77-2.27-4.41-3.76-.08-.2-.33-.78.07-1.16s1.4-.08,3.18.77c.5.23,1,.48,1.57.71a7,7,0,0,0,5.34.21,3.6,3.6,0,0,0,2-2.4c.85-3-1.08-5.29-2.24-6.67a8.35,8.35,0,0,1-.53-.67,4.78,4.78,0,0,0-.33-.45,4.74,4.74,0,0,1-1.54-1,9.58,9.58,0,0,0-1-.7.47.47,0,0,1-.25-.41.49.49,0,0,1,.21-.43h0a10.07,10.07,0,0,1-2-1,.64.64,0,0,1-.3-.65c.06-.3.18-1,6.16-2.54a.57.57,0,0,1-.27-.63c.1-.4.19-.75,6.08-.52-.14-.27-.28-.58-.38-.81a.63.63,0,0,1,.07-.58c.11-.16.37-.6,3.12-.55l-.12-.27a.61.61,0,0,1,.12-.72c.22-.22.63-.63,5.48,1.62,0-.33.05-.75.05-1.21a.75.75,0,0,1,.38-.68c.66-.37,2.24.38,3.63,1.21.05-.16.11-.33.18-.5a.7.7,0,0,1,.46-.41,2.57,2.57,0,0,1,1.68.6c0-.14,0-.28-.08-.43a.59.59,0,0,1,.21-.67c.46-.33,1.06,0,3,1.3a23.1,23.1,0,0,0,2.28,1.36,6.66,6.66,0,0,0-.55-1.52.4.4,0,0,1-.05-.24v-.34a.46.46,0,0,1,.22-.39.51.51,0,0,1,.45-.06c6.19,2.23,8.75,4.79,9.47,5.64,1.76-.49,10-2.71,13.46-2.71a7.64,7.64,0,0,1,6,2.47.51.51,0,0,1-.3.8,10.6,10.6,0,0,0-3.58,2.17c-2.32,1.86-11.35,8.91-12.72,10,0,.7-.23,2.92-.23,3.53v3.18l2.24,5.21a.5.5,0,0,1-.79.58l-.9-.77.21,4.92a.5.5,0,0,1-.83.39l-1-.85c.2.66.46,1.46.75,2.34a29.17,29.17,0,0,1,.79,7l-.26,4.08a.49.49,0,0,1-.5.46H312v1.27l1,6a102.64,102.64,0,0,0,3,10c.61,1.48,1.34,4,2.17,7,.92,3.25,2,6.93,3.15,10.22,2.28,6.34,2.06,9.67,2,9.81a.49.49,0,0,1-.74.39l-1-.59c0,1.13-.08,3.5-.25,7.76a.41.41,0,0,1,0,.19,12.55,12.55,0,0,0-.94,2.41,39.51,39.51,0,0,1-2.52,5.86c-.32,1.42-1.8,7.69-2.92,8.86l-4.24,7.77a.41.41,0,0,1-.1.13,29,29,0,0,1-3.74,2.86,17.15,17.15,0,0,1-2.74,2.71.92.92,0,0,1-.93.06,1.66,1.66,0,0,1-.7-1,16.21,16.21,0,0,1-3.36,2.57A2.19,2.19,0,0,1,298.09,239.13Zm-.62-4.65a.59.59,0,0,1,.26.07.51.51,0,0,1,.23.54c-.27,1.22-.32,2.75,0,3,.07.06.28,0,.65-.17a14.29,14.29,0,0,0,3.77-3.08.5.5,0,0,1,.89.27,2.65,2.65,0,0,0,.36,1.25,21.94,21.94,0,0,0,2.5-2.6.29.29,0,0,1,.12-.1,27.86,27.86,0,0,0,3.6-2.74l4.23-7.75a.44.44,0,0,1,.12-.15c.58-.49,1.82-4.68,2.68-8.44a.35.35,0,0,1,0-.11A55.69,55.69,0,0,0,319.4,209a11,11,0,0,1,1-2.71c.24-6.4.25-8.45.25-8.47a.48.48,0,0,1,.25-.43.5.5,0,0,1,.49,0l1,.58a30.7,30.7,0,0,0-2-8.56c-1.19-3.32-2.24-7-3.16-10.29-.83-2.93-1.54-5.45-2.13-6.87A100,100,0,0,1,312.06,162l-1-6.1v-1.86a.5.5,0,0,1,.5-.5h1.29l.23-3.57a28.72,28.72,0,0,0-.74-6.63c-.75-2.26-1.26-4.05-1.27-4.07a.5.5,0,0,1,.22-.56.51.51,0,0,1,.6,0l1.39,1.24-.2-4.89a.5.5,0,0,1,.28-.47.51.51,0,0,1,.54.07l.14.12-1.43-3.33a.65.65,0,0,1,0-.2v-3.28c0-.77.25-3.71.26-3.83a.52.52,0,0,1,.19-.36c.1-.08,10.38-8.1,12.88-10.1a15.59,15.59,0,0,1,3.2-2.08,7.07,7.07,0,0,0-4.66-1.58c-3.68,0-13.41,2.73-13.51,2.76a.48.48,0,0,1-.54-.2s-2-2.75-8.3-5.2c.33.81.52,1.66.13,2.09a.91.91,0,0,1-1.08.13,18.51,18.51,0,0,1-2.53-1.48c-.49-.32-1.15-.74-1.62-1a3.8,3.8,0,0,1,0,1,.5.5,0,0,1-.8.31,8.69,8.69,0,0,0-1.5-1,6,6,0,0,0-.21.77.54.54,0,0,1-.3.36.5.5,0,0,1-.46,0,13.29,13.29,0,0,0-3.06-1.51,17,17,0,0,1-.12,1.81.47.47,0,0,1-.25.37.53.53,0,0,1-.46,0,40.65,40.65,0,0,0-4.63-1.92l.17.39a.49.49,0,0,1,0,.48.54.54,0,0,1-.43.22,18.27,18.27,0,0,0-2.86.11c.24.5.58,1.11.58,1.11a.49.49,0,0,1,0,.51.51.51,0,0,1-.45.24c-1.74-.08-3.64-.12-4.87-.09a.51.51,0,0,1-.23.84,44.11,44.11,0,0,0-6.41,2,15.12,15.12,0,0,0,2.27.88.5.5,0,0,1,.35.4.51.51,0,0,1-.2.49l-.23.16.47.35a4.61,4.61,0,0,0,1.3.85c.29.11.36.2.77.79.11.16.28.36.48.6,1.2,1.44,3.43,4.1,2.43,7.58a4.55,4.55,0,0,1-2.49,3,7.93,7.93,0,0,1-6.17-.19c-.55-.24-1.09-.49-1.59-.73s-1.41-.66-1.87-.81c.56,1.21,1.83,2.24,3.86,3.14a27.8,27.8,0,0,0,3,1.18.5.5,0,0,1,.35.57.49.49,0,0,1-.52.41s-3.84-.22-6.42-.22a17.65,17.65,0,0,1-4.09-.67l-.46-.12c.35.45.78.94,1,1.16a.51.51,0,0,1,.11.49.54.54,0,0,1-.38.34,39.15,39.15,0,0,0-7.28,2,5,5,0,0,1,1.32,2,.5.5,0,0,1-.28.6l-2.73,1.24,1.46,1.45a.51.51,0,0,1,.12.51.5.5,0,0,1-.4.34c-1.19.18-2.61.67-2.74,1.05,0,0,.05.17.18.29,1.53,1.54,4.19,5,4.31,5.19a.5.5,0,0,1,0,.58.51.51,0,0,1-.54.21l-.13,0c.72.68,1.36,1.36,1.39,1.4a.48.48,0,0,1,.12.44.51.51,0,0,1-.28.36c-6.39,2.87-13.2,6.31-14.6,7.59a41.8,41.8,0,0,0,5.29.2.52.52,0,0,1,.48.28.5.5,0,0,1-.08.55c-.64.72-1.53,1.72-1.94,2.2a13.08,13.08,0,0,0,1.77.95.49.49,0,0,1,.27.31.47.47,0,0,1,0,.4c-.09.15-1.9,3.16-2.8,4.58a27.94,27.94,0,0,0,3-.72.49.49,0,0,1,.51.81c-4.18,4.66-10.76,12.19-11.88,14a21.2,21.2,0,0,0,3.71,0,.5.5,0,0,1,.43.19.51.51,0,0,1,.09.46c-1.13,3.61-3.29,10.86-3.37,12.45-.06,1.12.19,1.43.26,1.45a.42.42,0,0,1,.41.17.5.5,0,0,1,.08.46c-1.85,6.6-3.6,13.89-3.51,15.35a7.1,7.1,0,0,0,2.33-.53.51.51,0,0,1,.53.1.53.53,0,0,1,.14.52c-.55,1.7-.83,3.52-.59,3.83.78,0,6.3-1.66,9.57-2.68a.5.5,0,0,1,.52.14.51.51,0,0,1,.09.54c-1.83,4.12-3.64,9-3.62,10.14a14.56,14.56,0,0,0,3.66-1.19.5.5,0,0,1,.65.69c-2.17,4-3.7,8-3.35,8.57,1.77-.32,11-4.1,15.71-6.06a.49.49,0,0,1,.49.06.48.48,0,0,1,.2.44,18.79,18.79,0,0,0,.06,5.11c1.05-.42,4-2,5.08-2.56a.47.47,0,0,1,.46,0,.5.5,0,0,1,.27.39,8,8,0,0,0,.52,2.18c.84-.5,3.74-2.47,5.64-3.78a.49.49,0,0,1,.44-.06.47.47,0,0,1,.32.31c0,.09.76,2.22,2.24,1.81a36.17,36.17,0,0,0,5.07-2.1.51.51,0,0,1,.58.1l4.2,4.2,2.35-1.1a.51.51,0,0,1,.55.08.5.5,0,0,1,.13.54c-.9,2.47-1.64,5.45-1.3,6,.43.1,2.6-1.26,4.6-2.95a.52.52,0,0,1,.56-.06.49.49,0,0,1,.26.49,8.17,8.17,0,0,0,.05,2.3c1.13-.79,3.55-2.88,3.58-2.9A.5.5,0,0,1,297.47,234.48Z" style="fill:#263238"></path><path d="M305,115.92l-1.27,2.27s-11.12,4-12.38,5.31A5.55,5.55,0,0,0,289.8,126l10.36-2.28-2,4.3s7.08-3.54,9.1-4,6.06.25,6.06.25,10.36-8.09,12.89-10.11,3.79-2.27,3.79-2.27a7.16,7.16,0,0,0-5.56-2.28c-3.79,0-13.64,2.78-13.64,2.78S306.23,113.64,305,115.92Z" style="fill:#263238"></path><path d="M298.14,128.55a.54.54,0,0,1-.35-.14.52.52,0,0,1-.1-.58l1.59-3.37-9.37,2.05a.49.49,0,0,1-.46-.13.51.51,0,0,1-.14-.45,6,6,0,0,1,1.66-2.78c1.25-1.26,10.63-4.72,12.39-5.36l1.17-2.11h0c1.35-2.43,5.92-3.73,6.11-3.78.41-.11,10-2.8,13.78-2.8a7.64,7.64,0,0,1,6,2.47.51.51,0,0,1-.3.8,10.6,10.6,0,0,0-3.58,2.17c-2.5,2-12.79,10-12.89,10.11a.48.48,0,0,1-.4.1s-3.95-.73-5.85-.26-8.92,4-9,4A.59.59,0,0,1,298.14,128.55Zm2-5.3a.51.51,0,0,1,.4.19.53.53,0,0,1,.06.53l-1.42,3a67.56,67.56,0,0,1,7.92-3.45c1.84-.46,5.16,0,6.05.21,1.38-1.08,10.39-8.12,12.71-10a15.59,15.59,0,0,1,3.2-2.08,7.07,7.07,0,0,0-4.66-1.58c-3.68,0-13.41,2.73-13.51,2.76s-4.36,1.24-5.51,3.3l-1.26,2.28a.49.49,0,0,1-.27.22c-4.42,1.61-11.33,4.32-12.2,5.19a5.94,5.94,0,0,0-1.08,1.49l9.47-2.08Zm3.54-5.06h0Z" style="fill:#263238"></path><path d="M299.91,122.23a.5.5,0,0,1-.16-1c.09,0,8.85-3.05,12.8-5.27,3.41-1.92,13.93-6.56,17.67-4.55a.5.5,0,0,1-.48.88c-2.93-1.59-12.28,2.06-16.7,4.54-4,2.27-12.6,5.22-13,5.34A.41.41,0,0,1,299.91,122.23Z" style="fill:#fff"></path><path d="M280,123.88c0,2.86-3.05,5.18-6.82,5.18s-6.83-2.32-6.83-5.18,3.06-5.18,6.83-5.18S280,121,280,123.88Z" style="fill:#263238"></path><path d="M273.13,129.56c-4,0-7.33-2.55-7.33-5.68s3.29-5.68,7.33-5.68,7.32,2.55,7.32,5.68S277.16,129.56,273.13,129.56Zm0-10.36c-3.49,0-6.33,2.1-6.33,4.68s2.84,4.68,6.33,4.68,6.32-2.1,6.32-4.68S276.61,119.2,273.13,119.2Z" style="fill:#263238"></path><path d="M277.72,121.27c0,.59-.72,1.07-1.6,1.07s-1.6-.48-1.6-1.07.71-1.07,1.6-1.07S277.72,120.68,277.72,121.27Z" style="fill:#fff"></path><path d="M273.19,277.47a.52.52,0,0,1-.39-.19.51.51,0,0,1,.09-.71c5.1-4,10.44-9.72,15.88-17a.48.48,0,0,1,.69-.1.5.5,0,0,1,.11.7c-5.49,7.37-10.89,13.17-16.07,17.22A.51.51,0,0,1,273.19,277.47Z" style="fill:#263238"></path><path d="M265,282.25a.5.5,0,0,1-.11-1,18.75,18.75,0,0,0,4.83-2.42.5.5,0,1,1,.54.84,19.21,19.21,0,0,1-5.14,2.55Z" style="fill:#263238"></path><path d="M55.09,316.28s76.1-5,93.62-3.23,67,4.09,69.91,4.82,1.46,4,6.21,6.57S242,323,271.55,322.25s43.08-3.65,50.74-4.38,37.6-3.28,37.6-3.28a18.23,18.23,0,0,0,11.32,1.09c6.2-1.46,7.3-4,11-5.11s13.14-2.19,13.14-2.19l-1.83-15s-32.12,8-79.94,9.85S210.8,306,177.38,300.35s-91.93-3.74-91.93-3.74-30.93-.35-35.26,2.54S48.93,314.18,55.09,316.28Z" style="fill:#263238"></path><path d="M229.6,325.79a10.6,10.6,0,0,1-5-.91,8.59,8.59,0,0,1-4.14-4.48c-.5-1.06-.83-1.76-1.95-2-1.29-.32-12.54-1-25.56-1.76-15.48-.92-34.75-2.06-44.28-3.05-17.28-1.8-92.78,3.18-93.54,3.23a.42.42,0,0,1-.19,0C51,315.41,48.35,310.3,47.78,306c-.44-3.4.34-6,2.13-7.23,4.41-2.94,34.28-2.64,35.55-2.62.56,0,58.91-1.83,92,3.75,35.13,5.92,94.47,4.5,136,2.91,47.21-1.8,79.52-9.76,79.84-9.84a.54.54,0,0,1,.41.07.5.5,0,0,1,.21.36l1.82,15a.5.5,0,0,1-.43.56c-.1,0-9.49,1.1-13.06,2.17a13.27,13.27,0,0,0-3.63,1.87,20.51,20.51,0,0,1-7.35,3.25,18.57,18.57,0,0,1-11.52-1.07c-2.2.19-30.15,2.57-37.46,3.27-1.82.17-3.93.47-6.6.84a353.7,353.7,0,0,1-44.17,3.54c-13.86.35-23.91,1.41-31.24,2.18C235.72,325.42,232.24,325.79,229.6,325.79Zm-92.46-13.63c4.92,0,9,.12,11.62.39,9.51,1,28.77,2.13,44.24,3.05,13.61.81,24.37,1.44,25.74,1.79,1.58.39,2.08,1.46,2.62,2.58a7.59,7.59,0,0,0,3.71,4c2.38,1.29,7.18.78,15.15-.06,7.35-.78,17.42-1.84,31.32-2.19a351.87,351.87,0,0,0,44.06-3.54c2.69-.37,4.81-.66,6.64-.83,7.59-.73,37.31-3.26,37.61-3.29a.47.47,0,0,1,.26.05,17.8,17.8,0,0,0,11,1.06,19.52,19.52,0,0,0,7-3.12,14.38,14.38,0,0,1,3.89-2c3.21-1,10.71-1.9,12.73-2.14L393.05,294c-4.46,1.06-35.54,8.06-79.5,9.74-41.62,1.59-101,3-136.26-2.93-33-5.56-91.24-3.75-91.82-3.73-10.67-.12-31.68.24-35,2.45-1.45,1-2.08,3.31-1.69,6.27.52,4,2.87,8.68,6.38,9.94C57.86,315.59,110.51,312.16,137.14,312.16Z" style="fill:#263238"></path><path d="M202.28,280.79s4.51,9.67,4.73,14.39.21,10.75.21,13.11a61.52,61.52,0,0,1-.86,7.31s-1.07,2.58.65,2.58,1.93-2.58,2.58-4.73-.43,5.37-1.94,7.74-2.58,3.86-.64,4.51,4.51-1.72,5.59-5.8,2.57-5.38,3-9a45.4,45.4,0,0,0-.21-8.81s3.87,3.22,5.59,3.87,2.79.86,2.36,4.08-.43,4.73,1.72,4.08,3.44-4.29,1.5-7.73-6-6.23-9-8.17a38,38,0,0,1-6-5.15,6,6,0,0,1-1.72-2.37c-.21-1.07-3.65-9.67-3.65-9.67l-.24,2.45Z" style="fill:#bdbdbd"></path><path d="M207.67,326.3a2.51,2.51,0,0,1-.82-.13,1.87,1.87,0,0,1-1.3-1.08c-.35-1,.42-2.19,1.48-3.85l.2-.32a11.06,11.06,0,0,0,1.07-2.72,1.86,1.86,0,0,1-1.29.48,1.38,1.38,0,0,1-1.22-.59c-.56-.84-.07-2.24.09-2.63a60.57,60.57,0,0,0,.84-7.17c0-2.29,0-8.37-.21-13.08s-4.64-14.12-4.68-14.21a.51.51,0,0,1,.13-.6.53.53,0,0,1,.62,0l2.92,2.15.15-1.58a.5.5,0,0,1,1-.13c.36.88,3.47,8.67,3.68,9.75a5.25,5.25,0,0,0,1.56,2.09,37.89,37.89,0,0,0,6,5.11c3.48,2.24,7.3,5,9.19,8.34a7.14,7.14,0,0,1,.58,6.07,3.88,3.88,0,0,1-2.38,2.39,2,2,0,0,1-2-.16c-.82-.7-.68-2.29-.39-4.46.36-2.67-.27-2.9-1.78-3.46l-.26-.09a25.54,25.54,0,0,1-4.79-3.19,40.35,40.35,0,0,1,.09,7.72,15.61,15.61,0,0,1-1.51,5,26,26,0,0,0-1.51,4.13c-.72,2.76-2.16,4.94-3.85,5.85A3.23,3.23,0,0,1,207.67,326.3Zm2.07-13.73a.51.51,0,0,1,.44.24c.42.64-1,6.87-2.1,8.64l-.21.33c-.8,1.26-1.56,2.44-1.38,3,.07.19.3.35.68.47a2,2,0,0,0,1.59-.23c1.42-.77,2.71-2.77,3.35-5.22a26.41,26.41,0,0,1,1.57-4.28,14.73,14.73,0,0,0,1.43-4.68,44.3,44.3,0,0,0-.22-8.69.52.52,0,0,1,.26-.5.48.48,0,0,1,.56.06s3.82,3.17,5.44,3.78l.26.1c1.79.66,2.86,1.23,2.43,4.52-.16,1.19-.43,3.17,0,3.57.21.17.68.08,1,0a3,3,0,0,0,1.73-1.82,6.13,6.13,0,0,0-.52-5.2c-1.78-3.16-5.48-5.81-8.86-8a37.64,37.64,0,0,1-6.11-5.23,6,6,0,0,1-1.85-2.61c-.12-.62-1.58-4.42-2.86-7.66l0,.39a.52.52,0,0,1-.29.41.5.5,0,0,1-.5-.06l-2.11-1.54c1.31,3,3.83,9.26,4,12.85.21,4.74.21,10.84.21,13.13a62.42,62.42,0,0,1-.86,7.39l0,.11c-.22.51-.43,1.42-.2,1.75,0,0,.09.14.38.14.92,0,1.27-1.15,1.74-3,.11-.45.23-.91.36-1.34s.2-.69.57-.74Zm-3.38,3h0Z" style="fill:#263238"></path><path d="M210,311s.94-1.41.78-5-.78-7.83-.78-7.83" style="fill:#fff"></path><path d="M210,311.5a.49.49,0,0,1-.28-.09.5.5,0,0,1-.14-.69s.85-1.39.7-4.71c-.15-3.53-.77-7.73-.77-7.77a.49.49,0,0,1,.42-.57.5.5,0,0,1,.56.42s.64,4.29.79,7.88-.82,5.24-.86,5.3A.51.51,0,0,1,210,311.5Z" style="fill:#263238"></path><path d="M205.79,317.26a8.82,8.82,0,0,1-1.4,2.19c-.79.78-2,.15-2,.15s1.1,3,2.35,2.66,3.75-4.53,3.75-4.53S206.42,319.45,205.79,317.26Z" style="fill:#fff"></path><path d="M204.51,322.79c-1.44,0-2.43-2.49-2.63-3a.51.51,0,0,1,.14-.55.48.48,0,0,1,.56-.07s.94.45,1.45-.07a8.31,8.31,0,0,0,1.31-2,.48.48,0,0,1,.49-.29.5.5,0,0,1,.45.36c.11.41.29.66.51.72.42.14,1.08-.28,1.34-.5a.53.53,0,0,1,.65,0,.5.5,0,0,1,.1.64c-.43.74-2.68,4.42-4.06,4.77A1.15,1.15,0,0,1,204.51,322.79Zm-1.29-2.46c.45.86,1,1.55,1.36,1.45s1.57-1.44,2.57-2.92a1.59,1.59,0,0,1-.65-.06,1.37,1.37,0,0,1-.7-.46,7,7,0,0,1-1.06,1.46A1.92,1.92,0,0,1,203.22,320.33Z" style="fill:#263238"></path><path d="M205.64,324.77a4.06,4.06,0,0,1-1.25,1.87c-.79.47-2.66-1.4-2.66-1.4s1.4,3,2.81,3.28,3.6-2.34,3.6-2.34S205.79,325.71,205.64,324.77Z" style="fill:#fff"></path><path d="M204.78,329.05a1.39,1.39,0,0,1-.35,0c-1.6-.35-3-3.23-3.16-3.56a.5.5,0,0,1,.81-.57c.86.86,1.83,1.44,2,1.33a3.52,3.52,0,0,0,1-1.6.52.52,0,0,1,.52-.34.5.5,0,0,1,.45.42c.06.34,1.16.8,2.11,1a.48.48,0,0,1,.37.32.49.49,0,0,1-.08.48C208.16,326.94,206.34,329.05,204.78,329.05Zm-1.31-2a2.52,2.52,0,0,0,1.18.94c.62.14,1.73-.71,2.57-1.57a4.76,4.76,0,0,1-1.47-.71,3.22,3.22,0,0,1-1.11,1.32A1.3,1.3,0,0,1,203.47,327.09Z" style="fill:#263238"></path><path d="M223.16,313.81s.32.63-.15,2.66-1.1,4.38-1.1,4.38a15.86,15.86,0,0,0,2.82-3.75c.63-1.57,1.56-3.29,1.56-3.29A2.88,2.88,0,0,1,223.16,313.81Z" style="fill:#fff"></path><path d="M221.91,321.35a.57.57,0,0,1-.25-.06.51.51,0,0,1-.23-.56s.63-2.37,1.09-4.37a5,5,0,0,0,.19-2.35.51.51,0,0,1,.16-.59.5.5,0,0,1,.6,0,2.38,2.38,0,0,0,2.56,0,.5.5,0,0,1,.7.66s-.93,1.72-1.54,3.24a15.82,15.82,0,0,1-2.92,3.92A.54.54,0,0,1,221.91,321.35Zm1.85-6.67a8.77,8.77,0,0,1-.26,1.91c-.19.8-.4,1.66-.59,2.4a8.64,8.64,0,0,0,1.35-2.08c.31-.76.68-1.55,1-2.17A3.17,3.17,0,0,1,223.76,314.68Z" style="fill:#263238"></path><path d="M288.11,315.22a18.68,18.68,0,0,0,.47,3.76,15.7,15.7,0,0,0,1.72,4.07v-7.36Z" style="fill:#fff"></path><path d="M290.3,323.55a.51.51,0,0,1-.43-.24,16.45,16.45,0,0,1-1.78-4.22,18.68,18.68,0,0,1-.48-3.87.5.5,0,0,1,.18-.39.53.53,0,0,1,.42-.1l2.19.47a.51.51,0,0,1,.4.49v7.36a.5.5,0,0,1-.37.48Zm-1.67-7.71a19.42,19.42,0,0,0,.43,3,11.41,11.41,0,0,0,.74,2.11v-4.89Z" style="fill:#263238"></path><path d="M299.06,324s-.63,4.7-1.25,6.89-1.25,3.91-1.25,3.91,3.28-3.75,4.06-6.26a34,34,0,0,0,1.1-5.94Z" style="fill:#fff"></path><path d="M296.56,335.28a.5.5,0,0,1-.47-.67s.62-1.73,1.24-3.88a66,66,0,0,0,1.23-6.81.53.53,0,0,1,.27-.38l2.66-1.41a.5.5,0,0,1,.73.49,34.42,34.42,0,0,1-1.12,6.05c-.8,2.58-4,6.29-4.17,6.44A.5.5,0,0,1,296.56,335.28Zm3-11a64,64,0,0,1-1.23,6.7l-.37,1.26a15.63,15.63,0,0,0,2.23-3.9,31.48,31.48,0,0,0,1-4.91Z" style="fill:#263238"></path><path d="M253.92,287.75s4,3.37,7.11,3.84,24.89,11.9,24.89,11.9a14.42,14.42,0,0,1,1.09,5c0,2.51-.31,4.07,1.1,6.73s2.19,2.51,2.19.47-1.26-4.38-.79-6.88a20.08,20.08,0,0,1,1.57-4.7s3,.47,3.75,1.41,0,1.25,1.57,5.63a30,30,0,0,1,1.72,10.49c0,2.5,1.88,4.07,3,2s.47-5.16.47-7.67.63-4.53-.31-6.88-2.19-4.85-2.19-4.85.47-4.38-1.56-5.32-5.17.94-5.17.94l-25.66-11.11-4.16.23,1-3.29-3.59,1.65.81-2.66Z" style="fill:#bdbdbd"></path><path d="M299.89,325.1a1.73,1.73,0,0,1-.37,0c-1.1-.28-1.9-1.72-1.9-3.42a29.57,29.57,0,0,0-1.69-10.32,18.87,18.87,0,0,1-1.13-4.43,1.58,1.58,0,0,0-.35-1.05,6.86,6.86,0,0,0-3.08-1.17A19.71,19.71,0,0,0,290,308.9a9.75,9.75,0,0,0,.36,4.09,12.11,12.11,0,0,1,.43,2.7c0,.77-.09,1.82-.84,2s-1.39-.53-2.3-2.24a10.21,10.21,0,0,1-1.17-5.84c0-.36,0-.73,0-1.13a13.8,13.8,0,0,0-1-4.65c-7.54-4-22.17-11.39-24.56-11.75-3.23-.49-7.19-3.82-7.36-4a.51.51,0,0,1-.17-.46.48.48,0,0,1,.29-.38l6.82-3a.51.51,0,0,1,.54.08.5.5,0,0,1,.14.52l-.48,1.59,2.58-1.18a.5.5,0,0,1,.68.6l-.8,2.6,3.44-.19a.45.45,0,0,1,.23,0l25.43,11c.8-.43,3.47-1.73,5.4-.84,2.14,1,1.95,4.78,1.87,5.68.27.55,1.33,2.73,2.14,4.76a10.32,10.32,0,0,1,.46,5c-.05.67-.11,1.36-.11,2.07s.05,1.34.09,2c.13,2.09.26,4.24-.62,5.87A1.87,1.87,0,0,1,299.89,325.1Zm-8.81-21.49h.08c.32.05,3.18.53,4.06,1.58a2.56,2.56,0,0,1,.57,1.56,17.92,17.92,0,0,0,1.08,4.22,30.6,30.6,0,0,1,1.75,10.66c0,1.33.6,2.31,1.15,2.45s.73-.37.88-.66c.74-1.37.62-3.38.5-5.33,0-.72-.09-1.43-.09-2.1s.06-1.46.11-2.14a9.42,9.42,0,0,0-.38-4.56c-.92-2.3-2.16-4.78-2.18-4.81a.52.52,0,0,1-.05-.28c.12-1.12.12-4.16-1.27-4.81s-3.89.43-4.7.91a.47.47,0,0,1-.46,0l-25.55-11.06-4,.23a.47.47,0,0,1-.42-.19.5.5,0,0,1-.08-.46l.68-2.22-2.57,1.18a.5.5,0,0,1-.69-.6l.49-1.61-5.07,2.26c1.22.94,4,2.89,6.23,3.23,3.17.47,24.15,11.47,25,11.94a.49.49,0,0,1,.22.25,14.55,14.55,0,0,1,1.14,5.2c0,.41,0,.79,0,1.15a9.26,9.26,0,0,0,1.06,5.35,5.56,5.56,0,0,0,1.14,1.67,3,3,0,0,0,.11-1,11.91,11.91,0,0,0-.4-2.48,10.75,10.75,0,0,1-.38-4.5,20.9,20.9,0,0,1,1.61-4.82A.51.51,0,0,1,291.08,303.61Z" style="fill:#263238"></path><path d="M305.79,315.85a14.7,14.7,0,0,0-.63,3.13v3.13a19.05,19.05,0,0,0,1.57-4.07,21.67,21.67,0,0,0,.47-4.23Z" style="fill:#fff"></path><path d="M305.16,322.61l-.12,0a.49.49,0,0,1-.38-.48V319a14.89,14.89,0,0,1,.65-3.28.91.91,0,0,1,.07-.14l1.41-2a.49.49,0,0,1,.56-.19.48.48,0,0,1,.35.47,21.94,21.94,0,0,1-.49,4.34,18.38,18.38,0,0,1-1.61,4.19A.5.5,0,0,1,305.16,322.61Zm1.08-6.54a14.21,14.21,0,0,0-.58,2.91v.79a14.64,14.64,0,0,0,.58-1.84,17.22,17.22,0,0,0,.36-2.38Z" style="fill:#263238"></path><path d="M298.59,300.82s3.91-.46,4.85.47,2.66,4.39,3.6,5.79.16,3.92.16,5.17-.47,4.54-1.41,3.6-1.1-4.38-1.88-6.42-4.85-5.16-4.85-5.16Z" style="fill:#bdbdbd"></path><path d="M306.11,316.51a.9.9,0,0,1-.67-.31c-.66-.66-.94-2.06-1.27-3.69a18.3,18.3,0,0,0-.73-2.9c-.6-1.56-3.58-4.1-4.68-4.95a.48.48,0,0,1-.2-.33l-.47-3.44a.53.53,0,0,1,.1-.37.49.49,0,0,1,.34-.19c.69-.09,4.21-.45,5.27.61a22.49,22.49,0,0,1,2.4,3.74c.47.83.92,1.62,1.26,2.13.78,1.17.55,2.86.36,4.21a11.18,11.18,0,0,0-.12,1.23s-.08,3.7-1.28,4.2A.73.73,0,0,1,306.11,316.51ZM299.53,304c.79.62,4.11,3.33,4.85,5.25a19.25,19.25,0,0,1,.77,3.06,9.37,9.37,0,0,0,1,3.14,8.72,8.72,0,0,0,.6-3.2,10.48,10.48,0,0,1,.13-1.36c.16-1.19.37-2.67-.21-3.53-.35-.53-.81-1.34-1.29-2.19a24,24,0,0,0-2.24-3.52c-.48-.48-2.43-.51-3.93-.38Z" style="fill:#263238"></path></g><g id="freepik--leaves-1--inject-135"><path d="M87.91,275.31c11.85-.25,23.85,1.41,35.25,3.58,18.86,3.61,32.45,12.69,48.47,22.76,10.93,6.87,26.27,16.2,26.27,16.2s-40.43,10-79.85,24.41-44.7,15.07-56.7,7.23-45.06-43.57-45.06-43.57l-3.42-3.52c.31.33,47.68-22.46,52.13-23.77A87.13,87.13,0,0,1,87.91,275.31Z" style="fill:#FFC100"></path><path d="M75.51,355c-5.55,0-9.41-1.81-14.43-5.09-11.91-7.79-44.83-43.29-45.16-43.65l-3.41-3.51h0a.5.5,0,0,1,0-.71.51.51,0,0,1,.32-.14c1-.29,10.58-4.79,19.87-9.14,13.88-6.5,29.62-13.87,32.15-14.61a86.68,86.68,0,0,1,23-3.34h0c10.19-.2,21.42.93,35.35,3.59,17.85,3.41,30.83,11.6,45.86,21.07l2.79,1.75c10.8,6.79,26.11,16.11,26.26,16.2a.5.5,0,0,1,.23.5.49.49,0,0,1-.37.41c-.41.1-40.86,10.14-79.79,24.4C94.9,351.26,83.47,355,75.51,355ZM13.75,302.59l2.9,3c.33.37,33.17,35.78,45,43.5s17.09,7.05,56.25-7.28c35.3-12.93,71.83-22.39,78.74-24.14-3.61-2.2-16.06-9.8-25.26-15.58l-2.79-1.76c-14.94-9.41-27.84-17.55-45.51-20.92-13.85-2.65-25-3.79-35.14-3.58h0a86,86,0,0,0-22.78,3.3c-2.46.72-18.84,8.39-32,14.56C20.22,299.72,15.54,301.91,13.75,302.59Z" style="fill:#263238"></path><path d="M174.31,318.06a.5.5,0,0,1-.1-1c4.57-.95,7.3-1.69,7.33-1.7a.5.5,0,0,1,.26,1s-2.79.75-7.39,1.71Z" style="fill:#263238"></path><path d="M132.33,322.59a146.38,146.38,0,0,1-18.48-1.12c-32.79-4.23-75.38-16.49-75.8-16.62a.5.5,0,1,1,.27-1c.43.13,42.94,12.36,75.66,16.58,20.22,2.61,41,.17,54.8-2.34a.5.5,0,0,1,.18,1A208.77,208.77,0,0,1,132.33,322.59Z" style="fill:#263238"></path><path d="M62.45,337.68a.49.49,0,0,1-.34-.14c-9.36-8.75-17-26.74-17.11-26.92a.5.5,0,0,1,.92-.39c.08.18,7.67,18,16.87,26.58a.5.5,0,0,1,0,.71A.52.52,0,0,1,62.45,337.68Z" style="fill:#263238"></path><path d="M94.14,340a.45.45,0,0,1-.25-.07,45.23,45.23,0,0,1-8.75-7,.49.49,0,0,1,0-.7.5.5,0,0,1,.71,0,44.22,44.22,0,0,0,8.55,6.88.51.51,0,0,1,.18.69A.5.5,0,0,1,94.14,340Z" style="fill:#263238"></path><path d="M82.62,330.12a.5.5,0,0,1-.37-.16,158.34,158.34,0,0,1-11.44-13.91.49.49,0,0,1,.12-.69.51.51,0,0,1,.7.11A158.72,158.72,0,0,0,83,329.28a.49.49,0,0,1-.36.84Z" style="fill:#263238"></path><path d="M97.75,303.5a.5.5,0,0,1,0-1,52,52,0,0,1,8.22-.19.5.5,0,0,1,.47.53.52.52,0,0,1-.53.47,52.39,52.39,0,0,0-8.06.18Z" style="fill:#263238"></path><path d="M75.61,309.27a.49.49,0,0,1-.45-.29.51.51,0,0,1,.25-.67,80.53,80.53,0,0,1,18-5.23.5.5,0,1,1,.16,1,80.15,80.15,0,0,0-17.72,5.16A.54.54,0,0,1,75.61,309.27Z" style="fill:#263238"></path><path d="M136.19,310.46a.49.49,0,0,1-.48-.37.5.5,0,0,1,.35-.61c2.64-.71,5-1.39,7-2a.5.5,0,0,1,.62.33.49.49,0,0,1-.33.63c-2,.62-4.42,1.3-7.06,2A.34.34,0,0,1,136.19,310.46Z" style="fill:#263238"></path><path d="M106.73,317.5a.5.5,0,0,1-.49-.39.51.51,0,0,1,.39-.6c.12,0,12.77-2.73,24.71-5.79a.5.5,0,1,1,.25,1c-12,3.06-24.63,5.77-24.75,5.8Z" style="fill:#263238"></path><path d="M50.81,301.8a.49.49,0,0,1-.41-.21.51.51,0,0,1,.11-.7c.19-.13,19.11-13.69,33.75-16.85a.5.5,0,0,1,.59.39.49.49,0,0,1-.38.59C70,288.13,51.29,301.57,51.1,301.71A.52.52,0,0,1,50.81,301.8Z" style="fill:#263238"></path><path d="M128.59,333.89h-.07c-9-1.18-20.58-9.79-21.07-10.15a.5.5,0,1,1,.59-.8c.12.09,11.9,8.81,20.61,9.95a.5.5,0,0,1,.43.56A.49.49,0,0,1,128.59,333.89Z" style="fill:#263238"></path><path d="M44.76,230.41S60.9,218.78,79,211.68s81.35-10.33,81.35-10.33l12.27-3.23s-16.79,19.37-35.51,42.62-26.47,36.15-51.66,43.9S41.53,297.55,37,298.85s-23.24,10.33-23.24,10.33S22.16,257.52,44.76,230.41Z" style="fill:#FFC100"></path><path d="M13.77,309.68a.54.54,0,0,1-.3-.1.51.51,0,0,1-.2-.48c.09-.52,8.68-52.1,31.1-79a.28.28,0,0,1,.1-.09c.16-.12,16.4-11.74,34.33-18.78,17.72-7,79.32-10.25,81.45-10.37l12.22-3.21a.48.48,0,0,1,.55.22.5.5,0,0,1,0,.59c-.17.19-17,19.63-35.5,42.6-2.16,2.67-4.16,5.21-6.07,7.62-14.59,18.42-23.4,29.55-45.83,36.45-21.61,6.65-38.47,11.4-45.67,13.43l-2.76.78c-4.43,1.26-23,10.21-23.17,10.3A.5.5,0,0,1,13.77,309.68Zm31.33-78.9c-20.54,24.7-29.39,70.36-30.67,77.52,3.79-1.82,18.44-8.79,22.44-9.93l2.77-.79c7.19-2,24-6.77,45.65-13.42,22.13-6.81,30.87-17.84,45.34-36.11,1.9-2.41,3.91-5,6.07-7.63,15.86-19.69,30.5-36.79,34.47-41.4l-10.71,2.81-.1,0c-.63,0-63.4,3.31-81.2,10.3C61.85,219,46.12,230.05,45.1,230.78Z" style="fill:#263238"></path><path d="M143.17,209.91a.51.51,0,0,1-.48-.36.5.5,0,0,1,.34-.62c4.05-1.22,8.18-2.51,10.93-3.58a.5.5,0,1,1,.36.93c-2.77,1.09-6.93,2.38-11,3.61Z" style="fill:#263238"></path><path d="M28.86,289.85a.51.51,0,0,1-.31-.11.5.5,0,0,1-.09-.7c9.8-12.49,28.21-35.38,41.5-48.32,13.61-13.25,41.22-22.27,66-29.69a.5.5,0,0,1,.28,1c-24.7,7.38-52.17,16.36-65.62,29.45C57.41,254.34,39,277.18,29.25,289.66A.51.51,0,0,1,28.86,289.85Z" style="fill:#263238"></path><path d="M20.73,300.37a.57.57,0,0,1-.31-.1.5.5,0,0,1-.09-.7s1.89-2.5,5-6.55a.5.5,0,1,1,.79.61c-3.14,4-5,6.54-5,6.54A.51.51,0,0,1,20.73,300.37Z" style="fill:#263238"></path><path d="M33.77,284.57a.5.5,0,0,1,0-1c.76,0,18.53-.66,19.85-.66a.5.5,0,1,1,0,1c-1.3,0-19.63.65-19.81.66Z" style="fill:#263238"></path><path d="M32.78,280h-.06a.5.5,0,0,1-.44-.56l3-24.12a.5.5,0,0,1,1,.13l-3,24.12A.51.51,0,0,1,32.78,280Z" style="fill:#263238"></path><path d="M77.34,254.71a.5.5,0,0,1,0-1A49.71,49.71,0,0,1,83,253.5a.5.5,0,0,1,0,1,47.6,47.6,0,0,0-5.6.21Z" style="fill:#263238"></path><path d="M51,262.76a.54.54,0,0,1-.32-.11.51.51,0,0,1-.16-.53l8.6-27.76a.5.5,0,0,1,.62-.33.51.51,0,0,1,.33.63l-8.24,26.63c3.09-1.53,12.38-5.87,20.22-7a.5.5,0,1,1,.14,1c-9.35,1.31-20.84,7.34-21,7.4A.69.69,0,0,1,51,262.76Z" style="fill:#263238"></path><path d="M114.72,235.67c-.06,0-6,0-13.85-.38a.5.5,0,0,1-.48-.52.52.52,0,0,1,.53-.48c7.78.38,13.74.38,13.8.38a.5.5,0,0,1,0,1Z" style="fill:#263238"></path><path d="M76.39,235.67a.51.51,0,0,1-.4-.2.5.5,0,0,1,0-.51l4.86-10.29a.5.5,0,1,1,.91.43l-4.47,9.46A108.5,108.5,0,0,1,95.92,234a.5.5,0,0,1-.06,1,106.41,106.41,0,0,0-19.4.66Z" style="fill:#263238"></path><path d="M83.41,220.84a.54.54,0,0,1-.22-.05.51.51,0,0,1-.24-.67l1.58-3.34a.5.5,0,0,1,.91.43l-1.58,3.34A.51.51,0,0,1,83.41,220.84Z" style="fill:#263238"></path><path d="M129.92,223.11h0l-25.11-1a.49.49,0,0,1-.42-.25.52.52,0,0,1,0-.5l6.27-10.9a.51.51,0,0,1,.69-.18.49.49,0,0,1,.18.68l-5.87,10.19,24.29,1a.51.51,0,0,1,.48.52A.5.5,0,0,1,129.92,223.11Z" style="fill:#263238"></path><path d="M103.39,337.78s12.18,15.72,19.91,33.54,13.16,80.95,13.16,80.95l3.65,12.14s-19.94-16.1-43.82-34-37.06-25.2-45.68-50.09-14.44-43.43-15.89-47.9-11.13-22.87-11.13-22.87S75.5,316.14,103.39,337.78Z" style="fill:#FFC100"></path><path d="M140.11,464.91a.45.45,0,0,1-.31-.11c-.2-.16-20.21-16.3-43.81-34-2.75-2.06-5.36-4-7.83-5.8-18.92-13.94-30.35-22.35-38-44.53-7.38-21.33-12.72-38-15-45.14-.38-1.2-.68-2.13-.88-2.77-1.42-4.38-11-22.6-11.1-22.79a.49.49,0,0,1,0-.52.51.51,0,0,1,.47-.21c.52.07,52.37,6.86,80.05,28.33l.09.09c.12.16,12.3,16,20,33.65,7.57,17.47,13,78.92,13.19,81.05l3.64,12.1a.51.51,0,0,1-.2.56A.54.54,0,0,1,140.11,464.91ZM24.48,310.18c1.95,3.73,9.44,18.13,10.72,22.08.21.65.5,1.58.89,2.77,2.27,7.13,7.61,23.8,15,45.12C58.66,402,70,410.38,88.75,424.21c2.48,1.82,5.09,3.74,7.84,5.8,20.23,15.17,37.83,29.2,42.58,33L136,452.41a.36.36,0,0,1,0-.1c-.05-.63-5.51-63.25-13.12-80.79-7.4-17.06-19-32.4-19.81-33.39C77.64,318.46,31.68,311.21,24.48,310.18Z" style="fill:#263238"></path><path d="M131.78,446.74a.5.5,0,0,1-.45-.31c-1.19-2.73-2.62-6.84-4-10.87a.5.5,0,0,1,1-.33c1.37,4,2.79,8.1,4,10.81a.49.49,0,0,1-.26.65A.46.46,0,0,1,131.78,446.74Z" style="fill:#263238"></path><path d="M125.46,428.94a.49.49,0,0,1-.47-.34C116.75,404.17,106.82,377,93.27,364c-13.36-12.79-36.83-30.36-49.63-39.7a.49.49,0,0,1-.11-.7.5.5,0,0,1,.7-.1c12.82,9.35,36.33,26.95,49.73,39.78,13.72,13.14,23.7,40.42,32,65a.49.49,0,0,1-.31.63A.45.45,0,0,1,125.46,428.94Z" style="fill:#263238"></path><path d="M39.84,321.47a.52.52,0,0,1-.29-.09c-4.14-3-6.7-4.79-6.7-4.79a.5.5,0,0,1,.57-.82s2.57,1.8,6.72,4.8a.51.51,0,0,1,.11.7A.51.51,0,0,1,39.84,321.47Z" style="fill:#263238"></path><path d="M50.73,349a.51.51,0,0,1-.5-.49c0-1.3-1.34-19.59-1.35-19.77a.49.49,0,0,1,.46-.53.49.49,0,0,1,.53.46c.06.75,1.31,18.49,1.36,19.81a.51.51,0,0,1-.49.52Z" style="fill:#263238"></path><path d="M78.17,330.14h0L53.92,328a.48.48,0,0,1-.45-.54A.5.5,0,0,1,54,327l24.21,2.13a.5.5,0,0,1,0,1Z" style="fill:#263238"></path><path d="M81.14,377.32a.5.5,0,0,1-.5-.5,47.63,47.63,0,0,0-.4-5.59.5.5,0,0,1,.44-.55.5.5,0,0,1,.56.43,49.5,49.5,0,0,1,.4,5.71.5.5,0,0,1-.5.5Z" style="fill:#263238"></path><path d="M80,366.42a.49.49,0,0,1-.49-.41c-1.64-9.3-8.06-20.57-8.13-20.68a.51.51,0,0,1,.57-.74l28,7.62a.5.5,0,0,1-.27,1l-26.9-7.31c1.64,3,6.3,12.16,7.67,20a.5.5,0,0,1-.4.58Z" style="fill:#263238"></path><path d="M101.07,408.36a.5.5,0,0,1-.5-.48c0-.06-.21-6-.1-13.86a.49.49,0,0,1,.5-.49h0a.5.5,0,0,1,.5.51c-.11,7.79.1,13.74.1,13.8a.5.5,0,0,1-.48.52Z" style="fill:#263238"></path><path d="M101.07,389.52h0a.5.5,0,0,1-.49-.52,106.65,106.65,0,0,0-1.33-19.35.5.5,0,0,1,.69-.55l10.45,4.5a.5.5,0,0,1-.4.92l-9.61-4.14a108.52,108.52,0,0,1,1.2,18.65A.51.51,0,0,1,101.07,389.52Z" style="fill:#263238"></path><path d="M118.19,378a.43.43,0,0,1-.19,0l-3.4-1.46a.5.5,0,0,1,.4-.92l3.39,1.46a.5.5,0,0,1,.26.66A.49.49,0,0,1,118.19,378Z" style="fill:#263238"></path><path d="M114.15,423.11h0a.49.49,0,0,1-.49-.5l.11-25.13a.5.5,0,0,1,.74-.44l11.11,5.9a.49.49,0,0,1,.21.67.51.51,0,0,1-.68.21l-10.38-5.51-.11,24.31A.5.5,0,0,1,114.15,423.11Z" style="fill:#263238"></path></g><g id="freepik--Flowers--inject-135"><path d="M433.47,277.34a2.5,2.5,0,0,0-3.5-.43c-.36.28-25.91,20.26-51.33,39.36a.59.59,0,0,0-.19.05c-.5.18-50.36,18.62-80.84,27.76-10.6,3.18-28.74,6.35-49.46,9.28a2.25,2.25,0,0,0-.37-.31l-26-17.31a2.5,2.5,0,1,0-2.77,4.16l21.71,14.48c-41.47,5.58-90.5,10.13-110.19,11.86a2.5,2.5,0,0,0,.22,5H131c31.08-2.75,135.06-12.46,168-22.36,20-6,48.33-16,65.67-22.23-4.72,3.48-9.26,6.78-13.44,9.77-15.64,11.17-39.11,26.78-63.21,41.59a2.66,2.66,0,0,0-.49,0c-.79.08-19.74,2-50.51,10.59-30.35,8.5-63.57,12.25-63.9,12.29a2.5,2.5,0,0,0,.28,5h.27c.34,0,33.95-3.83,64.7-12.44a383.41,383.41,0,0,1,38.91-8.88c-21,12.6-41.71,24-57.27,30.76-36.33,15.74-40,17.23-40.12,17.28a2.5,2.5,0,0,0,.93,4.82,2.37,2.37,0,0,0,.93-.18c.12-.05,3.54-1.43,40.25-17.33,21.2-9.19,51.76-26.92,79.86-44.6-2,8.54-7.42,30.79-10.76,37.48-4.25,8.49-14.06,25.67-14.16,25.84a2.5,2.5,0,0,0,.93,3.41,2.53,2.53,0,0,0,1.24.33,2.49,2.49,0,0,0,2.17-1.26c.41-.71,10-17.47,14.29-26.09,4.41-8.82,11.64-40.63,11.95-42a2.47,2.47,0,0,0-.06-1.27c18-11.46,34.65-22.66,46.67-31.25,30-21.42,78.38-59.25,78.87-59.63A2.51,2.51,0,0,0,433.47,277.34Z" style="fill:#263238"></path><path d="M279.16,442.83a3,3,0,0,1-2.6-4.49c1.05-1.84,10.12-17.78,14.14-25.82,3.15-6.31,8.16-26.54,10.44-36.18-19.29,12.12-54.18,33.28-78.9,44-37,16-40.14,17.29-40.26,17.34a3,3,0,0,1-3.9-1.67,3,3,0,0,1,0-2.3,3,3,0,0,1,1.64-1.6s3.47-1.4,40.11-17.28c13.59-5.89,32.53-16,54.89-29.34-8.41,1.5-20.87,4.11-36.2,8.4-30.91,8.66-64.44,12.42-64.77,12.46a3,3,0,0,1-.66-6c.33,0,33.62-3.81,63.81-12.27,30.87-8.64,49.81-10.53,50.6-10.6a2,2,0,0,1,.42,0c22.33-13.74,45.89-29.24,63-41.49,3.22-2.3,6.8-4.9,10.66-7.73-16.29,5.84-43.3,15.34-62.46,21.08-33,9.91-137,19.63-168.13,22.37a3,3,0,0,1-2.57-4.91,3,3,0,0,1,2-1.06c19.06-1.68,67.52-6.17,108.85-11.69l-20.61-13.74a3,3,0,0,1-.83-4.16,3,3,0,0,1,4.16-.83l26,17.31a2.48,2.48,0,0,1,.26.19c23.08-3.26,39.62-6.37,49.15-9.22,30.48-9.15,80.31-27.58,80.8-27.76l.15-.05c23.39-17.57,46.69-35.73,51.13-39.19l.11-.09a3,3,0,0,1,4.21.52h0a3,3,0,0,1-.52,4.21c-.48.37-49,38.3-78.88,59.63-12.58,9-29.47,20.3-46.39,31.08a2.78,2.78,0,0,1,0,1.15c-.3,1.35-7.54,33.21-12,42.1-4.35,8.68-13.9,25.4-14.3,26.11A3,3,0,0,1,279.16,442.83Zm22.75-68.06a.46.46,0,0,1,.29.1.49.49,0,0,1,.19.52c-2.13,9.07-7.46,30.9-10.8,37.58-4,8.06-13.11,24-14.14,25.82a2,2,0,0,0,.72,2.78,2.07,2.07,0,0,0,2.73-.75c.4-.7,9.94-17.4,14.27-26.06s11.6-40.53,11.91-41.87a2,2,0,0,0-.05-1,.51.51,0,0,1,.21-.57c17-10.82,34-22.2,46.65-31.23,29.85-21.32,78.37-59.23,78.85-59.61a2,2,0,0,0,.34-2.81h0a2,2,0,0,0-1.33-.75,2,2,0,0,0-1.48.41l-.11.09c-4.44,3.47-27.8,21.67-51.22,39.27l-.17.08-.31-.44.16.47c-.49.19-50.35,18.63-80.87,27.78-9.6,2.89-26.27,6-49.53,9.29a.51.51,0,0,1-.42-.14,2.31,2.31,0,0,0-.29-.24l-26-17.31a2,2,0,0,0-3.07,2.06,2,2,0,0,0,.85,1.27L241,354a.49.49,0,0,1,.21.53.48.48,0,0,1-.42.38c-41.63,5.61-90.94,10.17-110.2,11.87a2,2,0,0,0-1.82,2.17,2,2,0,0,0,2.17,1.82C162,368,266,358.28,298.9,348.4c20.47-6.14,49.91-16.57,65.65-22.23a.49.49,0,0,1,.61.23.51.51,0,0,1-.15.64c-4.94,3.64-9.46,6.93-13.44,9.78-17.2,12.28-40.84,27.84-63.23,41.6a.52.52,0,0,1-.32.07h-.39c-.79.08-19.65,2-50.43,10.58-30.27,8.47-63.64,12.26-64,12.3a2,2,0,1,0,.44,4c.33,0,33.78-3.79,64.61-12.42a381.8,381.8,0,0,1,39-8.89.5.5,0,0,1,.55.32.51.51,0,0,1-.21.6c-23.42,14-43.24,24.68-57.33,30.79-36.66,15.88-40,17.24-40.14,17.29a2,2,0,0,0-1.11,2.6,2,2,0,0,0,2.6,1.11c.12-.05,3.27-1.31,40.24-17.33,25.09-10.88,60.76-32.59,79.79-44.56A.5.5,0,0,1,301.91,374.77Z" style="fill:#263238"></path><ellipse cx="419.49" cy="216.74" rx="7.88" ry="8.3" style="fill:#fff"></ellipse><path d="M419.49,225.54a8.8,8.8,0,1,1,8.39-8.8A8.61,8.61,0,0,1,419.49,225.54Zm0-16.59a7.81,7.81,0,1,0,7.39,7.79A7.6,7.6,0,0,0,419.49,209Z" style="fill:#263238"></path><path d="M412.38,219.57s2.6,9.25,2.6,10.12-4,13.3-6.07,15.61-9.25,11-9.25,11l.29,6.94,10.12-15.33L417,230.85s3.18-3.19,4.34-4.34,4.33-5.78,4.33-5.78L419.49,225l-.75-5.47L417,223Z" style="fill:#263238"></path><path d="M400,263.73l-.13,0a.5.5,0,0,1-.37-.46l-.29-6.94a.52.52,0,0,1,.12-.34c.07-.09,7.25-8.71,9.26-11s5.89-14.41,5.94-15.29c0-.6-1.59-6.44-2.58-10a.48.48,0,0,1,.2-.54.5.5,0,0,1,.58,0l4.15,3.11,1.47-2.93a.46.46,0,0,1,.52-.27.49.49,0,0,1,.42.42l.64,4.66,5.52-3.84a.49.49,0,0,1,.69.69,71.72,71.72,0,0,1-4.39,5.85l-4.27,4.27-6.9,17L400.37,263.5A.51.51,0,0,1,400,263.73Zm.22-7.27.21,5.2,9.27-14,6.9-17a.59.59,0,0,1,.1-.17l4.34-4.34a35.72,35.72,0,0,0,2.64-3.39l-3.85,2.69a.5.5,0,0,1-.49.05.49.49,0,0,1-.29-.39l-.53-3.87-1,2a.51.51,0,0,1-.34.27.51.51,0,0,1-.41-.09l-3.45-2.59c.77,2.79,2.22,8.11,2.22,8.84,0,1.15-4.11,13.57-6.19,15.94C407.44,247.75,401.13,255.3,400.17,256.46Z" style="fill:#263238"></path><path d="M424.07,276.39l-20.92,12.25L400.09,258l-5.17-24.76-3.62-13.88c3.17-8.27,12.14-33.53,12.39-55.24L400.11,168s-.19,13.13-3.25,22.31-7.14,20.41-7.14,20.41l-2.48,1.47-8-8.81-26.08-20.83-3.58,1.53,32.94,30.24s11.44,27.4,13,42.7,5.1,39.28,5.1,39.28l26.68-17.41Z" style="fill:#263238"></path><path d="M400.6,296.79a.46.46,0,0,1-.2-.05.48.48,0,0,1-.29-.38c0-.24-3.59-24.16-5.1-39.3-1.46-14.59-12.14-40.62-12.9-42.46l-32.85-30.16a.5.5,0,0,1-.16-.46.49.49,0,0,1,.3-.37l3.57-1.53a.48.48,0,0,1,.51.07L379.56,203l7.78,8.56,2-1.17c.52-1.43,4.26-11.76,7.08-20.22,3-9,3.22-22,3.22-22.17a.45.45,0,0,1,.14-.33l3.58-3.84a.49.49,0,0,1,.55-.12.47.47,0,0,1,.31.46c-.25,21.87-9.45,47.64-12.37,55.27l3.59,13.72,5.17,24.79,3,29.88L423.81,276a.5.5,0,0,1,.56,0l3.21,2.49a.51.51,0,0,1,.2.41.52.52,0,0,1-.23.4l-26.67,17.41A.57.57,0,0,1,400.6,296.79ZM350.5,184.22l32.37,29.72a.66.66,0,0,1,.12.17c.11.28,11.49,27.65,13,42.85,1.36,13.58,4.36,34.25,5,38.48l25.44-16.59L424,277l-20.62,12.07a.51.51,0,0,1-.48,0,.48.48,0,0,1-.27-.4l-3.06-30.6-5.17-24.71-3.61-13.85a.55.55,0,0,1,0-.31c2.78-7.25,11.74-32.21,12.34-53.77l-2.56,2.75c0,1.67-.43,13.73-3.27,22.27-3,9.09-7.11,20.31-7.15,20.42a.54.54,0,0,1-.21.26l-2.48,1.47a.5.5,0,0,1-.63-.09l-8-8.81-25.79-20.6Z" style="fill:#263238"></path><path d="M269,430.5s6.34-16.92,12.38-11.78,4.53,8.15,4.53,8.15,11.18-4.23,15.41,3S297,442,294,442.88c0,0,7.86,4.23,5.14,9.67S288,455.27,288,455.27s-.6,7-5.74,4.23-9.67-9.37-9.67-9.37-6.94,3.33-10.57-6.64S265.93,428.68,269,430.5Z" style="fill:#fff"></path><path d="M284.42,460.63a5.2,5.2,0,0,1-2.41-.69c-4.59-2.43-8.62-7.8-9.62-9.2a7.36,7.36,0,0,1-5.18-.1c-2.45-1-4.36-3.35-5.68-7-2.78-7.66,1-11.53,2.19-12.53a5.32,5.32,0,0,1,5-1.31c.9-2.27,4.76-11.27,9.28-12.44a4,4,0,0,1,3.7.95c4.37,3.72,4.94,6.44,4.86,7.8,2.74-.82,11.48-2.83,15.18,3.51a7.46,7.46,0,0,1,.73,6.76c-1.27,3.24-4.79,5.58-7.27,6.6,2.06,1.38,6.75,5.16,4.44,9.77-2.48,5-9.19,3.66-11.2,3.14-.19,1.1-.78,3.42-2.47,4.34A3.13,3.13,0,0,1,284.42,460.63Zm-11.85-11a.52.52,0,0,1,.42.22c0,.07,4.52,6.58,9.48,9.21a3.13,3.13,0,0,0,3,.31c1.73-.93,2-4.11,2-4.15a.52.52,0,0,1,.22-.37.55.55,0,0,1,.43-.06c.08,0,8.08,2.52,10.58-2.46s-4.85-9-4.93-9a.51.51,0,0,1-.26-.49.5.5,0,0,1,.36-.43c1.89-.56,6.24-2.87,7.62-6.36a6.55,6.55,0,0,0-.66-5.9c-4-6.8-14.69-2.84-14.8-2.8a.51.51,0,0,1-.55-.13.52.52,0,0,1-.07-.56s1.19-2.8-4.41-7.55a2.94,2.94,0,0,0-2.8-.76c-4.56,1.19-8.75,12.22-8.79,12.33a.54.54,0,0,1-.31.3.52.52,0,0,1-.42,0c-1.07-.65-2.86-.25-4.34,1-1.09.89-4.44,4.37-1.88,11.42,1.22,3.35,2.94,5.51,5.12,6.39a6.36,6.36,0,0,0,4.77,0A.54.54,0,0,1,272.57,449.63Z" style="fill:#263238"></path><path d="M277.1,441.07a4.24,4.24,0,1,0,4.23-4.53A4.39,4.39,0,0,0,277.1,441.07Z" style="fill:#FFC100"></path><path d="M281.33,446.1a5,5,0,1,1,4.73-5A4.9,4.9,0,0,1,281.33,446.1Zm0-9.06a4,4,0,1,0,3.73,4A3.9,3.9,0,0,0,281.33,437Z" style="fill:#263238"></path><path d="M209.6,324.78S215.94,307.87,222,313s4.53,8.16,4.53,8.16,11.17-4.23,15.4,3-4.23,12.08-7.25,13c0,0,7.86,4.23,5.14,9.66s-11.18,2.72-11.18,2.72-.6,6.95-5.74,4.23-9.67-9.36-9.67-9.36-6.94,3.32-10.57-6.65S206.58,323,209.6,324.78Z" style="fill:#fff"></path><path d="M225.07,354.91a5.2,5.2,0,0,1-2.41-.69c-4.59-2.42-8.62-7.79-9.62-9.19a7.36,7.36,0,0,1-5.18-.1c-2.45-1-4.36-3.35-5.68-7-2.78-7.66,1-11.53,2.19-12.53a5.35,5.35,0,0,1,5-1.31c.91-2.27,4.76-11.27,9.28-12.44a3.94,3.94,0,0,1,3.7,1c4.37,3.71,4.94,6.44,4.86,7.8,2.74-.82,11.49-2.83,15.18,3.51a7.45,7.45,0,0,1,.73,6.76c-1.27,3.23-4.78,5.57-7.27,6.6,2.07,1.38,6.75,5.15,4.45,9.77-2.49,5-9.2,3.66-11.21,3.13-.19,1.1-.78,3.43-2.46,4.34A3.09,3.09,0,0,1,225.07,354.91Zm-11.85-11a.51.51,0,0,1,.42.22c0,.06,4.52,6.57,9.49,9.2a3.14,3.14,0,0,0,3,.32c1.72-.94,2-4.12,2-4.15a.53.53,0,0,1,.22-.37.47.47,0,0,1,.43-.06c.08,0,8.09,2.52,10.58-2.47s-4.85-9-4.92-9a.48.48,0,0,1-.26-.49.51.51,0,0,1,.35-.43c1.89-.57,6.24-2.87,7.62-6.37a6.5,6.5,0,0,0-.66-5.89c-4-6.8-14.69-2.85-14.8-2.81a.46.46,0,0,1-.54-.13.5.5,0,0,1-.08-.56s1.19-2.79-4.41-7.55a3,3,0,0,0-2.8-.75c-4.56,1.18-8.75,12.22-8.79,12.33a.47.47,0,0,1-.31.29.48.48,0,0,1-.42,0c-1.07-.64-2.86-.25-4.33,1-1.09.9-4.45,4.38-1.89,11.42,1.22,3.35,2.94,5.5,5.1,6.39a6.45,6.45,0,0,0,4.79,0A.41.41,0,0,1,213.22,343.92Z" style="fill:#263238"></path><path d="M217.76,335.36a4.24,4.24,0,1,0,4.23-4.54A4.39,4.39,0,0,0,217.76,335.36Z" style="fill:#FFC100"></path><path d="M222,340.39a5,5,0,1,1,4.73-5A4.89,4.89,0,0,1,222,340.39Zm0-9.07a4,4,0,1,0,3.73,4A3.89,3.89,0,0,0,222,331.32Z" style="fill:#263238"></path><path d="M118.41,357.13s6.34-16.92,12.38-11.78,4.53,8.15,4.53,8.15,11.18-4.22,15.41,3-4.23,12.08-7.25,13c0,0,7.85,4.23,5.13,9.67s-11.17,2.72-11.17,2.72-.61,7-5.74,4.23-9.67-9.37-9.67-9.37-7,3.33-10.57-6.64S115.39,355.32,118.41,357.13Z" style="fill:#fff"></path><path d="M133.87,387.26a5.23,5.23,0,0,1-2.41-.69c-4.58-2.43-8.61-7.8-9.61-9.19a7.37,7.37,0,0,1-5.18-.11c-2.45-1-4.36-3.35-5.68-7-2.79-7.66,1-11.53,2.18-12.53a5.33,5.33,0,0,1,5-1.31c.91-2.27,4.77-11.27,9.28-12.44a4,4,0,0,1,3.71,1c4.36,3.71,4.94,6.44,4.86,7.79,2.74-.81,11.48-2.83,15.18,3.51a7.48,7.48,0,0,1,.73,6.77c-1.28,3.23-4.79,5.57-7.27,6.59,2.06,1.38,6.75,5.16,4.44,9.78-2.48,5-9.19,3.65-11.21,3.13-.19,1.1-.78,3.43-2.46,4.34A3.14,3.14,0,0,1,133.87,387.26Zm-11.84-11a.49.49,0,0,1,.41.22c0,.07,4.53,6.58,9.49,9.21a3.1,3.1,0,0,0,3,.31c1.73-.93,2-4.11,2-4.14a.5.5,0,0,1,.22-.38.55.55,0,0,1,.43-.06c.08,0,8.08,2.52,10.58-2.46s-4.85-9-4.93-9a.51.51,0,0,1-.26-.5.48.48,0,0,1,.36-.42c1.89-.57,6.24-2.87,7.62-6.37a6.53,6.53,0,0,0-.66-5.89c-4-6.8-14.69-2.85-14.8-2.81a.51.51,0,0,1-.55-.13.48.48,0,0,1-.07-.56s1.18-2.79-4.41-7.55a3,3,0,0,0-2.8-.75c-4.56,1.18-8.75,12.21-8.8,12.33a.51.51,0,0,1-.3.29.52.52,0,0,1-.42,0c-1.08-.65-2.86-.25-4.34,1-1.09.9-4.44,4.38-1.88,11.42,1.22,3.36,2.94,5.51,5.11,6.4a6.42,6.42,0,0,0,4.78,0A.5.5,0,0,1,122,376.26Z" style="fill:#263238"></path><path d="M126.56,367.7a4.24,4.24,0,1,0,4.23-4.53A4.39,4.39,0,0,0,126.56,367.7Z" style="fill:#FFC100"></path><path d="M130.79,372.73a5,5,0,1,1,4.73-5A4.89,4.89,0,0,1,130.79,372.73Zm0-9.06a4,4,0,1,0,3.73,4A3.9,3.9,0,0,0,130.79,363.67Z" style="fill:#263238"></path><path d="M160.09,402.33s11-29.34,21.48-20.44S189.43,396,189.43,396s19.38-7.33,26.72,5.24-7.34,21-12.58,22.53c0,0,13.63,7.33,8.91,16.76s-19.38,4.72-19.38,4.72-1,12-10,7.33-16.76-16.24-16.76-16.24-12,5.77-18.34-11.52S154.85,399.18,160.09,402.33Z" style="fill:#fff"></path><path d="M186.91,454.22a8.77,8.77,0,0,1-4-1.15C174.74,448.74,167.59,439,166.2,437a12.42,12.42,0,0,1-9-.08c-4.14-1.69-7.39-5.69-9.64-11.89-4.75-13.06,1.61-19.63,3.68-21.33,2.83-2.34,6.19-3.13,8.57-2.07,1.27-3.23,8.07-19.65,16-21.71a6.52,6.52,0,0,1,6.09,1.59c8.17,6.94,8.57,11.78,8.27,13.76,4-1.26,19.88-5.45,26.42,5.76,2.27,3.89,2.69,7.73,1.24,11.41-2.29,5.79-8.81,9.91-13.06,11.5,3.07,1.93,12.28,8.63,8.17,16.86-4.31,8.61-16.59,5.89-19.41,5.13-.23,1.62-1.14,6-4.15,7.68A5.15,5.15,0,0,1,186.91,454.22Zm-20.53-18.34a.5.5,0,0,1,.41.22c.08.12,7.89,11.48,16.58,16.08,2.2,1.16,4,1.35,5.52.55,3.17-1.72,3.7-7.43,3.71-7.48a.49.49,0,0,1,.22-.38.53.53,0,0,1,.43-.06c.14.05,14.32,4.48,18.78-4.46s-8.56-16-8.69-16.1a.5.5,0,0,1-.26-.49.51.51,0,0,1,.35-.43c3.34-1,11-5.07,13.46-11.26,1.33-3.38.94-6.92-1.17-10.54-7.05-12.07-25.93-5.09-26.12-5a.49.49,0,0,1-.54-.13.51.51,0,0,1-.08-.56c0-.05,2.25-5.06-7.73-13.54a5.53,5.53,0,0,0-5.2-1.39c-8.09,2.1-15.42,21.42-15.49,21.61a.54.54,0,0,1-.31.3.52.52,0,0,1-.42,0c-2-1.2-5.27-.5-8,1.71-1.93,1.6-7.9,7.78-3.37,20.22,2.15,5.91,5.2,9.72,9.06,11.3a11.53,11.53,0,0,0,8.59-.06A.54.54,0,0,1,166.38,435.88Z" style="fill:#263238"></path><ellipse cx="181.57" cy="420.66" rx="7.33" ry="7.86" style="fill:#FFC100"></ellipse><path d="M181.57,429a8.37,8.37,0,1,1,7.83-8.35A8.12,8.12,0,0,1,181.57,429Zm0-15.71a7.38,7.38,0,1,0,6.83,7.36A7.12,7.12,0,0,0,181.57,413.31Z" style="fill:#263238"></path><path d="M357.27,166.21s-6.35-16.91-12.39-11.78-4.53,8.16-4.53,8.16-11.18-4.23-15.41,3,4.23,12.08,7.25,13c0,0-7.85,4.23-5.13,9.67S338.24,191,338.24,191s.6,7,5.74,4.23,9.66-9.36,9.66-9.36,6.95,3.32,10.58-6.65S360.29,164.4,357.27,166.21Z" style="fill:#fff"></path><path d="M341.8,196.35a3.17,3.17,0,0,1-1.52-.38c-1.68-.92-2.27-3.24-2.46-4.35-2,.53-8.72,1.84-11.21-3.13-2.31-4.61,2.38-8.39,4.44-9.77-2.48-1-6-3.37-7.27-6.6a7.49,7.49,0,0,1,.73-6.76c3.7-6.34,12.44-4.33,15.18-3.51-.07-1.36.5-4.08,4.87-7.8a4,4,0,0,1,3.7-1c4.51,1.17,8.37,10.18,9.28,12.45a5.32,5.32,0,0,1,5,1.3c1.22,1,5,4.88,2.18,12.53-1.32,3.64-3.23,6-5.67,7a7.39,7.39,0,0,1-5.19.1c-1,1.4-5,6.77-9.61,9.2A5.23,5.23,0,0,1,341.8,196.35Zm-3.56-5.87a.46.46,0,0,1,.27.09.47.47,0,0,1,.22.37s.31,3.21,2,4.15a3.11,3.11,0,0,0,3-.32c5-2.63,9.44-9.14,9.49-9.2a.49.49,0,0,1,.63-.17,6.46,6.46,0,0,0,4.78,0c2.17-.9,3.89-3.05,5.11-6.4,2.56-7-.8-10.52-1.89-11.42-1.47-1.21-3.26-1.61-4.34-1a.51.51,0,0,1-.42.05.5.5,0,0,1-.3-.3c0-.11-4.23-11.15-8.79-12.33a3,3,0,0,0-2.8.75c-5.6,4.76-4.42,7.54-4.41,7.56a.5.5,0,0,1-.09.56.52.52,0,0,1-.54.13c-.1,0-10.83-4-14.79,2.8a6.51,6.51,0,0,0-.67,5.89c1.38,3.5,5.74,5.8,7.63,6.37a.51.51,0,0,1,.35.43.5.5,0,0,1-.26.49c-.07,0-7.39,4.06-4.92,9s10.49,2.49,10.57,2.47A.41.41,0,0,1,338.24,190.48Z" style="fill:#263238"></path><ellipse cx="344.88" cy="176.79" rx="4.23" ry="4.53" style="fill:#FFC100"></ellipse><path d="M344.88,181.82a5,5,0,1,1,4.73-5A4.89,4.89,0,0,1,344.88,181.82Zm0-9.06a4,4,0,1,0,3.73,4A3.89,3.89,0,0,0,344.88,172.76Z" style="fill:#263238"></path><path d="M412.3,151.51s-5.37-14.33-10.49-10-3.83,6.91-3.83,6.91-9.47-3.58-13.05,2.56,3.58,10.23,6.14,11c0,0-6.65,3.58-4.35,8.18s9.47,2.3,9.47,2.3.51,5.89,4.86,3.59,8.18-7.93,8.18-7.93,5.89,2.81,9-5.63S414.86,150,412.3,151.51Z" style="fill:#fff"></path><path d="M399.2,177.1a2.75,2.75,0,0,1-1.32-.33c-1.41-.77-1.93-2.67-2.11-3.65-1.81.46-7.4,1.48-9.5-2.71-1.76-3.52,1.24-6.7,3.65-8.31-2.1-.9-5-2.87-6-5.56a6.41,6.41,0,0,1,.62-5.8c3.16-5.41,10.4-3.78,12.84-3,0-1.21.55-3.49,4.15-6.55a3.44,3.44,0,0,1,3.2-.83c3.82,1,7.07,8.48,7.89,10.52a4.65,4.65,0,0,1,4.2,1.14c1,.86,4.25,4.17,1.88,10.7-1.13,3.1-2.76,5.1-4.85,6a6.29,6.29,0,0,1-4.39.1c-.91,1.26-4.29,5.73-8.14,7.77A4.56,4.56,0,0,1,399.2,177.1Zm-3-5.12a.46.46,0,0,1,.27.09.47.47,0,0,1,.22.37s.26,2.68,1.68,3.45a2.54,2.54,0,0,0,2.45-.27c4.19-2.21,8-7.71,8-7.77a.52.52,0,0,1,.63-.17,5.37,5.37,0,0,0,4,0c1.81-.75,3.25-2.56,4.28-5.37,2.15-5.92-.66-8.83-1.57-9.59-1.23-1-2.7-1.34-3.59-.81a.52.52,0,0,1-.42,0,.5.5,0,0,1-.3-.3c0-.09-3.57-9.4-7.4-10.39a2.44,2.44,0,0,0-2.3.62c-4.68,4-3.72,6.29-3.71,6.31a.51.51,0,0,1-.63.69c-.09,0-9.11-3.36-12.44,2.34a5.44,5.44,0,0,0-.55,4.92c1.15,2.94,4.81,4.87,6.4,5.35a.49.49,0,0,1,.36.43.5.5,0,0,1-.26.49c-.06,0-6.2,3.4-4.14,7.52S396,172,396,172A.41.41,0,0,1,396.19,172Z" style="fill:#263238"></path><path d="M405.4,160.46a3.59,3.59,0,1,1-3.59-3.84A3.72,3.72,0,0,1,405.4,160.46Z" style="fill:#FFC100"></path><path d="M401.81,164.8a4.35,4.35,0,1,1,4.09-4.34A4.22,4.22,0,0,1,401.81,164.8Zm0-7.68a3.35,3.35,0,1,0,3.09,3.34A3.22,3.22,0,0,0,401.81,157.12Z" style="fill:#263238"></path><path d="M395.38,180.13S389,163.21,383,168.35s-4.53,8.15-4.53,8.15-11.18-4.23-15.4,3,4.22,12.09,7.25,13c0,0-7.86,4.23-5.14,9.67s11.18,2.72,11.18,2.72.6,6.95,5.74,4.23,9.66-9.37,9.66-9.37,6.95,3.33,10.58-6.64S398.4,178.31,395.38,180.13Z" style="fill:#fff"></path><path d="M379.91,210.26a3.17,3.17,0,0,1-1.52-.38c-1.68-.92-2.27-3.24-2.46-4.34-2,.52-8.72,1.83-11.21-3.14-2.3-4.61,2.38-8.39,4.44-9.77-2.48-1-6-3.36-7.27-6.6a7.49,7.49,0,0,1,.73-6.76c3.7-6.34,12.45-4.33,15.18-3.51-.07-1.36.5-4.08,4.87-7.79a3.91,3.91,0,0,1,3.7-1c4.51,1.17,8.37,10.17,9.28,12.44a5.33,5.33,0,0,1,5,1.31c1.22,1,5,4.87,2.19,12.53-1.33,3.63-3.24,6-5.68,7a7.39,7.39,0,0,1-5.19.1c-1,1.4-5,6.77-9.61,9.2A5.2,5.2,0,0,1,379.91,210.26Zm-3.56-5.86a.53.53,0,0,1,.27.08.49.49,0,0,1,.22.37s.31,3.22,2,4.15a3.1,3.1,0,0,0,3-.31c5-2.64,9.45-9.14,9.49-9.21a.51.51,0,0,1,.63-.17,6.42,6.42,0,0,0,4.79,0c2.16-.89,3.88-3,5.1-6.39,2.56-7-.8-10.52-1.89-11.42-1.47-1.22-3.25-1.62-4.34-1a.51.51,0,0,1-.42,0,.5.5,0,0,1-.3-.3c0-.11-4.23-11.14-8.79-12.33a3,3,0,0,0-2.8.76c-5.6,4.75-4.42,7.53-4.41,7.56a.5.5,0,0,1-.63.68c-.1,0-10.83-4-14.79,2.8a6.53,6.53,0,0,0-.67,5.9c1.38,3.49,5.74,5.8,7.63,6.36a.51.51,0,0,1,.35.43.49.49,0,0,1-.26.49c-.07,0-7.39,4.07-4.92,9s10.49,2.49,10.57,2.46Z" style="fill:#263238"></path><ellipse cx="382.99" cy="190.7" rx="4.23" ry="4.53" style="fill:#FFC100"></ellipse><path d="M383,195.73a5,5,0,1,1,4.73-5A4.89,4.89,0,0,1,383,195.73Zm0-9.06a4,4,0,1,0,3.73,4A3.9,3.9,0,0,0,383,186.67Z" style="fill:#263238"></path><path d="M316.66,331.8s11-29.34,21.48-20.43S346,325.51,346,325.51s19.39-7.33,26.72,5.24-7.33,21-12.57,22.53c0,0,13.62,7.33,8.91,16.77s-19.39,4.71-19.39,4.71-1.05,12.05-9.95,7.34S323,365.85,323,365.85s-12.05,5.77-18.34-11.52S311.42,328.66,316.66,331.8Z" style="fill:#fff"></path><path d="M343.49,383.69a8.65,8.65,0,0,1-4-1.15c-8.16-4.33-15.31-14.09-16.71-16.07a12.4,12.4,0,0,1-9-.07c-4.14-1.7-7.38-5.7-9.64-11.9-4.74-13.06,1.62-19.63,3.68-21.33,2.84-2.34,6.2-3.12,8.58-2.07,1.27-3.23,8.07-19.65,16-21.7a6.48,6.48,0,0,1,6.09,1.59c8.16,6.94,8.57,11.77,8.26,13.75,4-1.26,19.89-5.45,26.43,5.76,2.27,3.89,2.68,7.73,1.23,11.41-2.28,5.8-8.81,9.91-13.06,11.5,3.07,1.93,12.29,8.63,8.17,16.86-4.3,8.61-16.59,5.89-19.4,5.13-.24,1.62-1.14,6-4.15,7.68A5,5,0,0,1,343.49,383.69ZM323,365.35a.49.49,0,0,1,.41.22c.08.12,7.9,11.48,16.59,16.08,2.19,1.16,4.05,1.35,5.52.55,3.16-1.72,3.7-7.43,3.7-7.48a.57.57,0,0,1,.22-.38.5.5,0,0,1,.43,0c.14,0,14.32,4.47,18.79-4.47s-8.57-16-8.7-16.1a.5.5,0,0,1,.1-.92c3.33-1,11-5.07,13.45-11.26,1.34-3.37.94-6.92-1.17-10.54-7-12.06-25.92-5.09-26.11-5a.51.51,0,0,1-.55-.13.49.49,0,0,1-.07-.56c0-.05,2.24-5.06-7.74-13.54a5.51,5.51,0,0,0-5.19-1.39c-8.09,2.1-15.42,21.42-15.5,21.61a.5.5,0,0,1-.3.3.51.51,0,0,1-.42,0c-2-1.2-5.27-.49-8,1.71-1.94,1.6-7.9,7.78-3.38,20.22,2.16,5.91,5.2,9.72,9.07,11.3a11.54,11.54,0,0,0,8.59-.06A.5.5,0,0,1,323,365.35Z" style="fill:#263238"></path><ellipse cx="338.14" cy="350.14" rx="7.33" ry="7.86" style="fill:#FFC100"></ellipse><path d="M338.14,358.5a8.38,8.38,0,1,1,7.84-8.36A8.12,8.12,0,0,1,338.14,358.5Zm0-15.72a7.38,7.38,0,1,0,6.84,7.36A7.12,7.12,0,0,0,338.14,342.78Z" style="fill:#263238"></path><path d="M342.88,340.06h-.09a.5.5,0,0,1-.41-.58l1.72-9.75a.5.5,0,0,1,.58-.4.51.51,0,0,1,.41.58l-1.72,9.75A.51.51,0,0,1,342.88,340.06Z" style="fill:#263238"></path><path d="M328.53,343.5a.49.49,0,0,1-.41-.22l-2.3-3.44a16.21,16.21,0,0,0-5.54-5,.5.5,0,0,1,.45-.9,17.17,17.17,0,0,1,5.93,5.33l2.29,3.44a.51.51,0,0,1-.14.7A.54.54,0,0,1,328.53,343.5Z" style="fill:#263238"></path><path d="M326.81,362.43a.49.49,0,0,1-.44-.27.5.5,0,0,1,.22-.68l4.59-2.29a.51.51,0,0,1,.67.22.5.5,0,0,1-.22.67l-4.59,2.3A.48.48,0,0,1,326.81,362.43Z" style="fill:#263238"></path><path d="M347.46,367a.5.5,0,0,1-.43-.25l-4.59-8a.5.5,0,1,1,.87-.5l4.59,8a.52.52,0,0,1-.19.69A.54.54,0,0,1,347.46,367Z" style="fill:#263238"></path><path d="M354.35,353.25a.39.39,0,0,1-.15,0l-8.86-2.61a.5.5,0,1,1,.28-1l8.87,2.61a.52.52,0,0,1,.34.63A.51.51,0,0,1,354.35,353.25Z" style="fill:#263238"></path><path d="M407.74,291.19s-8.27-22.07-16.15-15.37-5.91,10.64-5.91,10.64-14.58-5.52-20.1,3.94,5.52,15.76,9.46,16.94c0,0-10.25,5.52-6.7,12.61s14.58,3.55,14.58,3.55.79,9.06,7.49,5.52S403,316.8,403,316.8s9.06,4.33,13.79-8.67S411.69,288.82,407.74,291.19Z" style="fill:#fff"></path><path d="M387.57,330.34a3.9,3.9,0,0,1-1.91-.48c-2.23-1.21-3-4.38-3.16-5.72-2.39.64-11.35,2.56-14.61-4-3.05-6.11,3.48-11.09,6-12.71-3.22-1.26-8-4.34-9.66-8.63a9.59,9.59,0,0,1,.94-8.69c4.87-8.35,16.55-5.46,19.83-4.45-.17-1.63.36-5.23,6.28-10.26a5.05,5.05,0,0,1,4.7-1.23c5.91,1.54,11,13.59,12.05,16.29,1.83-.74,4.34-.13,6.46,1.62,1.57,1.3,6.41,6.28,2.81,16.18-1.71,4.7-4.17,7.73-7.32,9a9.4,9.4,0,0,1-6.76.09c-1.18,1.66-6.5,8.84-12.56,12A6.75,6.75,0,0,1,387.57,330.34ZM382.92,323a.57.57,0,0,1,.28.08.55.55,0,0,1,.22.37c0,.05.4,4.27,2.72,5.54,1.06.57,2.42.44,4-.42,6.51-3.44,12.37-12,12.43-12.05a.49.49,0,0,1,.63-.17,8.59,8.59,0,0,0,6.36,0c2.87-1.18,5.14-4,6.75-8.43,3.37-9.28-1.06-13.88-2.5-15.07-2-1.62-4.38-2.15-5.84-1.28a.48.48,0,0,1-.42.05.5.5,0,0,1-.3-.3c-.06-.15-5.55-14.61-11.58-16.18a4,4,0,0,0-3.79,1c-7.41,6.3-5.8,10-5.78,10a.51.51,0,0,1-.09.55.48.48,0,0,1-.54.13c-.14-.05-14.25-5.25-19.49,3.73a8.67,8.67,0,0,0-.87,7.82c1.82,4.61,7.55,7.65,10,8.39a.51.51,0,0,1,.35.43.49.49,0,0,1-.26.49c-.09.05-9.77,5.37-6.48,12s13.87,3.32,14,3.29Z" style="fill:#263238"></path><path d="M397.1,305a5.53,5.53,0,1,1-5.51-5.91A5.73,5.73,0,0,1,397.1,305Z" style="fill:#FFC100"></path><path d="M391.59,311.39a6.42,6.42,0,1,1,6-6.41A6.23,6.23,0,0,1,391.59,311.39Zm0-11.82a5.43,5.43,0,1,0,5,5.41A5.23,5.23,0,0,0,391.59,299.57Z" style="fill:#263238"></path><path d="M389.45,296.16a.51.51,0,0,1-.46-.31l-3.78-9.2a.51.51,0,0,1,.28-.66.5.5,0,0,1,.65.28l3.77,9.2a.49.49,0,0,1-.27.65A.43.43,0,0,1,389.45,296.16Z" style="fill:#263238"></path><path d="M397.89,300.76a.5.5,0,0,1-.32-.88l7.28-6.14a.52.52,0,0,1,.71.06.51.51,0,0,1-.06.71l-7.29,6.13A.49.49,0,0,1,397.89,300.76Z" style="fill:#263238"></path><path d="M375,307.84a.51.51,0,0,1-.5-.42.5.5,0,0,1,.41-.57l7.9-1.33a.5.5,0,1,1,.17,1l-7.9,1.32Z" style="fill:#263238"></path><path d="M384.85,320.32a.47.47,0,0,1-.3-.1.5.5,0,0,1-.1-.7l6.74-8.93a.5.5,0,0,1,.8.6l-6.74,8.93A.51.51,0,0,1,384.85,320.32Z" style="fill:#263238"></path><path d="M403,317.3a.52.52,0,0,1-.37-.16l-7.72-8.42a.5.5,0,0,1,0-.71.51.51,0,0,1,.71,0l7.71,8.42a.5.5,0,0,1,0,.71A.51.51,0,0,1,403,317.3Z" style="fill:#263238"></path><path d="M419.12,268.31s6.34-16.92,12.39-11.78,4.53,8.16,4.53,8.16,11.17-4.23,15.4,3-4.23,12.08-7.25,13c0,0,7.86,4.23,5.14,9.66s-11.18,2.72-11.18,2.72-.6,6.95-5.74,4.23-9.66-9.36-9.66-9.36-6.95,3.32-10.58-6.65S416.1,266.5,419.12,268.31Z" style="fill:#fff"></path><path d="M434.59,298.44a5.2,5.2,0,0,1-2.41-.69c-4.59-2.43-8.62-7.79-9.62-9.19a7.36,7.36,0,0,1-5.18-.1c-2.45-1-4.36-3.35-5.68-7-2.78-7.66,1-11.53,2.19-12.53a5.35,5.35,0,0,1,5-1.31c.91-2.27,4.76-11.27,9.28-12.44a3.94,3.94,0,0,1,3.7,1c4.37,3.71,4.94,6.44,4.87,7.8,2.73-.83,11.48-2.83,15.17,3.51a7.45,7.45,0,0,1,.73,6.76c-1.27,3.23-4.78,5.57-7.26,6.6,2.06,1.37,6.74,5.15,4.44,9.77-2.49,5-9.19,3.66-11.21,3.13-.19,1.1-.78,3.43-2.46,4.34A3.09,3.09,0,0,1,434.59,298.44Zm-11.85-11a.48.48,0,0,1,.42.22c0,.06,4.52,6.57,9.49,9.2a3.1,3.1,0,0,0,3,.31c1.43-.78,1.95-3.25,2-4.14a.51.51,0,0,1,.23-.37.45.45,0,0,1,.42-.06c.09,0,8.09,2.52,10.58-2.47s-4.85-9-4.92-9a.48.48,0,0,1-.26-.49.49.49,0,0,1,.35-.43c1.89-.57,6.25-2.87,7.62-6.37A6.5,6.5,0,0,0,451,268c-4-6.8-14.69-2.85-14.8-2.81a.49.49,0,0,1-.54-.13.5.5,0,0,1-.08-.56s1.19-2.79-4.41-7.55a3,3,0,0,0-2.8-.75c-4.56,1.18-8.75,12.22-8.79,12.33a.53.53,0,0,1-.3.29.5.5,0,0,1-.43,0c-1.07-.65-2.86-.25-4.33,1-1.09.9-4.45,4.38-1.89,11.42,1.22,3.35,2.94,5.5,5.1,6.39a6.51,6.51,0,0,0,4.79,0A.41.41,0,0,1,422.74,287.45Z" style="fill:#263238"></path><path d="M427.28,278.88a4.24,4.24,0,1,0,4.23-4.53A4.39,4.39,0,0,0,427.28,278.88Z" style="fill:#FFC100"></path><path d="M431.51,283.92a5,5,0,1,1,4.72-5A4.9,4.9,0,0,1,431.51,283.92Zm0-9.07a4,4,0,1,0,3.72,4A3.89,3.89,0,0,0,431.51,274.85Z" style="fill:#263238"></path><path d="M425.12,285.42a.49.49,0,0,1-.38-.82l2.3-2.69a.5.5,0,0,1,.76.65l-2.3,2.69A.52.52,0,0,1,425.12,285.42Z" style="fill:#263238"></path><path d="M428.57,275.07a.5.5,0,0,1-.26-.08l-5-3.07a.5.5,0,0,1,.52-.85l5,3.07a.5.5,0,0,1-.26.93Z" style="fill:#263238"></path><path d="M435.85,288.49a.48.48,0,0,1-.36-.16l-4.35-4.57a.5.5,0,1,1,.73-.69l4.35,4.57a.5.5,0,0,1,0,.71A.52.52,0,0,1,435.85,288.49Z" style="fill:#263238"></path><path d="M441.22,281.2a.39.39,0,0,1-.15,0l-5.49-1.82a.5.5,0,0,1,.31-.95l5.49,1.82a.5.5,0,0,1-.16,1Z" style="fill:#263238"></path><path d="M433.94,274.3h0a.5.5,0,0,1-.46-.54l.38-5.36a.5.5,0,1,1,1,.07l-.38,5.37A.5.5,0,0,1,433.94,274.3Z" style="fill:#263238"></path><path d="M164.58,380.64s11-29.34,21.48-20.44,7.86,14.15,7.86,14.15,19.39-7.33,26.72,5.24-7.33,21-12.57,22.53c0,0,13.62,7.33,8.91,16.76s-19.39,4.72-19.39,4.72-1.05,12-10,7.33-16.77-16.24-16.77-16.24-12.05,5.77-18.34-11.52S159.34,377.49,164.58,380.64Z" style="fill:#fff"></path><path d="M191.41,432.53a8.77,8.77,0,0,1-4-1.15c-8.16-4.33-15.32-14.09-16.71-16.07a12.37,12.37,0,0,1-9-.08c-4.14-1.69-7.38-5.69-9.64-11.89-4.74-13.06,1.62-19.63,3.68-21.33,2.84-2.34,6.2-3.13,8.58-2.07,1.27-3.23,8.07-19.65,16-21.71a6.54,6.54,0,0,1,6.09,1.59c8.16,6.94,8.57,11.78,8.26,13.76,4-1.26,19.88-5.45,26.42,5.76,2.28,3.89,2.69,7.73,1.24,11.41-2.28,5.79-8.81,9.91-13.06,11.5,3.07,1.93,12.29,8.63,8.17,16.86-4.3,8.61-16.59,5.88-19.4,5.13-.24,1.62-1.15,6-4.15,7.68A5.15,5.15,0,0,1,191.41,432.53Zm-20.54-18.34a.49.49,0,0,1,.41.22c.08.12,7.9,11.48,16.59,16.08,2.19,1.16,4,1.35,5.52.55,3.17-1.73,3.7-7.43,3.7-7.48a.55.55,0,0,1,.22-.38.51.51,0,0,1,.43-.06c.15.05,14.32,4.47,18.79-4.46s-8.57-16-8.7-16.1a.5.5,0,0,1-.26-.49.51.51,0,0,1,.35-.43c3.34-1,11-5.07,13.46-11.26,1.34-3.38.94-6.92-1.17-10.54-7-12.07-25.92-5.09-26.11-5a.51.51,0,0,1-.55-.13.49.49,0,0,1-.07-.56c0-.05,2.24-5.06-7.74-13.54a5.49,5.49,0,0,0-5.19-1.39c-8.09,2.1-15.42,21.42-15.5,21.61a.5.5,0,0,1-.3.3.51.51,0,0,1-.42,0c-2-1.2-5.27-.5-8,1.71-1.94,1.6-7.9,7.77-3.38,20.22,2.16,5.91,5.2,9.72,9.07,11.3a11.55,11.55,0,0,0,8.59-.06A.5.5,0,0,1,170.87,414.19Z" style="fill:#263238"></path><ellipse cx="186.06" cy="398.97" rx="7.33" ry="7.86" style="fill:#FFC100"></ellipse><path d="M186.06,407.33A8.37,8.37,0,1,1,193.9,399,8.12,8.12,0,0,1,186.06,407.33Zm0-15.71A7.37,7.37,0,1,0,192.9,399,7.12,7.12,0,0,0,186.06,391.62Z" style="fill:#263238"></path><path d="M176.23,393.57a.51.51,0,0,1-.43-.25c-.88-1.47-8-8.71-11.57-12.33a.5.5,0,0,1,0-.71.51.51,0,0,1,.71,0c.43.43,10.55,10.58,11.72,12.53a.51.51,0,0,1-.43.76Z" style="fill:#263238"></path><path d="M170.87,415.19a.53.53,0,0,1-.4-.19.52.52,0,0,1,.1-.71c2.2-1.68,6.33-9.12,6.37-9.2a.51.51,0,0,1,.68-.19.5.5,0,0,1,.2.68c-.17.31-4.28,7.7-6.65,9.51A.47.47,0,0,1,170.87,415.19Z" style="fill:#263238"></path><path d="M189.49,386.79a.5.5,0,0,1-.5-.48c0-.23-.21-5.67,1.38-8.45a.5.5,0,1,1,.87.5c-1.45,2.52-1.25,7.86-1.25,7.91a.5.5,0,0,1-.48.52Z" style="fill:#263238"></path><path d="M203.84,403.54h-.08l-9.2-1.53a.5.5,0,0,1-.41-.58.49.49,0,0,1,.57-.41l9.2,1.53a.5.5,0,0,1-.08,1Z" style="fill:#263238"></path><path d="M195.41,419.26a.49.49,0,0,1-.5-.47c-.37-5.91-4.09-11.19-4.13-11.25a.49.49,0,0,1,.12-.69.5.5,0,0,1,.69.11,25.47,25.47,0,0,1,4.31,11.77.5.5,0,0,1-.46.53Z" style="fill:#263238"></path></g></svg>