<svg xmlns="http://www.w3.org/2000/svg" viewBox="0 0 500 500"><g id="freepik--background-complete--inject-117"><circle cx="266.48" cy="263.07" r="187.03" transform="translate(-107.97 265.48) rotate(-45)" style="fill:#e0e0e0"></circle><path d="M311,144.91a58.4,58.4,0,0,0,15.77,49.8C327.48,178.47,322.07,156.78,311,144.91Z" style="fill:#fff"></path><path d="M323.82,132.48A49.84,49.84,0,0,0,337.28,175C337.91,161.13,333.29,142.61,323.82,132.48Z" style="fill:#fff"></path><path d="M336.06,123.51a39.89,39.89,0,0,0,10.77,34C347.34,146.46,343.64,131.63,336.06,123.51Z" style="fill:#fff"></path><path d="M375.6,181.72a59.16,59.16,0,0,1-51.72,11.34C337.77,184.19,359.56,178,375.6,181.72Z" style="fill:#fff"></path><path d="M380,164.15a50.5,50.5,0,0,1-44.14,9.67C347.73,166.26,366.33,161,380,164.15Z" style="fill:#fff"></path><path d="M381.71,148.87a40.49,40.49,0,0,1-35.35,7.75C355.85,150.56,370.75,146.31,381.71,148.87Z" style="fill:#fff"></path><path d="M371.29,110.19C360,118.33,351,135.86,350.94,149.8,364.06,140.09,372.44,124.84,371.29,110.19Z" style="fill:#fff"></path><path d="M310.46,219.24c-.34-.2,9.43-17.76,21.83-39.2s22.74-38.68,23.09-38.48-9.43,17.75-21.83,39.2S310.81,219.44,310.46,219.24Z" style="fill:#fff"></path><path d="M349.36,249.55a53.13,53.13,0,0,0-22.53,41.87C337.9,281.62,348.64,264.32,349.36,249.55Z" style="fill:#fff"></path><path d="M365.62,250.06A45.34,45.34,0,0,0,346.4,285.8C355.85,277.43,365,262.67,365.62,250.06Z" style="fill:#fff"></path><path d="M379.24,252.37A36.28,36.28,0,0,0,363.84,281C371.41,274.29,378.75,262.46,379.24,252.37Z" style="fill:#fff"></path><path d="M366.3,315.1a53.84,53.84,0,0,1-40.2-26.58C340.69,292,358.57,302.25,366.3,315.1Z" style="fill:#fff"></path><path d="M380.57,306.85a46,46,0,0,1-34.3-22.7C358.72,287.09,374,295.88,380.57,306.85Z" style="fill:#fff"></path><path d="M391.63,298.26a36.82,36.82,0,0,1-27.48-18.18C374.12,282.44,386.35,289.48,391.63,298.26Z" style="fill:#fff"></path><path d="M410.28,266.93c-12.49-2.22-29.66,3-38.77,11.82C386.17,281.17,401.44,277,410.28,266.93Z" style="fill:#fff"></path><path d="M300.49,296.35c-.09-.35,17.57-5.1,39.44-10.6s39.68-9.68,39.77-9.32-17.57,5.1-39.45,10.6S300.58,296.71,300.49,296.35Z" style="fill:#fff"></path><path d="M168.24,272.38a58.75,58.75,0,0,0,51.62-9.7C203.75,260,181.43,262.74,168.24,272.38Z" style="fill:#fff"></path><path d="M157.39,258a50.09,50.09,0,0,0,44.06-8.28C187.7,247.45,168.65,249.82,157.39,258Z" style="fill:#fff"></path><path d="M149.92,244.74a40.11,40.11,0,0,0,35.29-6.63C174.2,236.26,158.94,238.16,149.92,244.74Z" style="fill:#fff"></path><path d="M212.82,212.33a59.51,59.51,0,0,1,5.05,53C210.7,250.39,207.14,227.88,212.82,212.33Z" style="fill:#fff"></path><path d="M195.81,205.79A50.79,50.79,0,0,1,200.12,251C194,238.28,191,219.06,195.81,205.79Z" style="fill:#fff"></path><path d="M180.76,202.25a40.67,40.67,0,0,1,3.45,36.23C179.32,228.27,176.88,212.88,180.76,202.25Z" style="fill:#fff"></path><path d="M140.89,208c6.77,12.27,23.17,23.4,37.08,25.11C169.87,218.8,155.66,208.59,140.89,208Z" style="fill:#fff"></path><path d="M242.37,281.89c-.24.32-16.58-11.56-36.48-26.54S170,228,170.28,227.65s16.57,11.56,36.49,26.54S242.61,281.57,242.37,281.89Z" style="fill:#fff"></path><path d="M374.42,96.33c4.63-25.09,34.79-41.15,60.12-45.37-1.07,4.61-11.56,23.93-22.13,32.57a57.37,57.37,0,0,1-38,12.8" style="fill:#ebebeb"></path><path d="M412.43,66.25s-.11.13-.35.33l-1.08.86-4,3.12c-3.39,2.62-8.06,6.25-13.16,10.33s-9.68,7.85-13,10.58l-3.91,3.22-1.08.86a1.77,1.77,0,0,1-.4.28s.1-.14.33-.36l1-.93c.88-.81,2.19-2,3.81-3.36,3.24-2.8,7.78-6.61,12.89-10.69s9.82-7.68,13.27-10.23c1.72-1.27,3.13-2.29,4.11-3L412,66.5A2,2,0,0,1,412.43,66.25Z" style="fill:#e0e0e0"></path><path d="M193.44,79.86c-7.23-14.43,1.86-34,13-45.81,1.22,2.74,3.3,16.48,1.26,24.87a36.27,36.27,0,0,1-14.28,20.94" style="fill:#ebebeb"></path><path d="M201.15,50.19a5.23,5.23,0,0,1-.24,1.16c-.21.84-.48,1.88-.8,3.11l-2.67,10.23L194.9,75l-.78,3.11a4.79,4.79,0,0,1-.35,1.13,5.48,5.48,0,0,1,.15-1.17c.13-.75.34-1.83.62-3.15.55-2.66,1.38-6.31,2.39-10.32s2-7.62,2.82-10.21c.4-1.3.73-2.35,1-3.07A4.79,4.79,0,0,1,201.15,50.19Z" style="fill:#e0e0e0"></path><path d="M104,153.73c-10.15-8.5-27.52-4.94-39,1.75,2,1.49,12.53,5.75,19.62,5.71A29.81,29.81,0,0,0,104,153.73" style="fill:#ebebeb"></path><path d="M78.84,154.28a4.34,4.34,0,0,1,1-.15c.62-.06,1.52-.13,2.63-.21,2.22-.14,5.29-.28,8.69-.33s6.47,0,8.7,0c1.11,0,2,.08,2.63.12a4.23,4.23,0,0,1,1,.12,24.35,24.35,0,0,1-3.6.13l-8.68.11-8.68.18A25.23,25.23,0,0,1,78.84,154.28Z" style="fill:#e0e0e0"></path><path d="M139.22,415.47c-6.89,8.77-3.44,23.28,2.49,32.8,1.2-1.69,4.5-10.7,4.28-16.66a25.05,25.05,0,0,0-6.77-16.14" style="fill:#ebebeb"></path><path d="M140.34,436.61a16.47,16.47,0,0,1-.43-3c-.18-1.87-.38-4.45-.52-7.3s-.18-5.45-.17-7.32a16.12,16.12,0,0,1,.13-3,17,17,0,0,1,.23,3c.09,2,.21,4.53.33,7.3s.27,5.27.37,7.3A19.61,19.61,0,0,1,140.34,436.61Z" style="fill:#e0e0e0"></path><path d="M176.28,84.82c-18.18-4.89-28.2-28-29.81-46.9,3.33,1.06,16.92,9.91,22.65,18.2a42.35,42.35,0,0,1,7.16,28.7" style="fill:#ebebeb"></path><path d="M156.41,55.08a6.9,6.9,0,0,1,.81,1.11l2.07,3.12c1.74,2.64,4.15,6.29,6.84,10.28s5.19,7.59,7,10.19l2.13,3.08A6.87,6.87,0,0,1,176,84a7.06,7.06,0,0,1-.89-1c-.54-.69-1.32-1.72-2.26-3-1.88-2.54-4.41-6.1-7.12-10.1S160.64,62.2,159,59.51c-.83-1.35-1.49-2.44-1.93-3.21A7.2,7.2,0,0,1,156.41,55.08Z" style="fill:#e0e0e0"></path><path d="M114.19,397.6c-11.23,13.6-34.83,13.15-51.55,7.18,2.2-2.42,15-10.56,24.31-12.22a39.64,39.64,0,0,1,27.24,5" style="fill:#ebebeb"></path><path d="M81.13,403a6.65,6.65,0,0,1,1.26-.27l3.46-.55,11.42-1.84,11.39-2,3.46-.6a5.48,5.48,0,0,1,1.28-.16,6.86,6.86,0,0,1-1.24.36c-.81.19-2,.46-3.42.76-2.9.62-6.92,1.4-11.38,2.15s-8.51,1.33-11.45,1.69c-1.47.18-2.67.32-3.49.39A5.71,5.71,0,0,1,81.13,403Z" style="fill:#e0e0e0"></path><path d="M125.61,406.24c3.13,20.35-15.59,40.57-33.76,50.5-.41-3.79,2.46-21.29,8.22-30.67a46.32,46.32,0,0,1,25.54-19.83" style="fill:#ebebeb"></path><path d="M104.63,439.23a9,9,0,0,1,.76-1.29l2.22-3.45c1.88-2.9,4.46-6.91,7.27-11.37s5.3-8.53,7.1-11.48c.86-1.41,1.58-2.59,2.14-3.49a8.31,8.31,0,0,1,.84-1.25,8.37,8.37,0,0,1-.67,1.35c-.46.85-1.14,2.07-2,3.57-1.72,3-4.16,7.11-7,11.58s-5.45,8.45-7.41,11.3c-1,1.42-1.78,2.57-2.35,3.35A7.48,7.48,0,0,1,104.63,439.23Z" style="fill:#e0e0e0"></path><path d="M438,362.33c8.37,6,20.93,1.14,28.86-5.68-1.6-1-9.87-3.44-15.14-2.64A21.74,21.74,0,0,0,438,362.33" style="fill:#ebebeb"></path><path d="M456.68,359.15a12.55,12.55,0,0,1-2.61.71c-1.64.37-3.9.82-6.42,1.24s-4.82.71-6.48.89a13.66,13.66,0,0,1-2.71.16,14,14,0,0,1,2.66-.53l6.44-1L454,359.5A15.25,15.25,0,0,1,456.68,359.15Z" style="fill:#e0e0e0"></path><path d="M387.29,417.87c-9.46,9.74-4.41,25.66,4,36.06,1.65-1.87,6.11-11.83,5.7-18.38s-3.93-13-9.73-17.68" style="fill:#ebebeb"></path><path d="M389.21,441.12a3.41,3.41,0,0,1-.19-.88c-.1-.57-.22-1.39-.35-2.42-.27-2-.57-4.88-.81-8s-.36-6-.41-8.06c0-1,0-1.86,0-2.44a3.58,3.58,0,0,1,.06-.9,3.52,3.52,0,0,1,.11.9c0,.67.1,1.48.16,2.43.13,2.06.3,4.9.54,8s.49,6,.68,8q.12,1.43.21,2.43A3.64,3.64,0,0,1,389.21,441.12Z" style="fill:#e0e0e0"></path><path d="M430.19,376.5c16.38-3.63,34.42,8.22,44,20.41-3.08.55-17.61-.26-25.75-3.69a35.49,35.49,0,0,1-18.25-16.72" style="fill:#ebebeb"></path><path d="M458.84,389.07a6,6,0,0,1-1.13-.42l-3-1.31-9.9-4.35-9.94-4.24-3-1.3a5.27,5.27,0,0,1-1.08-.53,5,5,0,0,1,1.15.34c.73.26,1.78.65,3.08,1.15,2.58,1,6.13,2.42,10,4.1s7.35,3.29,9.84,4.49c1.25.6,2.25,1.1,2.94,1.46A5,5,0,0,1,458.84,389.07Z" style="fill:#e0e0e0"></path><path d="M365.82,89.87C355.09,80.78,355.68,62,360.6,48.69c1.91,1.77,8.28,12.08,9.51,19.51a31.62,31.62,0,0,1-4.29,21.67" style="fill:#ebebeb"></path><path d="M361.85,63.45a3.55,3.55,0,0,1,.23,1c.11.76.26,1.69.42,2.76.37,2.47.85,5.63,1.37,9.12s1.07,6.65,1.47,9.11c.17,1.08.31,2,.43,2.77a3.73,3.73,0,0,1,.09,1,4.47,4.47,0,0,1-.29-1c-.16-.64-.36-1.57-.6-2.73-.47-2.32-1.06-5.53-1.61-9.1s-1-6.8-1.22-9.15c-.13-1.18-.22-2.13-.27-2.79A4.77,4.77,0,0,1,361.85,63.45Z" style="fill:#e0e0e0"></path></g><g id="freepik--Branches--inject-117"><polygon points="470.47 169.43 453.99 174.22 440.81 178.04 428.05 171.99 437.08 162.76 435.12 160.9 426.14 169.12 414.34 176.77 323.6 232.17 327.28 236.88 371.52 209.53 408.36 216.17 436.29 246.28 436.86 245.83 411.95 214.86 450.37 223.31 450.37 221.57 378.93 204.95 427.1 175.17 440.81 181.55 454.52 176.13 466.96 185.7 458.35 174.85 470.47 169.43" style="fill:#ae7461"></polygon><path d="M396.58,190.06a136.88,136.88,0,0,0-5.33-19.35,1.25,1.25,0,0,0-2.41.67c.09.35.18.71.26,1.06a1.25,1.25,0,0,0,2.41-.67c-.08-.35-.17-.7-.26-1.06l-2.41.67a136.38,136.38,0,0,1,5.33,19.34c.32,1.58,2.73.91,2.41-.66Z" style="fill:#ae7461"></path><path d="M395.15,184.68l6.11-11.23c.77-1.42-1.39-2.68-2.16-1.27q-3,5.63-6.11,11.24c-.77,1.42,1.39,2.68,2.16,1.26Z" style="fill:#ae7461"></path><path d="M418.92,175.86a270,270,0,0,0,8.32-29.25c.36-1.56-2.05-2.23-2.41-.66a269.13,269.13,0,0,1-8.32,29.24c-.53,1.52,1.88,2.18,2.41.67Z" style="fill:#ae7461"></path><path d="M390.07,208.16a213.51,213.51,0,0,1,.35,32c-.08,1.35,2,1.35,2.11,0a213.51,213.51,0,0,0-.36-32c-.11-1.35-2.22-1.36-2.1,0Z" style="fill:#ae7461"></path><path d="M391,226a48.47,48.47,0,0,0-8.52,7.27c-.92,1,.57,2.49,1.49,1.49a45.86,45.86,0,0,1,8.1-6.94,1.09,1.09,0,0,0,.37-1.45A1.06,1.06,0,0,0,391,226Z" style="fill:#ae7461"></path><path d="M391.76,226.7l8.47,7.72a1.08,1.08,0,0,0,1.49,0,1.06,1.06,0,0,0,0-1.49l-8.47-7.72a1.08,1.08,0,0,0-1.49,0,1.07,1.07,0,0,0,0,1.49Z" style="fill:#ae7461"></path><path d="M387.14,234a5,5,0,1,1-5-5A5,5,0,0,1,387.14,234Z" style="fill:#FFC100"></path><path d="M395.84,243.26a5,5,0,1,1-5-5A5,5,0,0,1,395.84,243.26Z" style="fill:#FFC100"></path><path d="M408,234.94a5,5,0,1,1-5-5A5,5,0,0,1,408,234.94Z" style="fill:#FFC100"></path><path d="M394.1,170.23a4.92,4.92,0,1,1-4.92-4.91A4.92,4.92,0,0,1,394.1,170.23Z" style="fill:#FFC100"></path><path d="M406.68,171.94a4.92,4.92,0,1,1-4.92-4.91A4.92,4.92,0,0,1,406.68,171.94Z" style="fill:#FFC100"></path><path d="M427.47,218.21c17-9.2,40.82,1,55.36,13.9-3.23,1.56-19.61,4.56-29.74,2.43a43.43,43.43,0,0,1-25.62-16.33" style="fill:#455a64"></path><path d="M459.49,226.41a5.6,5.6,0,0,1-1.25-.4l-3.32-1.22c-2.82-1-6.75-2.29-11.17-3.41s-8.49-1.87-11.45-2.33l-3.5-.51a5.71,5.71,0,0,1-1.28-.24,6.74,6.74,0,0,1,1.3,0c.84,0,2.05.17,3.54.35A95.06,95.06,0,0,1,455,224.45c1.4.54,2.52,1,3.28,1.37A7.28,7.28,0,0,1,459.49,226.41Z" style="fill:#263238"></path><path d="M423.19,160.6c-11.22-11.84-8.17-33.46-.82-48.14,2,2.29,8,15,8.51,23.69a36.68,36.68,0,0,1-7.69,24.45" style="fill:#455a64"></path><path d="M422,129.63a4.87,4.87,0,0,1,.12,1.19c0,.88.08,2,.13,3.24.11,2.86.25,6.58.41,10.69s.41,7.84.56,10.69c.06,1.28.12,2.37.16,3.24a4.75,4.75,0,0,1,0,1.19,5.58,5.58,0,0,1-.19-1.17c-.1-.77-.21-1.87-.33-3.23-.25-2.73-.52-6.51-.71-10.69s-.26-8-.26-10.71c0-1.37,0-2.48,0-3.24A6.61,6.61,0,0,1,422,129.63Z" style="fill:#263238"></path><path d="M437.4,159.3a171.22,171.22,0,0,0,19.68-22.17c1-1.29-1.21-2.54-2.16-1.26a166.66,166.66,0,0,1-19.29,21.66c-1.17,1.11.6,2.87,1.77,1.77Z" style="fill:#ae7461"></path><path d="M434.15,163.78c-1.23-23.8,22.68-44.92,44.78-54.25,0,4.42-5.31,24.25-13,34.39a53.57,53.57,0,0,1-31.74,19.86" style="fill:#455a64"></path><path d="M464.18,128.23s-.08.15-.28.38l-.89,1-3.3,3.7c-2.79,3.11-6.63,7.43-10.8,12.26s-7.88,9.27-10.56,12.49l-3.17,3.81-.88,1c-.2.23-.31.35-.33.34a1.69,1.69,0,0,1,.25-.4l.8-1.09c.71-.93,1.75-2.27,3.05-3.91,2.6-3.28,6.27-7.76,10.44-12.6s8.06-9.12,10.93-12.17c1.43-1.53,2.6-2.75,3.43-3.59l.95-1A2,2,0,0,1,464.18,128.23Z" style="fill:#263238"></path><path d="M266.57,164.43c-1-1.25,7.81-83.52,7.81-83.52l1.08.35.18,21L289,91.68l.37,1.69-13.06,12.87-4.15,61.1Z" style="fill:#ae7461"></path><path d="M272.44,145.44l35.42-35a1.25,1.25,0,0,0-1.77-1.76l-35.42,35c-1.14,1.13.63,2.9,1.77,1.77Z" style="fill:#ae7461"></path><path d="M271.8,138.79q-9.75-15.4-19.48-30.81c-.86-1.35-3-.1-2.16,1.26q9.73,15.41,19.48,30.82c.86,1.35,3,.1,2.16-1.27Z" style="fill:#ae7461"></path><path d="M296.43,90.78A4.91,4.91,0,1,1,290.59,87,4.93,4.93,0,0,1,296.43,90.78Z" style="fill:#FFC100"></path><path d="M273.36,98.84c-11-15.93-3.39-40.68,7.92-56.52,1.9,3,6.63,19,5.59,29.32a43.52,43.52,0,0,1-13.51,27.2" style="fill:#455a64"></path><path d="M262.4,127.08c-21.23-5-33.62-31.5-36.13-53.32,3.89,1.12,19.94,10.91,26.86,20.31a49.11,49.11,0,0,1,9.27,33" style="fill:#455a64"></path><path d="M287.66,130.14c.51-21.82,23.79-39.46,44.61-46.46-.28,4-6.51,21.77-14.27,30.5a49,49,0,0,1-30.34,16" style="fill:#455a64"></path><path d="M317.59,101.05a9.2,9.2,0,0,1-1.27,1c-.84.62-2,1.54-3.51,2.68a137,137,0,0,0-11,9.56A135.1,135.1,0,0,0,292,125c-1.19,1.44-2.14,2.61-2.78,3.44a9.08,9.08,0,0,1-1.05,1.23,10.06,10.06,0,0,1,.89-1.36c.59-.86,1.5-2.07,2.65-3.54a114.1,114.1,0,0,1,9.79-10.85,112.59,112.59,0,0,1,11.13-9.47c1.5-1.11,2.74-2,3.62-2.55A9.14,9.14,0,0,1,317.59,101.05Z" style="fill:#263238"></path><path d="M277.7,63.73c.15,0-.59,7.69-1.65,17.14S274,98,273.88,98s.6-7.69,1.65-17.14S277.56,63.71,277.7,63.73Z" style="fill:#263238"></path><path d="M261.81,125.53a7.92,7.92,0,0,1-.74-1.24c-.44-.81-1.1-2-1.92-3.41a126.5,126.5,0,0,0-7-10.83,123.66,123.66,0,0,0-8.07-10c-1.09-1.23-2-2.22-2.62-2.9a8.68,8.68,0,0,1-.94-1.09,6.62,6.62,0,0,1,1.08.95c.68.63,1.62,1.58,2.76,2.79a101.11,101.11,0,0,1,15.08,21c.79,1.46,1.39,2.66,1.78,3.5A7.8,7.8,0,0,1,261.81,125.53Z" style="fill:#263238"></path><polygon points="262.08 246.36 160.87 139.01 147.88 124.44 141.21 113.33 130.78 88.59 138.28 114.72 144.27 127.58 124.97 131.03 108.73 121.08 88.42 108.65 87.37 112.5 104.61 122.5 88.94 131.85 90.51 134.07 106.25 124.13 124.78 135.54 144.38 132.2 197.97 189.69 96.25 185.8 95.61 188.12 150.14 190.87 105.46 223.22 107.23 225.62 154.47 193.94 206.21 198.53 255.43 251.32 262.08 246.36" style="fill:#ae7461"></polygon><path d="M193.12,174q8.34-24.44,18.58-48.16c.63-1.47-1.52-2.74-2.16-1.27q-10.36,24-18.83,48.77c-.52,1.52,1.89,2.18,2.41.66Z" style="fill:#ae7461"></path><path d="M200.35,152.07a121.31,121.31,0,0,1-5.11-17.1c-.34-1.57-2.75-.91-2.41.66a121.44,121.44,0,0,0,5.11,17.11c.56,1.48,3,.84,2.41-.67Z" style="fill:#ae7461"></path><path d="M203.45,147.41l10.16-4.61a1.27,1.27,0,0,0,.45-1.71,1.28,1.28,0,0,0-1.71-.45l-10.16,4.61a1.27,1.27,0,0,0-.45,1.71,1.28,1.28,0,0,0,1.71.45Z" style="fill:#ae7461"></path><path d="M222.44,141.24a6.1,6.1,0,1,1-6.31-5.89A6.11,6.11,0,0,1,222.44,141.24Z" style="fill:#FFC100"></path><path d="M222.79,121.53a8.36,8.36,0,1,1-8.64-8.06A8.36,8.36,0,0,1,222.79,121.53Z" style="fill:#FFC100"></path><path d="M200.71,133.31A6.5,6.5,0,1,1,194,127,6.5,6.5,0,0,1,200.71,133.31Z" style="fill:#FFC100"></path><path d="M133.78,188.63c-18.85,21.69-57.36,18.08-84.32,8.05,3.58-3.81,24.87-16.61,40.12-19s31.25,2.62,44.2,10.9" style="fill:#455a64"></path><path d="M84.1,192.83a1.77,1.77,0,0,1,.49-.12l1.4-.23c1.22-.2,3-.45,5.17-.74,4.38-.58,10.44-1.28,17.16-1.86s12.8-.92,17.22-1.09c2.2-.08,4-.13,5.22-.15h1.42a1.61,1.61,0,0,1,.5,0,1.78,1.78,0,0,1-.49.07l-1.42.1-5.22.32c-4.4.27-10.48.67-17.19,1.24s-12.77,1.21-17.15,1.7l-5.2.58-1.41.14A1.92,1.92,0,0,1,84.1,192.83Z" style="fill:#263238"></path><path d="M139.62,110C117.79,98.24,111.9,65.58,115.51,40.9c3.95,2.36,18.7,17.79,23.56,30.14a55.79,55.79,0,0,1,.55,38.93" style="fill:#455a64"></path><path d="M122.63,59.61a2.12,2.12,0,0,1,.21.51q.21.59.51,1.47c.46,1.36,1.07,3.2,1.82,5.45,1.52,4.6,3.64,10.94,6,17.93s4.68,13.29,6.33,17.85l1.93,5.4q.32.89.51,1.47a3.06,3.06,0,0,1,.15.53,2,2,0,0,1-.25-.49c-.16-.38-.35-.86-.6-1.44-.51-1.26-1.22-3.08-2.09-5.35-1.73-4.52-4-10.81-6.47-17.8s-4.48-13.36-5.91-18c-.72-2.32-1.29-4.2-1.66-5.5l-.42-1.5A2,2,0,0,1,122.63,59.61Z" style="fill:#263238"></path><path d="M96,115.51C74.47,118.84,53,99,42.46,79.76c4-.44,22.58,2.58,32.54,8.68a49.09,49.09,0,0,1,21,27.07" style="fill:#455a64"></path><path d="M96.05,116c-.08.11-8.09-5.67-17.87-12.91S60.53,89.9,60.62,89.79s8.08,5.66,17.87,12.91S96.14,115.91,96.05,116Z" style="fill:#263238"></path></g><g id="freepik--Bird--inject-117"><path d="M77.28,315a185.07,185.07,0,0,0-43.41,9.75c-1.5.53-.86,2.95.67,2.41a182.61,182.61,0,0,1,42.74-9.66c1.58-.16,1.6-2.67,0-2.5Z" style="fill:#ae7461"></path><path d="M77.67,336.57q.14,12.78.28,25.55a1.25,1.25,0,0,0,2.5,0q-.14-12.78-.28-25.55a1.25,1.25,0,0,0-2.5,0Z" style="fill:#ae7461"></path><path d="M77.85,314.14a72,72,0,0,1-29.67-28.41A1.25,1.25,0,0,0,46,287a74.18,74.18,0,0,0,30.56,29.3c1.43.74,2.69-1.42,1.26-2.15Z" style="fill:#ae7461"></path><path d="M105.83,311.59C93.27,321.18,81.17,331.4,69.49,342q-4.78,4.35-9.44,8.83c-1.16,1.12.61,2.89,1.77,1.77,11.25-10.84,23.06-21.13,35.2-31,3.32-2.68,6.68-5.33,10.07-7.92,1.26-1,0-3.14-1.26-2.16Z" style="fill:#ae7461"></path><path d="M173.55,310.7a181.11,181.11,0,0,1-14.73-43.84c-.32-1.58-2.73-.91-2.41.66a183.15,183.15,0,0,0,15,44.44c.7,1.45,2.86.18,2.16-1.26Z" style="fill:#ae7461"></path><path d="M145,348.34a133,133,0,0,1,39.7-28c1.46-.67.19-2.82-1.26-2.16a134.87,134.87,0,0,0-40.21,28.36c-1.13,1.15.64,2.92,1.77,1.77Z" style="fill:#ae7461"></path><path d="M129.27,293.34c-10.33,8.86-28.22,5.41-40.14-1.32,2-1.56,12.81-6.06,20.1-6.1a30.62,30.62,0,0,1,20,7.42" style="fill:#455a64"></path><polygon points="387.41 384.4 365.27 306.84 358.57 306.29 372.72 375.12 324.81 344.86 155.45 304.75 112.24 268.02 109.92 270.6 144.26 303.26 75.69 312.86 75.98 317.92 108.22 313.4 151.3 311.37 316.67 350.96 319.69 355.95 333.49 358.11 429.39 435.14 443.76 420 387.41 384.4" style="fill:#ae7461"></polygon><path d="M62.27,356.42a8.36,8.36,0,1,1-8.82-7.88A8.35,8.35,0,0,1,62.27,356.42Z" style="fill:#FFC100"></path><path d="M85.56,360.65A7.16,7.16,0,1,1,78,353.9,7.15,7.15,0,0,1,85.56,360.65Z" style="fill:#FFC100"></path><path d="M129.35,284.24c-19.33.35-35.81-19.62-42.77-37.79,3.59.1,19.52,5,27.53,11.51a43.46,43.46,0,0,1,15.24,26.28" style="fill:#455a64"></path><path d="M160.46,333.14c-1.47,19.28-22.9,33.81-41.64,39,.43-3.56,6.77-19,14-26.32a43.54,43.54,0,0,1,27.6-12.71" style="fill:#455a64"></path><path d="M168.22,297c-17-9.17-21.59-34.65-18.75-53.91C152.54,245,164,257,167.82,266.65a43.52,43.52,0,0,1,.4,30.38" style="fill:#455a64"></path><path d="M99.6,258.2a8.58,8.58,0,0,1,1.27.87c.8.58,1.93,1.45,3.31,2.55,2.77,2.19,6.52,5.32,10.5,8.95s7.44,7.08,9.88,9.63c1.21,1.28,2.18,2.33,2.84,3.07a10.91,10.91,0,0,1,1,1.18,8.88,8.88,0,0,1-1.13-1c-.76-.77-1.76-1.76-3-3-2.5-2.49-6-5.88-10-9.51s-7.68-6.79-10.38-9.05l-3.21-2.68A9.1,9.1,0,0,1,99.6,258.2Z" style="fill:#263238"></path><path d="M156.22,260.77a7,7,0,0,1,.69,1.34c.41.88,1,2.16,1.65,3.76,1.33,3.2,3.05,7.69,4.67,12.73s2.83,9.68,3.61,13.06c.39,1.69.68,3.06.85,4a9.13,9.13,0,0,1,.23,1.49,7.51,7.51,0,0,1-.43-1.45l-1-4c-.86-3.35-2.14-8-3.75-13s-3.27-9.52-4.52-12.75l-1.49-3.82A9.26,9.26,0,0,1,156.22,260.77Z" style="fill:#263238"></path><path d="M128.24,294.3c0,.07-1.42-.19-3.69-.56s-5.41-.83-8.9-1.16-6.66-.46-9-.52a36.2,36.2,0,0,1-3.72-.13,3.42,3.42,0,0,1,1-.13c.65-.05,1.58-.09,2.73-.1a86.1,86.1,0,0,1,9,.36,83.51,83.51,0,0,1,8.92,1.32c1.13.23,2,.44,2.66.61A3.5,3.5,0,0,1,128.24,294.3Z" style="fill:#263238"></path><path d="M51.4,319.78C45.33,334.28,25.07,340,9.28,339.21c1.24-2.63,10.08-12.89,17.58-16.7a35.34,35.34,0,0,1,24.54-2.73" style="fill:#455a64"></path><path d="M51.4,319.78a5.47,5.47,0,0,1-1.13.41c-.74.22-1.8.57-3.1,1-2.6.89-6.14,2.29-10,4.05S30,328.75,27.53,330l-2.92,1.47a5.24,5.24,0,0,1-1.1.48,4.92,4.92,0,0,1,1-.66c.66-.4,1.63-1,2.84-1.62,2.42-1.33,5.8-3.12,9.63-4.88a83.59,83.59,0,0,1,10.07-3.93c1.32-.41,2.4-.7,3.16-.87A5.51,5.51,0,0,1,51.4,319.78Z" style="fill:#263238"></path><path d="M56.07,298.29c-16.68-4.18-26.19-25.14-28-42.35,3.05.92,15.6,8.79,21,16.26a38.67,38.67,0,0,1,7,26.09" style="fill:#455a64"></path><path d="M56.07,298.29a5.57,5.57,0,0,1-.62-1.16c-.37-.76-.91-1.86-1.61-3.19-1.39-2.67-3.49-6.27-6-10.11s-5-7.22-6.73-9.68L39,271.24a6,6,0,0,1-.71-1.1,5.7,5.7,0,0,1,.87,1c.53.66,1.29,1.62,2.21,2.81,1.84,2.4,4.32,5.76,6.87,9.61a96.54,96.54,0,0,1,5.91,10.23c.66,1.37,1.16,2.49,1.46,3.27A7,7,0,0,1,56.07,298.29Z" style="fill:#263238"></path><path d="M158.82,332.73a6.9,6.9,0,0,1-1,.94l-2.91,2.44c-2.44,2.07-5.74,5-9.21,8.45s-6.43,6.73-8.52,9.15l-2.46,2.89a7.23,7.23,0,0,1-.95,1,6.87,6.87,0,0,1,.79-1.16c.53-.73,1.32-1.75,2.34-3a121.1,121.1,0,0,1,8.43-9.28,119.57,119.57,0,0,1,9.35-8.36c1.25-1,2.28-1.8,3-2.32A8.33,8.33,0,0,1,158.82,332.73Z" style="fill:#263238"></path><path d="M382.26,352.65c-6.72-18.14,6.68-40.29,21.53-52.86,1.09,3.41,1.76,20.06-1.76,29.78a43.51,43.51,0,0,1-19.77,23.08" style="fill:#455a64"></path><path d="M395.4,318.12a7.62,7.62,0,0,1-.49,1.34l-1.5,3.59c-1.27,3-3.08,7.19-4.94,11.83s-3.37,8.92-4.4,12l-1.19,3.7a9,9,0,0,1-.49,1.34,7.06,7.06,0,0,1,.29-1.4c.22-.89.57-2.17,1-3.75.94-3.15,2.4-7.46,4.27-12.12s3.72-8.8,5.09-11.79c.68-1.49,1.25-2.7,1.65-3.52A7.19,7.19,0,0,1,395.4,318.12Z" style="fill:#263238"></path><path d="M365.25,352.5c-1.3-13.93-17-24.17-30.59-27.73.36,2.57,5.13,13.64,10.48,18.88a31.4,31.4,0,0,0,20.11,8.85" style="fill:#455a64"></path><path d="M347.56,335.68a3.51,3.51,0,0,1,.79.55c.49.38,1.19.94,2,1.66,1.68,1.44,3.95,3.49,6.38,5.82s4.59,4.51,6.11,6.11a22.18,22.18,0,0,1,2.38,2.68,25.81,25.81,0,0,1-2.64-2.42l-6.21-6c-2.43-2.33-4.65-4.42-6.27-5.92A29.58,29.58,0,0,1,347.56,335.68Z" style="fill:#263238"></path><polygon points="225.2 400.47 224.97 396.32 316.69 350.18 324.89 355.83 225.2 400.47" style="fill:#ae7461"></polygon><path d="M297.3,365.87A107.74,107.74,0,0,0,302.06,419c.54,1.51,2.95.86,2.41-.66a105.19,105.19,0,0,1-4.76-51.79c.26-1.57-2.15-2.25-2.41-.66Z" style="fill:#ae7461"></path><path d="M251.71,385.05a275.7,275.7,0,0,0-12.83,43.22c-.33,1.57,2.07,2.24,2.41.67a276.77,276.77,0,0,1,12.83-43.22c.58-1.5-1.83-2.15-2.41-.67Z" style="fill:#ae7461"></path><path d="M245.34,407.16l13.71,22.69a1.25,1.25,0,0,0,2.16-1.26L247.5,405.9a1.25,1.25,0,0,0-2.16,1.26Z" style="fill:#ae7461"></path><circle cx="261.93" cy="433.87" r="8.24" transform="translate(-236.62 342.82) rotate(-48.53)" style="fill:#FFC100"></circle><path d="M269.25,415.58a4.56,4.56,0,1,1-4.81-4.3A4.56,4.56,0,0,1,269.25,415.58Z" style="fill:#FFC100"></path><path d="M245.91,428.27a5.84,5.84,0,1,1-6.16-5.5A5.84,5.84,0,0,1,245.91,428.27Z" style="fill:#FFC100"></path><path d="M297,390.72c-4.71,9.21-4.74,19.19-2.19,29.22s12.41,23.35,15.26,25.61C315.55,426.58,312.73,401.92,297,390.72Z" style="fill:#455a64"></path><path d="M297,390.94a9,9,0,0,1,.26,1.37c.16,1,.35,2.25.59,3.75.51,3.16,1.32,7.51,2.48,12.26s2.43,9,3.43,12l1.2,3.6a6.69,6.69,0,0,1,.39,1.34,7.49,7.49,0,0,1-.58-1.27c-.35-.83-.82-2-1.36-3.55a121.44,121.44,0,0,1-5.92-24.34c-.22-1.6-.36-2.89-.43-3.78A6.19,6.19,0,0,1,297,390.94Z" style="fill:#263238"></path><path d="M270.84,368s9.58-4.09,11.7-3.69c1.82.35,4.28,2.88,4,4.45a19.62,19.62,0,0,1-1.2,3.6l-.87-3.48-2-.87-18.37,8.92,2.76-6.27Z" style="fill:#FFC100"></path><polygon points="266.21 382.09 268.75 383.31 271.32 382.48 270.28 377.18 268.69 380.93 266.21 382.09" style="fill:#FFC100"></polygon><path d="M294.21,356.92s9.77-4.46,11.9-4.06c1.82.35,4.28,2.88,4,4.45a19.62,19.62,0,0,1-1.2,3.6l-.87-3.48-2.18-1-18.28,8.85,2.1-5.28Z" style="fill:#FFC100"></path><polygon points="290.77 371.11 293.32 372.33 295.88 371.5 294.85 366.2 293.25 369.95 290.77 371.11" style="fill:#FFC100"></polygon><polygon points="300.73 356.99 303.54 356.81 305.61 358.54 302.65 363.07 302.58 358.99 300.73 356.99" style="fill:#FFC100"></polygon><polygon points="275.95 369.07 278.76 368.89 280.83 370.63 277.87 375.15 277.81 371.07 275.95 369.07" style="fill:#FFC100"></polygon><polygon points="267.76 334.38 291.44 359.94 288.76 364.52 260.1 336.13 267.76 334.38" style="fill:#FFC100"></polygon><polygon points="265.69 341.68 262.12 338.14 269.89 336.36 272.8 339.83 265.69 341.68" style="opacity:0.30000000000000004"></polygon><path d="M206.18,310.55s10.47,21.53,22.4,27.35c0,0,25,1.61,35.35.24,11.63-1.54,22.09-5.11,34.18-13,16.73-11,26.48-22.4,37.25-37.24a72.77,72.77,0,0,0,13.53-41.09A152.43,152.43,0,0,0,345,211.05l-38.7-7-43.64-3.78H245.47L217.82,277.1Z" style="fill:#fff"></path><path d="M344.52,203.2s.05.16.12.49.18.83.31,1.45l1.16,5.6c.42,2.45.94,5.45,1.44,8.94.21,1.75.43,3.63.66,5.61s.32,4.11.5,6.32q.06.82.12,1.68l0,1.73c0,1.16.06,2.35.08,3.56s0,2.45,0,3.71-.08,2.55-.12,3.85a101.08,101.08,0,0,1-2.31,16.52,82.44,82.44,0,0,1-5.93,17.44,89.47,89.47,0,0,1-10.39,16.83,132.23,132.23,0,0,1-13.39,14.57,117.51,117.51,0,0,1-14.33,11.6,103.73,103.73,0,0,1-14.55,8.17c-1.18.57-2.39,1-3.56,1.49s-2.3,1-3.46,1.33c-2.31.75-4.5,1.57-6.66,2.07a97.92,97.92,0,0,1-20.76,3.27c-1.23.12-2.34.08-3.29.1h-3.91c-.33,0-.51,0-.51,0l.51,0,1.49-.05,2.41-.06c1,0,2.06,0,3.29-.14a101.08,101.08,0,0,0,20.67-3.42c2.16-.52,4.33-1.34,6.62-2.1,1.16-.35,2.28-.88,3.45-1.34s2.36-.92,3.53-1.5a103,103,0,0,0,14.46-8.17,116.49,116.49,0,0,0,14.24-11.57,132.2,132.2,0,0,0,13.34-14.52,89.56,89.56,0,0,0,10.34-16.72A83.36,83.36,0,0,0,346,262.55a102.28,102.28,0,0,0,2.34-16.43c0-1.31.09-2.58.13-3.84s.11-2.49.06-3.7,0-2.39-.06-3.55l0-1.72c0-.57-.07-1.13-.11-1.68-.16-2.21-.24-4.32-.46-6.31s-.43-3.85-.62-5.6c-.47-3.49-1-6.49-1.35-8.94s-.81-4.31-1.06-5.62c-.11-.62-.2-1.11-.26-1.46A4.68,4.68,0,0,1,344.52,203.2Z" style="fill:#263238"></path><path d="M245.47,200.29s-15.05,11.46-21.16,22-25.41,64.5-28.83,77.7-5.87,21.75-7.09,28.59-5.62,28.83-5.62,28.83,10.51-.73,16.37-13.19,12.22-32.5,12.22-32.5L241.42,266l16.12-41.54Z" style="fill:#e0e0e0"></path><path d="M245.47,200.29s-15.05,11.46-21.16,22-25.41,64.5-28.83,77.7-5.87,21.75-7.09,28.59-5.62,28.83-5.62,28.83a24.78,24.78,0,0,0,17.64-14.22c8.4-18.33,9.62-31.6,9.62-31.6L241.42,266l16.12-41.54Z" style="opacity:0.30000000000000004"></path><path d="M348.19,225.57c-1.7-12.75-1.94-14.22-3.79-22.9-2.1-9.91-16.69-36-23-43.06s-19-16.69-31.71-19-46.06,1-52.4,21.36l3.2,11.69s4.48,7.69,5,11.27,0,15.38,0,15.38,14.73,11.46,19.07,19.14c4.14,7.33,7.18,12.25,13.64,25.41,2.6,5.31,5,9.56,9,13.89a24.16,24.16,0,0,0,17.42,7.73c5.62,0,8.94-2.32,11.36-7.6,4.44-9.66,2.28-18,5.66-19.81,5.26-2.87,6,6.07,7.27,8.51l1.4,2.8c3.84,7.64,8.77,6.88,12.47,4.58,3.54-2.19,4.62-7.91,5.4-12S349.26,233.57,348.19,225.57Z" style="fill:#FFC100"></path><path d="M343.86,200.6c-3-9.69-16.15-34-22.49-41s-19-16.69-31.71-19c-10-1.85-32.91-.15-45.24,10.66.14.06,5.84,2.26,15.82,1.72,2.67-.15,5.23-.51,7.66-.89,6.72-1.05,16.33-4.58,20.08-1.42,8.88,7.49-16.28,9.43-15.77,12.12s.2,5.32,15.08,5.46,26.14,2,34.88,7.37c9.21,5.64,13.79,12.6,17.5,18.45C341.25,196.56,342.66,198.75,343.86,200.6Z" style="opacity:0.4"></path><path d="M271.41,151.9a19.23,19.23,0,0,1,8.49-3.23,11.7,11.7,0,0,1,8.61,2.4,3.5,3.5,0,0,1,1.2,1.57,1.6,1.6,0,0,1-.5,1.81c-.78.53-1.82,0-2.64-.43a17.32,17.32,0,0,0-6.59-2.24,10.12,10.12,0,0,0-6.69,1.52" style="fill:#FFC100"></path><path d="M283.88,148.79c0,.09-1-.06-2.6,0a17,17,0,0,0-6,1.41,16.82,16.82,0,0,0-5.08,3.51c-1.12,1.13-1.67,2-1.75,1.91s.09-.24.32-.63a11.13,11.13,0,0,1,1.16-1.54,15.27,15.27,0,0,1,11.34-5,10.73,10.73,0,0,1,1.92.17A2.17,2.17,0,0,1,283.88,148.79Z" style="fill:#263238"></path><path d="M211.29,310.32s-10.7,47.11-13.38,56.21-24.1,58.36-23.83,68.27,5.36,14.46,12,12.58l2.68-1.6s2.94,7.49,6.15,4.82,2.95-12.86,6.7-27.31,16.33-47.66,23.56-57.83,17.65-27,17.65-27Z" style="fill:#fff"></path><g style="opacity:0.2"><path d="M213.63,375.53c-1.83,1.31-5.14,2.76-7,1.5-1.27-.87-1.38-2.2-1.48-3.74-.32-4.62,1-9.8,2.67-14.11a25.64,25.64,0,0,0-3.43,5c.68-8.11,3.16-16,5.26-23.87s.42-16.6.36-24.38c-2.92,12.75-10,43.45-12.1,50.61-2.68,9.1-24.1,58.36-23.83,68.27s5.36,14.46,12,12.58l2.68-1.6s2.94,7.49,6.15,4.82,2.95-12.86,6.7-27.31,16.33-47.66,23.56-57.83c.22-.32.45-.65.69-1h0C221.5,367.7,218.07,372.36,213.63,375.53Z"></path></g><polygon points="240.22 333.27 271.3 368.49 267.01 371.35 233.1 334.61 240.22 333.27" style="fill:#FFC100"></polygon><path d="M254.67,289.44a4.87,4.87,0,0,1-.22-1.05c-.12-.68-.24-1.67-.35-2.9a52.05,52.05,0,0,1,.09-9.62,53.47,53.47,0,0,1,1.81-9.46c.35-1.18.66-2.13.91-2.77a4.94,4.94,0,0,1,.43-1c.08,0-.38,1.47-1,3.85a63.53,63.53,0,0,0-1.89,19C254.58,287.92,254.76,289.43,254.67,289.44Z"></path><path d="M256.74,292.9a11.19,11.19,0,0,1,.09-4.82,11.38,11.38,0,0,1,1.65-4.53c.14.06-.66,2.05-1.13,4.63S256.9,292.9,256.74,292.9Z"></path><path d="M261.74,296.6a12.34,12.34,0,0,1-1.11-4.61,12.21,12.21,0,0,1,.24-4.74c.16,0,0,2.12.28,4.69S261.89,296.56,261.74,296.6Z"></path><path d="M239.49,273.82c-4.79-7.88-2.66-19.23,4.67-24.84-.78,2.2-4,2.8-5.86,1.42s-2.43-4.06-1.85-6.32a13.64,13.64,0,0,1,3.71-5.84l-3.23,1.91a70.49,70.49,0,0,1,14-22.48l-8.06,3.46s2.22-6.39,4.17-7.78-1.95-1.95-1.95-1.95l2.37-7.13s11.54,11.3,14.6,19.92S239.49,273.82,239.49,273.82Z" style="fill:#fff"></path><path d="M212.67,264.59c0-.09,1.3-.15,3.35-.47A34.43,34.43,0,0,0,230.89,258c1.69-1.22,2.64-2.09,2.71-2a4.06,4.06,0,0,1-.61.68,21.36,21.36,0,0,1-1.88,1.64,30.2,30.2,0,0,1-15,6.2,20.06,20.06,0,0,1-2.48.16A3.61,3.61,0,0,1,212.67,264.59Z" style="fill:#263238"></path><path d="M193.25,308.45a2.45,2.45,0,0,1,.17-.53c.15-.4.33-.89.56-1.48s.58-1.42,1-2.32.85-1.91,1.39-3a163.58,163.58,0,0,1,9.43-16.75,181.92,181.92,0,0,1,11.13-15.69c1.53-1.92,2.83-3.43,3.75-4.46l1.08-1.16c.25-.26.38-.39.4-.38a3.07,3.07,0,0,1-.32.45l-1,1.23c-.87,1.06-2.12,2.6-3.61,4.55-3,3.89-6.95,9.42-11,15.74s-7.35,12.24-9.54,16.64c-.55,1.09-1,2.09-1.45,3s-.79,1.64-1.05,2.27l-.66,1.45A2.3,2.3,0,0,1,193.25,308.45Z" style="fill:#263238"></path><path d="M182.77,357.38a.93.93,0,0,1,0-.27c0-.2.09-.46.14-.77.13-.68.32-1.69.6-3a103.27,103.27,0,0,1,3-10.76,95.47,95.47,0,0,1,6.65-15.17,132.37,132.37,0,0,1,11.13-16.95c4.36-5.74,9-10.84,13.15-15.44s8-8.71,11.12-12.26,5.5-6.49,7.1-8.59c.82-1,1.41-1.86,1.84-2.41l.48-.62a1.32,1.32,0,0,1,.18-.21s0,.09-.14.24l-.44.65c-.4.57-1,1.43-1.76,2.48-1.55,2.13-3.92,5.12-7,8.7s-6.85,7.73-11,12.34-8.75,9.72-13.09,15.44a136,136,0,0,0-11.13,16.86,99,99,0,0,0-6.72,15.06c-1.56,4.44-2.51,8.14-3.16,10.69-.29,1.25-.52,2.23-.69,2.95-.07.31-.14.56-.19.76A.77.77,0,0,1,182.77,357.38Z" style="fill:#263238"></path><path d="M189.3,324.09a2.7,2.7,0,0,1,.28-.59l.9-1.65c.39-.72.88-1.59,1.49-2.58s1.27-2.13,2.07-3.35c1.56-2.47,3.55-5.32,5.83-8.44s4.94-6.43,7.8-9.84c5.73-6.82,11.22-12.73,15.18-17l4.71-5.05,1.3-1.35a3.13,3.13,0,0,1,.48-.45,2.54,2.54,0,0,1-.4.52l-1.23,1.42c-1.12,1.27-2.68,3-4.59,5.16-3.89,4.35-9.33,10.29-15.05,17.1-2.86,3.41-5.49,6.72-7.82,9.8s-4.31,5.91-5.9,8.35c-.82,1.21-1.51,2.33-2.13,3.3s-1.15,1.83-1.56,2.53-.73,1.19-1,1.6A3.92,3.92,0,0,1,189.3,324.09Z" style="fill:#263238"></path><path d="M191.58,313.35a1.84,1.84,0,0,1,.24-.48c.21-.35.46-.78.78-1.3.68-1.13,1.71-2.74,3-4.7,2.62-3.92,6.44-9.2,10.89-14.86s8.67-10.62,11.8-14.14c1.56-1.77,2.85-3.18,3.75-4.14.43-.44.77-.8,1.05-1.1s.38-.37.4-.35a2.51,2.51,0,0,1-.32.43l-1,1.16-3.63,4.24c-3.05,3.58-7.22,8.58-11.67,14.22s-8.3,10.89-11,14.75c-1.36,1.93-2.43,3.5-3.16,4.6l-.86,1.25A3.13,3.13,0,0,1,191.58,313.35Z" style="fill:#263238"></path><path d="M238.19,271s0,.1-.14.24a2.89,2.89,0,0,1-.51.61,6.71,6.71,0,0,1-2.49,1.51,14.53,14.53,0,0,1-4.24.77c-.81,0-1.66,0-2.53,0a17.72,17.72,0,0,1-2.74-.24,3.3,3.3,0,0,1-2.34-1.6,4.88,4.88,0,0,1-.25-2.61,20,20,0,0,1,.85-4.21,18.3,18.3,0,0,1,1.06-2.69,3.38,3.38,0,0,1,.55-.91c.08,0-.62,1.37-1.26,3.7a22.78,22.78,0,0,0-.72,4.15,4.5,4.5,0,0,0,.23,2.34,2.76,2.76,0,0,0,2,1.32c3.59.45,7,.37,9.28-.38A8,8,0,0,0,238.19,271Z" style="fill:#263238"></path><path d="M313.9,196.43a3,3,0,0,1-.94-.16,22.5,22.5,0,0,1-2.51-.71,38.61,38.61,0,0,1-14.63-8.84,23.09,23.09,0,0,1-1.8-1.89c-.4-.46-.61-.73-.58-.76s1,.93,2.63,2.38a46.49,46.49,0,0,0,6.84,5.07,48.42,48.42,0,0,0,7.66,3.7C312.62,196,313.93,196.35,313.9,196.43Z" style="fill:#263238"></path><path d="M321,195.13a3.47,3.47,0,0,1-.92-.15c-.59-.13-1.43-.35-2.46-.65a58.56,58.56,0,0,1-7.86-3,59.69,59.69,0,0,1-7.35-4c-.9-.59-1.62-1.09-2.09-1.45a3.61,3.61,0,0,1-.72-.61,30,30,0,0,1,3,1.74c1.84,1.09,4.42,2.52,7.38,3.89a82.91,82.91,0,0,0,7.75,3.07A31.18,31.18,0,0,1,321,195.13Z" style="fill:#263238"></path><path d="M330.32,194.06a5.74,5.74,0,0,1-2-.08,24.31,24.31,0,0,1-4.65-1.09,23.79,23.79,0,0,1-4.36-2,6.33,6.33,0,0,1-1.63-1.14c.09-.14,2.66,1.44,6.15,2.61S330.34,193.9,330.32,194.06Z" style="fill:#263238"></path><path d="M240.08,342.17a2.82,2.82,0,0,1-.23.66c-.2.47-.46,1.09-.77,1.85L238.5,346c-.24.48-.49,1-.77,1.55l-.89,1.77c-.34.61-.72,1.25-1.11,1.92A77.55,77.55,0,0,1,220.34,370a68.41,68.41,0,0,1-5.41,4.36c-.91.66-1.83,1.28-2.76,1.84a10.31,10.31,0,0,1-3,1.27,3.5,3.5,0,0,1-3.06-.51,3.81,3.81,0,0,1-1.18-2.68,25.92,25.92,0,0,1,.32-5.12,31.62,31.62,0,0,1,1.94-7.11c.33-.81.62-1.43.83-1.83a4.22,4.22,0,0,1,.34-.62,3.06,3.06,0,0,1-.25.66c-.17.42-.43,1.05-.73,1.86a34.13,34.13,0,0,0-1.76,7.1,26.1,26.1,0,0,0-.26,5,3.33,3.33,0,0,0,1,2.36,3,3,0,0,0,2.67.4c1.94-.47,3.71-1.79,5.52-3.05a67.49,67.49,0,0,0,5.36-4.34,80.69,80.69,0,0,0,15.43-18.54c.39-.67.78-1.3,1.13-1.9l.92-1.75.81-1.51c.22-.48.43-.91.61-1.31l.86-1.81A3.78,3.78,0,0,1,240.08,342.17Z" style="fill:#263238"></path><path d="M206.29,376.77a3.46,3.46,0,0,1-.22.7l-.74,2c-.68,1.75-1.62,4.2-2.78,7.19-2.34,6.08-5.69,14.44-8.78,23.88-1.53,4.72-2.8,9.28-3.72,13.48a81.57,81.57,0,0,0-1.6,11.28,60.36,60.36,0,0,0,.11,7.69c.08.86.15,1.56.21,2.08a5.76,5.76,0,0,1,0,.74,3.74,3.74,0,0,1-.15-.72c-.07-.53-.18-1.22-.31-2.08a54.26,54.26,0,0,1-.27-7.73,76.93,76.93,0,0,1,1.5-11.36,132.55,132.55,0,0,1,3.7-13.54c3.1-9.46,6.49-17.81,8.92-23.85l3-7.14.82-1.93C206.17,377,206.28,376.77,206.29,376.77Z" style="fill:#263238"></path><path d="M205.37,366.49a4.49,4.49,0,0,1-.23.84c-.18.55-.42,1.36-.78,2.38-.7,2.06-1.81,5-3.31,8.59s-3.41,7.8-5.57,12.45-4.56,9.77-6.85,15.22a127,127,0,0,0-5.5,15.73,78.09,78.09,0,0,0-2.49,13.35,61.78,61.78,0,0,0-.19,9.16c0,1.09.15,1.92.18,2.49a4.49,4.49,0,0,1,0,.88,6.31,6.31,0,0,1-.14-.87c-.06-.56-.22-1.4-.28-2.48a55.06,55.06,0,0,1,0-9.21,75.5,75.5,0,0,1,2.39-13.45,123.85,123.85,0,0,1,5.48-15.8c2.29-5.47,4.71-10.57,6.89-15.22s4.14-8.83,5.67-12.39,2.7-6.48,3.46-8.52q.54-1.47.87-2.34A5.91,5.91,0,0,1,205.37,366.49Z" style="fill:#263238"></path><path d="M213.87,246.77s7.82-20.34,10.91-25.32c3.4-5.49,8.06-12.9,20.69-21.16a75.49,75.49,0,0,0-.27-12.95c-.92-6.75-4.74-13.7-4.74-13.7s.16.14,4.39,7.19,5.57,21.79,4.22,22.4c0,0-15.17,7.56-21.5,17.79C223.17,228.13,213.87,246.77,213.87,246.77Z" style="fill:#fff"></path><path d="M236.93,240.15a4.14,4.14,0,0,1,.29-1c.21-.64.56-1.54,1-2.65a72,72,0,0,1,9.73-16c.76-.93,1.41-1.65,1.87-2.14a4,4,0,0,1,.77-.71c.06.05-.91,1.17-2.35,3.08a92.47,92.47,0,0,0-5.23,7.73,91.06,91.06,0,0,0-4.45,8.2C237.56,238.8,237,240.18,236.93,240.15Z" style="fill:#fff"></path><path d="M236.28,244.84a5,5,0,0,1,.44-1.81,16.11,16.11,0,0,1,2.14-4,16.29,16.29,0,0,1,3.15-3.24,5.16,5.16,0,0,1,1.6-1,35.63,35.63,0,0,0-4.33,4.51A34.19,34.19,0,0,0,236.28,244.84Z" style="fill:#fff"></path><path d="M246.22,252.3a10.16,10.16,0,0,1,.24-2.57,37.89,37.89,0,0,1,1.55-6,37.15,37.15,0,0,1,2.52-5.7,9.6,9.6,0,0,1,1.4-2.16,15.92,15.92,0,0,1-1.08,2.33,57.46,57.46,0,0,0-2.35,5.7,56.67,56.67,0,0,0-1.68,5.94A16,16,0,0,1,246.22,252.3Z"></path><path d="M248.32,258.64a9.74,9.74,0,0,1-.2-2.73,31,31,0,0,1,2.94-12.83,9.85,9.85,0,0,1,1.37-2.37,25.49,25.49,0,0,1-1,2.52,40.91,40.91,0,0,0-2,6.22,40.17,40.17,0,0,0-.91,6.47A23.23,23.23,0,0,1,248.32,258.64Z"></path><path d="M252.9,262.79a6.36,6.36,0,0,1-.53-2,30.33,30.33,0,0,1-.12-9.82,6.43,6.43,0,0,1,.48-2c.16,0-.36,3.09-.3,6.89S253.05,262.76,252.9,262.79Z"></path><g style="opacity:0.30000000000000004"><path d="M210,310.71a122.6,122.6,0,0,0-26.3,45.78c5.75-1.66,10.43-6,13.62-11.07s5-10.82,6.71-16.57,3.2-11.57,5.81-16.94"></path></g><path d="M215.48,305.93a2.94,2.94,0,0,1-.43.46l-1.29,1.24c-.57.53-1.25,1.18-2,2s-1.68,1.65-2.61,2.68-2,2.12-3,3.36-2.16,2.58-3.32,4c-2.25,2.89-4.59,6.17-6.84,9.75s-4.12,7.15-5.72,10.44c-.76,1.67-1.51,3.24-2.12,4.75s-1.19,2.91-1.67,4.21-.89,2.49-1.25,3.53-.66,1.94-.88,2.68l-.54,1.71a2.77,2.77,0,0,1-.22.58,2.39,2.39,0,0,1,.12-.61c.12-.45.26-1,.45-1.73s.44-1.67.79-2.72.69-2.26,1.18-3.56,1-2.75,1.62-4.25,1.33-3.11,2.09-4.79a111.48,111.48,0,0,1,5.71-10.52,108.15,108.15,0,0,1,6.91-9.76c1.17-1.42,2.26-2.79,3.37-4s2.12-2.34,3.09-3.33,1.88-1.87,2.68-2.64,1.5-1.4,2.09-1.91l1.35-1.17A3.66,3.66,0,0,1,215.48,305.93Z" style="fill:#263238"></path><path d="M212,377.25a4.82,4.82,0,0,1-.29.74c-.23.51-.53,1.2-.92,2.05-.82,1.84-2,4.4-3.41,7.55a201.64,201.64,0,0,0-9.76,25.47,92.72,92.72,0,0,0-4,26.87,70.7,70.7,0,0,0,.57,8.24c.1,1,.25,1.71.31,2.22a4.15,4.15,0,0,1,.08.79,5.57,5.57,0,0,1-.18-.77c-.1-.5-.28-1.24-.41-2.21a61.43,61.43,0,0,1-.73-8.27,89.05,89.05,0,0,1,3.85-27,183.75,183.75,0,0,1,9.93-25.47c1.47-3.18,2.7-5.73,3.56-7.48l1-2A4.2,4.2,0,0,1,212,377.25Z" style="fill:#263238"></path><path d="M183.76,436.43a6.74,6.74,0,0,1-.09-2.58,6.45,6.45,0,0,1,.44-2.55,6.63,6.63,0,0,1,.08,2.58A6.35,6.35,0,0,1,183.76,436.43Z" style="fill:#263238"></path><path d="M185.3,435.23a5.11,5.11,0,0,1-.09-2.32,5.17,5.17,0,0,1,.43-2.29,10.39,10.39,0,0,1-.34,4.61Z" style="fill:#263238"></path><path d="M206.36,358.43a5.45,5.45,0,0,1-.34,1.12c-.3.8-.67,1.81-1.11,3l-.47,1.28.13-1.36a85,85,0,0,1,1.79-11.2,86.56,86.56,0,0,1,3.14-10.67c.49-1.33.93-2.4,1.24-3.13a6.19,6.19,0,0,1,.55-1.11,6.07,6.07,0,0,1-.36,1.19l-1.08,3.18c-.9,2.68-2,6.44-3,10.65s-1.59,8.32-2,11.12l-.34-.08c.5-1.17.92-2.16,1.25-2.95A4.55,4.55,0,0,1,206.36,358.43Z" style="fill:#263238"></path><path d="M231.78,254.52s-.15.24-.49.61a20.08,20.08,0,0,1-1.55,1.47,27.6,27.6,0,0,1-12.6,6,19.38,19.38,0,0,1-2.12.29c-.5,0-.78,0-.78,0a28,28,0,0,1,2.82-.65A34.18,34.18,0,0,0,223.6,260a33.46,33.46,0,0,0,5.9-3.65C230.91,255.22,231.72,254.46,231.78,254.52Z" style="fill:#fff"></path><path d="M212.33,271.52a12,12,0,0,1-1.26,2.1c-.82,1.26-1.95,3-3.15,5s-2.25,3.75-3,5.05a13.58,13.58,0,0,1-1.3,2.08,10.48,10.48,0,0,1,1-2.25c.68-1.35,1.68-3.19,2.88-5.16s2.39-3.69,3.29-4.9A10.47,10.47,0,0,1,212.33,271.52Z" style="fill:#fff"></path><path d="M211.68,282.75a7.46,7.46,0,0,1-1.49,2.28c-.94,1.17-1.79,2.05-1.9,2a7.23,7.23,0,0,1,1.49-2.28C210.72,283.54,211.57,282.66,211.68,282.75Z" style="fill:#fff"></path><path d="M214.65,288.05c.11.09-.22.73-.75,1.43s-1,1.2-1.16,1.11.22-.72.75-1.42S214.53,288,214.65,288.05Z" style="fill:#fff"></path><path d="M313.37,161.36a4,4,0,0,1-1,0c-.66,0-1.61-.1-2.81-.24a48.34,48.34,0,0,1-9.42-2.15l.19-.47c1.25.59,2.57,1.27,3.88,2.05a45,45,0,0,1,4.55,3.08l.63.49-.79,0a24.67,24.67,0,0,1-8.67-2.05,22.73,22.73,0,0,1-2.29-1.18,3.72,3.72,0,0,1-.76-.53c0-.06,1.15.61,3.17,1.42a26,26,0,0,0,8.57,1.84l-.16.45a47.32,47.32,0,0,0-4.52-3c-1.3-.77-2.59-1.45-3.83-2l.19-.47a55.8,55.8,0,0,0,9.31,2.31c1.18.19,2.12.31,2.78.39A4.94,4.94,0,0,1,313.37,161.36Z" style="fill:#263238"></path><path d="M270.49,161.68a2.34,2.34,0,0,1,0-1c.35-1.83,2.1-8.47,9.26-9.91,6.13-1.24,9.84,5.13,10.79,7a2.39,2.39,0,0,1,.25,1.09c0,2.14-.73,9.47-9.38,9.82S270.87,163.4,270.49,161.68Z" style="fill:#fff"></path><path d="M271.62,161.59a1.09,1.09,0,0,1,0-.44c.2-1.22,1.57-7.56,8.16-8.89,5.64-1.14,8.94,5.06,9.56,6.35a1.08,1.08,0,0,1,.12.5c0,1.46-.26,8.54-8.23,8.86S271.84,162.79,271.62,161.59Z" style="fill:#263238"></path><path d="M280.05,154.52a3.61,3.61,0,0,0-2.84.67,2.52,2.52,0,0,0-.87,2.9,2.47,2.47,0,0,0,1.37,1.23,3.22,3.22,0,0,0,2.9-.13,3,3,0,0,0,1.38-2.74,2.15,2.15,0,0,0-2-2" style="fill:#fff"></path><path d="M292.1,140.87a4.46,4.46,0,0,1-.63-.15c-.4-.12-1-.29-1.77-.45a31.29,31.29,0,0,0-6.69-.71,59.1,59.1,0,0,0-9.95.87,116.15,116.15,0,0,0-12,2.54,49.58,49.58,0,0,0-11.31,4.57,29.47,29.47,0,0,0-7.65,6.3,28.18,28.18,0,0,0-3.77,5.56c-.72,1.42-1,2.24-1.08,2.22a3,3,0,0,1,.19-.61c.13-.4.38-1,.71-1.7a25.76,25.76,0,0,1,3.67-5.71,29.08,29.08,0,0,1,7.69-6.48,48.71,48.71,0,0,1,11.41-4.65A107.56,107.56,0,0,1,273,140a56.87,56.87,0,0,1,10-.77,29.06,29.06,0,0,1,6.72.88,14.16,14.16,0,0,1,1.76.55A2.3,2.3,0,0,1,292.1,140.87Z" style="fill:#fff"></path><path d="M240.08,162.57s-9.53-.33-13.54.07-8,5.39-8,5.39l4.55.63s7.35,2.51,10.91,3.56,12.38.95,17.21,0,5.87-4,5.87-4Z" style="fill:#263238"></path><path d="M218.55,168a10.65,10.65,0,0,1,1.67-.09l4.54-.11c3.83-.08,9.13-.33,15-.22s11.16.22,15,.33l4.54.16a9.9,9.9,0,0,1,1.67.13,9.72,9.72,0,0,1-1.67.07h-4.55c-3.83,0-9.13-.08-15-.18s-11.14.08-15,.07c-1.92,0-3.48,0-4.55-.05A10.82,10.82,0,0,1,218.55,168Z" style="fill:#455a64"></path><path d="M218.94,167.54s3.71-4.67,7.6-4.9S237,162.1,237,162.1s.5-1.24.69-1.84a20.21,20.21,0,0,1,1.12-2.35l-1.21,5.41c-1,.39-9.61,0-11.84.65S218.94,167.54,218.94,167.54Z" style="fill:#fff"></path><g style="opacity:0.30000000000000004"><path d="M274.2,199.09c-.11-3.31-2.67-6.05-4.46-8.83l-.27,4.68L263,182.33a9.37,9.37,0,0,1-.92,5.1,28.94,28.94,0,0,0-8.66-9.23c.64,3.08,1.28,6.15,1.91,9.23-5.91-3.31-11.92-7.7-14.89-13.79,4.71,9.14,7.24,16.1,6.66,26.37,0,0-3.09,1.63,1.16,3.63s9,3.67,13.73,3.63C271.47,207.17,274.37,204.27,274.2,199.09Z" style="fill:#fff"></path></g><path d="M255.57,187.7c-.15.05-1-2.43-2.48-5.25s-3.08-4.89-3-5a21.62,21.62,0,0,1,5.44,10.24Z" style="fill:#263238"></path><path d="M262,187.7a39.11,39.11,0,0,1-2.38-3.78,42.83,42.83,0,0,1-2.43-3.74,12.32,12.32,0,0,1,2.87,3.46A12.76,12.76,0,0,1,262,187.7Z" style="fill:#263238"></path><path d="M269.69,189.32a30.78,30.78,0,0,1-.27,4.54l-.06.72L269,194c-.64-1.1-1.34-2.33-2.09-3.63-1.19-2.1-2.23-4-3-5.42a12.41,12.41,0,0,1-1.1-2.32,12.84,12.84,0,0,1,1.42,2.14c.82,1.35,1.92,3.24,3.1,5.34.73,1.32,1.42,2.55,2,3.67l-.42.08A29,29,0,0,1,269.69,189.32Z" style="fill:#263238"></path><path d="M289.26,247.3a7.08,7.08,0,0,1-1.23-1.73,30.58,30.58,0,0,1-2.25-4.58,31.76,31.76,0,0,1-1.48-4.9A7.59,7.59,0,0,1,284,234c.16,0,.78,3.13,2.23,6.81S289.39,247.21,289.26,247.3Z" style="fill:#263238"></path><path d="M295.74,253.15a8.87,8.87,0,0,1-1.49-1.84,39.38,39.38,0,0,1-2.91-4.89,40.18,40.18,0,0,1-2.17-5.27,8.45,8.45,0,0,1-.57-2.29c.15-.05,1.22,3.38,3.21,7.33S295.87,253.05,295.74,253.15Z" style="fill:#263238"></path><path d="M301.47,291.68a4.33,4.33,0,0,1-.37.55c-.26.35-.63.88-1.14,1.52-1,1.31-2.54,3.15-4.56,5.3a85.89,85.89,0,0,1-17.9,14.51l-.27.16-.91.56.56-.92,4.43-7.37.4.3a49.3,49.3,0,0,1-13.42,10.36,43.19,43.19,0,0,1-4.49,2.06c-.54.22-1,.35-1.24.45a2.25,2.25,0,0,1-.44.13s.13-.09.4-.21l1.21-.53c1-.46,2.57-1.16,4.41-2.17A51.41,51.41,0,0,0,281.34,306l.4.3-4.42,7.38-.36-.36.27-.16a90.33,90.33,0,0,0,17.9-14.31c2-2.12,3.61-3.91,4.67-5.18.5-.6.9-1.08,1.22-1.45A3,3,0,0,1,301.47,291.68Z"></path><g style="opacity:0.4"><path d="M298.53,189.34a35.32,35.32,0,0,0,24.09,16.15l-3.14-4.84A39.45,39.45,0,0,1,333,207.57a12,12,0,0,0-3.1-8.94,37.33,37.33,0,0,1,9.1,5.15c.09-2.89-2-5.49-4.47-6.94s-5.41-2-8.24-2.59-5.72-1.34-8-3.11l3.6,4.16A46.05,46.05,0,0,1,310,191.93a13.84,13.84,0,0,0,5,5.07l-12.85-5.88"></path></g><path d="M190.53,394.79a6.66,6.66,0,0,1-.58,1.36l-1.73,3.64c-1.46,3.07-3.48,7.32-5.43,12.12-1,2.4-1.82,4.72-2.53,6.85s-1.26,4.07-1.65,5.73c-.21.82-.37,1.57-.51,2.23s-.27,1.23-.34,1.69a7.91,7.91,0,0,1-.33,1.45,8.51,8.51,0,0,1,.13-1.48c0-.47.13-1.05.25-1.72s.25-1.43.44-2.26c.35-1.67.9-3.63,1.56-5.79s1.52-4.48,2.49-6.9c2-4.82,4-9,5.59-12.08.78-1.52,1.42-2.73,1.88-3.57A8.33,8.33,0,0,1,190.53,394.79Z" style="fill:#fff"></path><path d="M191.06,406.71a73.13,73.13,0,0,1-1.79,8.56,73,73,0,0,1-2.29,8.44,72.68,72.68,0,0,1,1.79-8.56A74.7,74.7,0,0,1,191.06,406.71Z" style="fill:#fff"></path><path d="M194.89,416.16a5.23,5.23,0,0,1-.38,2.28,5.08,5.08,0,0,1-.88,2.13,5.55,5.55,0,0,1,.38-2.27A5.32,5.32,0,0,1,194.89,416.16Z" style="fill:#fff"></path><path d="M252.8,290.29a13.26,13.26,0,0,1-.59-2.91,57.92,57.92,0,0,1-.54-7.15,55.73,55.73,0,0,1,.32-7.15,14,14,0,0,1,.49-2.93,19.83,19.83,0,0,1-.12,3c-.11,1.82-.22,4.34-.17,7.12s.22,5.29.39,7.11A24.13,24.13,0,0,1,252.8,290.29Z" style="fill:#fff"></path><path d="M274.82,302.88a3.67,3.67,0,0,1-.39-.76,21.2,21.2,0,0,1-.81-2.22,23.3,23.3,0,0,1-.93-8.16l.48.06c-.34,1.85-.72,3.87-1.11,6-.34,1.78-.67,3.49-1,5.07l-.21,1.09-.28-1.07a33.91,33.91,0,0,1-1.08-8.79,24.44,24.44,0,0,1,.14-2.56,3.1,3.1,0,0,1,.15-.91c.07,0,0,1.29,0,3.46a37.7,37.7,0,0,0,1.25,8.67l-.48,0c.29-1.59.61-3.3.95-5.08.4-2.1.79-4.12,1.14-6l.49.06a24.82,24.82,0,0,0,.73,8.05C274.41,301.76,274.89,302.85,274.82,302.88Z" style="fill:#fff"></path><polygon points="237.16 339.14 243.97 337.52 240.29 333.34 233.27 334.78 237.16 339.14" style="opacity:0.30000000000000004"></polygon><path d="M242.64,330.48a1.63,1.63,0,0,1-.2.89,4,4,0,0,1-1.74,1.74,11,11,0,0,1-3.47,1.13,32.8,32.8,0,0,1-4.39.56,33.52,33.52,0,0,1-8-.48c-1-.19-1.82-.39-2.37-.55a2.57,2.57,0,0,1-.84-.31c0-.08,1.25.22,3.27.5a40.46,40.46,0,0,0,7.92.32,38.63,38.63,0,0,0,4.34-.51,11.32,11.32,0,0,0,3.37-1,4,4,0,0,0,1.74-1.52C242.54,330.79,242.59,330.47,242.64,330.48Z" style="fill:#263238"></path><path d="M240.27,173a2,2,0,0,1,.24.52c.16.39.36.91.61,1.55.51,1.36,1.24,3.36,2.07,5.89a66.92,66.92,0,0,1,2.47,9.19,57.81,57.81,0,0,1,.35,12.07v.14l-.13.06a45.21,45.21,0,0,0-10.35,6.88A57.23,57.23,0,0,0,225,221.85a77.23,77.23,0,0,0-6,12c-1.43,3.57-2.4,6.53-3,8.58l-.73,2.37a7.19,7.19,0,0,1-.28.82,4.66,4.66,0,0,1,.18-.85c.13-.55.35-1.36.64-2.39.59-2.08,1.5-5.06,2.9-8.66a75.34,75.34,0,0,1,6-12.16,56.58,56.58,0,0,1,10.62-12.74,45.39,45.39,0,0,1,10.49-6.94l-.14.21a59.86,59.86,0,0,0-.28-12A71.28,71.28,0,0,0,242.9,181c-.8-2.54-1.48-4.54-1.94-5.92-.22-.66-.39-1.18-.53-1.58A5.62,5.62,0,0,1,240.27,173Z" style="fill:#263238"></path></g></svg>