<svg xmlns="http://www.w3.org/2000/svg" viewBox="0 0 500 500"><g id="freepik--background-complete--inject-31"><path d="M500,433.22v.35c-82.65.95-165.53-.62-247.63-11.37l-5.06-.68q-16.65-2.25-33.26-5-18.69-3-37.41-6.27c-1.77-.3-3.55-.61-5.32-.93C134,402.7,96.79,395.32,59.88,387v-.51q45.72,9.76,91.6,18.47,11.6,2.18,23.19,4.3c1.7.32,3.39.63,5.09.93,22.88,4.16,45.81,8.06,68.81,11.17l5,.67q15.61,2,31.28,3.52c60.09,5.48,121.76,7,182.05,7.6q15.84.11,31.7.09Z" style="fill:#dbdbdb"></path><path d="M43.12,243.31v.35q-21.55.26-43.12.23v-.79c3.35.05,6.7.08,10.05.12q15.86.1,31.7.09Z" style="fill:#dbdbdb"></path><path d="M500,255.75v.54q-14.43.73-28.86,1.38c-74.41,3.21-148.94,5.14-223.38,2.06-62.63-3.08-125.55-8.06-187.88-15.88v-.58c62.5,7.17,125.13,13.09,187.9,16.07,74.44,2.68,148.92.19,223.33-2.4C480.7,256.62,490.35,256.19,500,255.75Z" style="fill:#dbdbdb"></path><path d="M500,401.84v.52c-36.88,5.69-74,10.49-111.11,14.5-3.35.37-6.69.72-10,1.07q-34.56,3.61-69.09,6.33c-43.28,3.17-86.63,4.7-130,5.3l-3.12,0c-29.39.39-58.8.35-88.19.12-9.48-.14-19-.22-28.57-.35v-.52q14.28.11,28.57.15c27.61,0,55.25,0,82.87-.33l3.35,0c45.05-.49,90.09-1.72,135.06-4.76,24.92-1.93,49.84-4.36,74.73-7.14l11.41-1.29C430.65,411.41,465.38,406.74,500,401.84Z" style="fill:#dbdbdb"></path><path d="M38.21,276.67v.52q-19.07,3-38.21,5.57V282Q19.13,279.39,38.21,276.67Z" style="fill:#dbdbdb"></path><path d="M59.88,278.62v.52q55.32,8.53,111.11,14.5c3.34.37,6.69.72,10,1.07q34.57,3.62,69.09,6.33c43.29,3.17,86.64,4.7,130,5.3l3.11,0c29.4.39,58.81.35,88.2.12,9.48-.14,19-.22,28.57-.35v-.52q-14.28.11-28.57.15c-27.62,0-55.26,0-82.88-.33l-3.34,0c-45-.49-90.1-1.72-135.07-4.76-24.91-1.93-49.83-4.36-74.72-7.14q-5.71-.63-11.41-1.29C129.22,288.19,94.5,283.52,59.88,278.62Z" style="fill:#dbdbdb"></path><path d="M32.16,386.66v.54q-14.43.74-28.86,1.38l-3.3.14V388l3.27-.11C12.87,387.53,22.52,387.1,32.16,386.66Z" style="fill:#dbdbdb"></path><path d="M35.19,429.3v.52c-9.54.13-19.1.21-28.58.35l-6.61,0v-.77H6.61Q20.91,429.41,35.19,429.3Z" style="fill:#dbdbdb"></path><rect x="38.21" y="223.15" width="21.66" height="276.85" style="fill:#dbdbdb"></rect><rect x="59.88" y="239.34" width="6.05" height="7.98" style="fill:#dbdbdb"></rect><rect x="59.88" y="382.48" width="6.05" height="7.98" style="fill:#dbdbdb"></rect><rect x="59.88" y="424.35" width="6.05" height="7.98" style="fill:#dbdbdb"></rect><rect x="32.16" y="239.34" width="6.05" height="7.98" style="fill:#dbdbdb"></rect><rect x="32.16" y="382.48" width="6.05" height="7.98" style="fill:#dbdbdb"></rect><rect x="59.88" y="274.06" width="6.05" height="7.98" style="fill:#dbdbdb"></rect><rect x="32.16" y="274.06" width="6.05" height="7.98" style="fill:#dbdbdb"></rect><rect x="32.16" y="424.35" width="6.05" height="7.98" style="fill:#dbdbdb"></rect><path d="M467.58,348.91c-9.62,0-171.55,1.06-181.73.74-.73,0-1.12-1.1-.39-1.46,6.41-3.17,13.69-2.54,20.35-4.78,3.93-1.32,6.34-3.89,9.06-6.83a18.82,18.82,0,0,1,8.43-5.5,17.83,17.83,0,0,1,9.17-.29c3.28.78,6.14,2.67,9.27,3.85,7.78,2.94,15.34.15,20.89-5.61,4.59-4.74,9.09-9.22,15.32-11.78,5.21-2.14,11-2.58,16.22-.22,5.94,2.69,10,8.1,15.59,11.36,6.62,3.86,14.52,2.95,21.83,4.11s12.91,7.32,19.32,10.87a13.73,13.73,0,0,0,7,2.16c1.43,0,2.84-.42,4.26-.6,2.2-.27,4.29-.21,5.78,1.63C468.29,347,468.22,348.91,467.58,348.91Z" style="fill:#ebebeb"></path><path d="M438.19,77.44c-7,0-125.25.78-132.68.54-.53,0-.82-.8-.29-1.06,4.69-2.32,10-1.85,14.87-3.49,2.86-1,4.62-2.84,6.61-5a13.66,13.66,0,0,1,6.15-4,13.12,13.12,0,0,1,6.7-.21c2.4.58,4.48,2,6.77,2.82,5.68,2.14,11.2.1,15.25-4.1,3.35-3.46,6.63-6.73,11.18-8.6a14.82,14.82,0,0,1,11.84-.16c4.34,2,7.31,5.91,11.39,8.29,4.83,2.82,10.6,2.15,15.93,3s9.43,5.34,14.11,7.92a9.9,9.9,0,0,0,5.1,1.58c1,0,2.07-.31,3.1-.43,1.61-.2,3.14-.16,4.23,1.19C438.71,76.05,438.65,77.44,438.19,77.44Z" style="fill:#ebebeb"></path><path d="M184.23,179.19c-7,0-125.25.77-132.68.54-.53,0-.82-.8-.29-1.07,4.69-2.32,10-1.85,14.87-3.49,2.86-1,4.62-2.84,6.61-5a13.64,13.64,0,0,1,6.15-4,13,13,0,0,1,6.7-.21c2.39.57,4.48,1.94,6.77,2.81,5.67,2.14,11.19.11,15.25-4.1,3.34-3.46,6.63-6.73,11.18-8.6a14.86,14.86,0,0,1,11.84-.16c4.34,2,7.31,5.92,11.39,8.29,4.83,2.83,10.6,2.16,15.93,3s9.43,5.34,14.11,7.93a10.09,10.09,0,0,0,5.1,1.58c1,0,2.07-.31,3.1-.44,1.61-.2,3.14-.15,4.22,1.19C184.75,177.8,184.69,179.19,184.23,179.19Z" style="fill:#ebebeb"></path><path d="M293.4,216.37c-.13.4-186.34,0-184,0,1.08,0-1.62-1.6-.57-2.12,6.06-3,12.69-3.09,19.29-3.7,3.85-.35,7.81-.91,11.27-2.73s5.7-5,8.19-8a35,35,0,0,1,31.8-12c13.24,2.07,23.67,12.16,36.93,14,8,1.12,15.51-2,23.29-3.05,6.41-.89,11.75.36,17.49,3.2,4.2,2.08,8.08,3.83,12.83,4.16,3.64.26,7.3-.16,11-.2A24.53,24.53,0,0,1,297,212.37C297.61,212.89,299.48,216.37,293.4,216.37Z" style="fill:#ebebeb"></path><path d="M328.64,207.36a36.77,36.77,0,0,1,4.47-2.27,19.13,19.13,0,0,1,4.95-1.49,4.28,4.28,0,0,1,1.57.07,1.81,1.81,0,0,1,.49.2l.33.2c.21.13.38.27.56.4A23.74,23.74,0,0,1,343,206.2c1.22,1.2,2.31,2.46,3.4,3.75l-1.27-.35a38.64,38.64,0,0,1,5.05-1.42,20.93,20.93,0,0,1,2.67-.36,8.56,8.56,0,0,1,1.43,0,4.53,4.53,0,0,1,.78.13,6.54,6.54,0,0,1,.79.32,8.81,8.81,0,0,1,2.15,1.81,22.64,22.64,0,0,1,1.65,2,31.79,31.79,0,0,1,2.69,4.42c-1.19-1.25-2.34-2.51-3.55-3.68-.6-.59-1.2-1.17-1.84-1.69a8.46,8.46,0,0,0-1.9-1.28,4.69,4.69,0,0,0-2-.07,19.22,19.22,0,0,0-2.37.49c-1.59.39-3.21.9-4.76,1.43l-.77.27-.5-.63c-1-1.26-2.1-2.5-3.18-3.69a22,22,0,0,0-1.66-1.68c-.14-.12-.28-.25-.42-.35l-.19-.14s0,0-.08-.05a2.41,2.41,0,0,0-.89-.11,24.57,24.57,0,0,0-4.71.77C331.86,206.51,330.26,207,328.64,207.36Z" style="fill:#dbdbdb"></path><path d="M360,228.33a31.46,31.46,0,0,1,2.72-3.16,15.92,15.92,0,0,1,3.33-2.7,3.77,3.77,0,0,1,1.23-.44,2.15,2.15,0,0,1,.44,0,2.24,2.24,0,0,1,.31.05c.21,0,.38.09.57.13a20.39,20.39,0,0,1,2,.72c1.31.53,2.54,1.16,3.79,1.8l-1.09.13a32.92,32.92,0,0,1,3.43-2.68,19.19,19.19,0,0,1,1.94-1.11,6.83,6.83,0,0,1,1.1-.45,4,4,0,0,1,.64-.14,5.55,5.55,0,0,1,.71,0,8,8,0,0,1,2.22.71c.67.32,1.29.68,1.91,1a27.94,27.94,0,0,1,3.45,2.55c-1.3-.58-2.58-1.19-3.88-1.7a19,19,0,0,0-1.94-.72A7.2,7.2,0,0,0,381,222a3.88,3.88,0,0,0-1.58.59,16.66,16.66,0,0,0-1.67,1.11c-1.09.81-2.17,1.71-3.2,2.6l-.51.45-.58-.32c-1.17-.65-2.4-1.26-3.6-1.84a17.43,17.43,0,0,0-1.81-.76,4.28,4.28,0,0,0-.43-.14l-.19,0s0,0-.08,0a2.33,2.33,0,0,0-.72.19,21,21,0,0,0-3.37,2.08C362.16,226.66,361.08,227.5,360,228.33Z" style="fill:#dbdbdb"></path><path d="M111.3,109.3a29.88,29.88,0,0,1,2.37-3.43,16.08,16.08,0,0,1,3-3,3.75,3.75,0,0,1,1.17-.57,2.81,2.81,0,0,1,.44-.05l.32,0c.2,0,.38,0,.57.07.74.13,1.42.31,2.11.5,1.36.39,2.65.88,4,1.39l-1.07.24a33.19,33.19,0,0,1,3.13-3,17.3,17.3,0,0,1,1.8-1.31,8,8,0,0,1,1-.56,5.64,5.64,0,0,1,.62-.21,5.35,5.35,0,0,1,.7-.08,7.63,7.63,0,0,1,2.29.47,18.88,18.88,0,0,1,2,.84,27.4,27.4,0,0,1,3.71,2.16c-1.36-.44-2.7-.9-4.05-1.28a18.27,18.27,0,0,0-2-.5,6.81,6.81,0,0,0-1.89-.19,3.88,3.88,0,0,0-1.51.74,16.71,16.71,0,0,0-1.54,1.29c-1,.92-2,1.93-2.9,2.93l-.47.5-.61-.26c-1.23-.52-2.51-1-3.77-1.44a18.19,18.19,0,0,0-1.88-.57l-.44-.09-.2,0s0,0-.07,0a2,2,0,0,0-.7.27,19.71,19.71,0,0,0-3.14,2.42C113.31,107.4,112.32,108.36,111.3,109.3Z" style="fill:#dbdbdb"></path><path d="M276.37,319.25a43.41,43.41,0,0,1,5.15-3.53,24,24,0,0,1,5.85-2.64,5.18,5.18,0,0,1,1.95-.16,2.49,2.49,0,0,1,.64.16l.43.19c.28.13.51.27.76.41a27.93,27.93,0,0,1,2.68,1.82c1.7,1.27,3.25,2.65,4.81,4.07l-1.63-.24a48.07,48.07,0,0,1,6-2.56,26.81,26.81,0,0,1,3.23-.88,10.85,10.85,0,0,1,1.76-.22,6.53,6.53,0,0,1,1,0,7.4,7.4,0,0,1,1,.26,11.16,11.16,0,0,1,2.94,1.88,29.78,29.78,0,0,1,2.37,2.25,40.18,40.18,0,0,1,4,5c-1.66-1.34-3.29-2.71-5-3.95-.83-.64-1.68-1.25-2.54-1.79a10.62,10.62,0,0,0-2.55-1.27,5.71,5.71,0,0,0-2.5.24,24.5,24.5,0,0,0-2.84,1c-1.9.75-3.81,1.64-5.64,2.54l-.91.46-.72-.69c-1.45-1.39-3-2.74-4.51-4a29,29,0,0,0-2.32-1.8,6.1,6.1,0,0,0-.58-.36l-.26-.14s0,0-.1-.05a3.18,3.18,0,0,0-1.12,0,30.06,30.06,0,0,0-5.68,1.72C280.19,317.67,278.3,318.48,276.37,319.25Z" style="fill:#dbdbdb"></path></g><g id="freepik--bird-5--inject-31"><polygon points="403.65 408.23 434.03 457.99 436.22 443.66 457.71 443.71 415.77 396.64 403.65 408.23" style="fill:#455a64"></polygon><polygon points="415.77 396.64 419.62 400.95 405.37 411 403.64 408.24 415.77 396.64" style="opacity:0.1"></polygon><g style="opacity:0.1"><path d="M405.38,406.58Q416.8,422.3,427,438.87q-11.41-15.72-21.58-32.29Z"></path><path d="M414.11,398.22q13.54,15,25.94,30.88-13.55-14.94-25.94-30.88Z"></path><path d="M409.67,402.47q12.72,15.45,24.24,31.82-12.72-15.45-24.24-31.82Z"></path><path d="M412,400.29q13.16,15.43,25.14,31.81Q423.94,416.68,412,400.29Z"></path><path d="M407.51,404.54q12.19,15.87,23.19,32.62-12.21-15.86-23.19-32.62Z"></path></g><path d="M338.32,358.53S331,343.27,345,332.91s29.45,1.49,29.45,1.49,38.85,5,46.78,34.68c6.9,25.78-10.1,42-30.85,45.58-20.54,3.55-37.55-1.4-44.64-20.93S338.32,358.53,338.32,358.53Z" style="fill:#455a64"></path><path d="M343.2,385.9a27.07,27.07,0,0,0,22.42,8.37c14.56-1.83,29.35-12.83,25.32-31.71a50.94,50.94,0,0,0-16.45-28.15h0l0,0s-.05,0-.08-.05l-.14-.1a1.62,1.62,0,0,1-.19-.13l-.23-.16c-3.11-2.12-16.45-10.1-28.78-1a23.6,23.6,0,0,0-4.12,3.83c-.37.44-.71.88-1,1.33a20.84,20.84,0,0,0-1.25,2c-.24.45-.46.91-.66,1.36a21.2,21.2,0,0,0-.93,2.71q-.18.66-.3,1.32c0,.21-.08.44-.11.66a22.83,22.83,0,0,0,.31,8.11,23.34,23.34,0,0,0,.91,3.13v0l.21.54c.1.26.18.43.22.52l0,.05,0,0v0h0A119.37,119.37,0,0,0,343.2,385.9Z" style="fill:#fff;opacity:0.2"></path><path d="M373,350.8a14.29,14.29,0,0,1-11.66,16.52,17.09,17.09,0,0,1-11-2.33c-3.09-1.82-12-6.46-12-6.46s-3.79-7.86-.73-16.13l18.86-3.26A14.3,14.3,0,0,1,373,350.8Z" style="fill:#fff;opacity:0.5"></path><path d="M356,349.35a4.32,4.32,0,1,1-5-3.52A4.31,4.31,0,0,1,356,349.35Z" style="fill:#263238"></path><polygon points="343.68 352.46 336.4 349.41 325.58 355.59 343.68 352.46" style="fill:#263238"></polygon><polygon points="343.68 352.46 332.47 354.39 337.2 355.35 343.68 352.46" style="fill:#37474f"></polygon><path d="M374.48,334.4l44.83,70.15s21.14-22.3,6.43-45.31S374.48,334.4,374.48,334.4Z" style="fill:#37474f"></path><path d="M421.55,401.83a2,2,0,0,1-.17.23c-9.26-13.83-18.82-28.86-27.23-42.86C403.3,372.7,412.9,387.65,421.55,401.83Z" style="opacity:0.1"></path><path d="M424.2,398l-.2.32c-8.95-13.43-18.13-27.9-26.26-41.41C406.56,369.91,415.8,384.26,424.2,398Z" style="opacity:0.1"></path><path d="M426.59,393.72l-.22.45c-8.56-12.9-17.27-26.68-25-39.57C409.73,367,418.52,380.6,426.59,393.72Z" style="opacity:0.1"></path><path d="M380.18,419.83a5.68,5.68,0,0,1-4.89-2.88c-.7-1.2-1.19-3.56-.11-5.05.53-.74,1.62-1.52,3.8-1.07l-.41,2c-.62-.13-1.43-.19-1.77.28a3.25,3.25,0,0,0,.22,2.87,3.68,3.68,0,0,0,3.16,1.89h0v2Z" style="fill:#263238"></path><path d="M383.11,419.48a5.71,5.71,0,0,1-4.9-2.89c-.69-1.2-1.18-3.56-.11-5,.53-.73,1.63-1.52,3.8-1.06l-.4,1.95c-.63-.12-1.44-.18-1.78.29a3.25,3.25,0,0,0,.23,2.87,3.68,3.68,0,0,0,3.15,1.89h0v2Z" style="fill:#263238"></path><path d="M386,419.13a5.71,5.71,0,0,1-4.89-2.89c-.69-1.2-1.19-3.56-.11-5.05.53-.74,1.62-1.52,3.8-1.07l-.41,2c-.62-.13-1.43-.19-1.77.28a3.3,3.3,0,0,0,.22,2.88,3.71,3.71,0,0,0,3.16,1.89h0v2Z" style="fill:#263238"></path><path d="M365.59,421.24a5.71,5.71,0,0,1-4.89-2.89c-.69-1.2-1.19-3.56-.11-5.05.53-.73,1.62-1.52,3.8-1.07l-.41,2c-.62-.13-1.43-.18-1.77.28a3.3,3.3,0,0,0,.22,2.88,3.71,3.71,0,0,0,3.16,1.89h0v2Z" style="fill:#263238"></path><path d="M368.52,420.89a5.7,5.7,0,0,1-4.89-2.89c-.7-1.2-1.19-3.56-.11-5.05.53-.74,1.62-1.52,3.8-1.07l-.41,2c-.62-.13-1.44-.19-1.77.28a3.27,3.27,0,0,0,.22,2.88,3.71,3.71,0,0,0,3.16,1.89h0v2Z" style="fill:#263238"></path><path d="M371.45,420.53a5.7,5.7,0,0,1-4.9-2.89c-.69-1.19-1.18-3.55-.11-5,.53-.74,1.63-1.53,3.8-1.07l-.4,2c-.62-.13-1.44-.19-1.78.28a3.25,3.25,0,0,0,.23,2.87,3.67,3.67,0,0,0,3.16,1.89h0v2Z" style="fill:#263238"></path></g><g id="freepik--bird-4--inject-31"><polygon points="82.58 430.73 24.68 437.58 34.59 427 21.28 410.14 84.2 414.04 82.58 430.73" style="fill:#FFC727"></polygon><polygon points="84.2 414.03 66.14 412.91 71.88 432 82.57 430.73 84.2 414.03" style="opacity:0.2"></polygon><g style="opacity:0.1"><path d="M82.81,428.34q-19.31,2.25-38.73,3,19.29-2.24,38.73-3Z"></path><path d="M84,416.31q-20.18.1-40.31-1.31,20.17-.11,40.31,1.31Z"></path><path d="M83.38,422.43q-20,1.05-40,.6,20-1.06,40-.6Z"></path><path d="M83.69,419.3q-20.26.69-40.55-.13,20.27-.69,40.55.13Z"></path><path d="M83.09,425.41q-19.94,1.71-40,1.92,19.93-1.72,40-1.92Z"></path></g><path d="M155.56,378.92s1.88-16.84-14.84-21.94-27.28,11.19-27.28,11.19-35,17.66-32.6,48.25c2,26.6,23.74,37.58,44.24,32.75,19.92-4.7,33.75-24,33.79-44.78C158.91,387.36,155.56,378.92,155.56,378.92Z" style="fill:#FFC727"></path><path d="M140.67,423.57c6.91-1.51,14.26-8.19,18-14.44h0c.16-1.57.24-3.14.25-4.72a100.09,100.09,0,0,0-1.47-18.18.68.68,0,0,0,0-.14c-.78-3.69-1.49-6.1-1.73-6.89a1.42,1.42,0,0,1,0-.16l0-.09h0v0h0a0,0,0,0,1,0,0v0a0,0,0,0,1,0-.05c0-.1,0-.28,0-.56s0-.36,0-.58v0c0-.11,0-.2,0-.32a23,23,0,0,0-.18-2.94c0-.27-.08-.56-.13-.86a22.91,22.91,0,0,0-.66-2.91l-.29-.91c-.11-.33-.24-.67-.37-1l0-.05c-.12-.3-.24-.58-.37-.88s-.36-.75-.56-1.13c-.06-.1-.11-.2-.16-.3s-.11-.21-.16-.3l-.05-.07c-.21-.36-.44-.72-.68-1.08l-.07-.09c-.12-.18-.25-.37-.39-.55-.35-.47-.73-.94-1.13-1.39-.05-.07-.13-.14-.18-.21l-.38-.37c-.1-.11-.21-.21-.32-.32s-.24-.25-.38-.37a1.3,1.3,0,0,0-.18-.15,0,0,0,0,0,0,0c-.22-.21-.46-.4-.7-.59a8.94,8.94,0,0,0-.76-.58l-.19-.15a14.66,14.66,0,0,0-1.24-.81l-.17-.1-.49-.28-.67-.36-.61-.3c-.3-.14-.6-.28-.91-.4l-.8-.33-.82-.3-.13,0c-.24-.09-.48-.16-.73-.24a22.11,22.11,0,0,0-5.89-1h0c-.54,0-1,0-1.57,0h0a19.24,19.24,0,0,0-3,.37c-.48.1-.95.22-1.42.33l-.69.21c-.44.14-.89.29-1.33.45l-.65.26a28.48,28.48,0,0,0-9.22,6.36c-.37.36-.71.72-1,1.06a6.57,6.57,0,0,0-.44.5c-.1.1-.19.21-.28.31l-.33.4-.31.37c-.27.34-.48.62-.66.86l-.16.23-.13.19-.11.14s0,.07-.05.08l0,0h0a51,51,0,0,0-6.16,32C109.74,419.34,126.32,426.67,140.67,423.57Z" style="fill:#fff;opacity:0.30000000000000004"></path><path d="M120.3,383.14a14.3,14.3,0,0,0,16.49,11.71,17.16,17.16,0,0,0,9.57-5.84c2.31-2.74,9.2-10.09,9.2-10.09s1-8.68-4.67-15.46L132,366.65A14.32,14.32,0,0,0,120.3,383.14Z" style="fill:#fff;opacity:0.5"></path><path d="M135.87,376.12a4.32,4.32,0,1,0,3.54-5A4.32,4.32,0,0,0,135.87,376.12Z" style="fill:#263238"></path><polygon points="148.72 373.55 153.28 367.13 166.66 366.39 148.72 373.55" style="fill:#263238"></polygon><polygon points="148.72 373.55 159.38 369.29 155.22 373.05 148.72 373.55" style="fill:#37474f"></polygon><path d="M113.44,368.17l-19,81.06s-27.34-14-21.11-40.6S113.44,368.17,113.44,368.17Z" style="fill:#FFC727"></path><path d="M113.44,368.17l-19,81.06s-27.34-14-21.11-40.6S113.44,368.17,113.44,368.17Z" style="opacity:0.1"></path><path d="M91.44,447.41l.24.16c4.14-16.12,8.16-33.47,11.45-49.48C99,413.86,94.89,431.16,91.44,447.41Z" style="opacity:0.1"></path><path d="M87.67,444.67l.29.23c4-15.63,7.83-32.34,11-47.78C95,412.32,91,428.93,87.67,444.67Z" style="opacity:0.1"></path><path d="M84,441.43l.36.35c3.79-15,7.43-30.9,10.47-45.63C91,410.62,87.25,426.38,84,441.43Z" style="opacity:0.1"></path><path d="M135.51,455.07l-.26-2a3.7,3.7,0,0,0,2.9-2.29,3.26,3.26,0,0,0-.15-2.88c-.4-.42-1.19-.26-1.8-.05l-.66-1.89c2.11-.73,3.29-.09,3.91.57,1.26,1.34,1.08,3.74.55,5A5.7,5.7,0,0,1,135.51,455.07Z" style="fill:#263238"></path><path d="M132.56,455.1l-.25-2a3.73,3.73,0,0,0,2.9-2.29,3.29,3.29,0,0,0-.16-2.88c-.39-.42-1.19-.26-1.79-.05L132.6,446c2.1-.73,3.28-.09,3.91.57,1.26,1.34,1.07,3.74.54,5A5.68,5.68,0,0,1,132.56,455.1Z" style="fill:#263238"></path><path d="M129.61,455.13l-.25-2a3.71,3.71,0,0,0,2.9-2.29,3.29,3.29,0,0,0-.16-2.88c-.39-.42-1.19-.26-1.79-.05l-.66-1.89c2.1-.73,3.29-.09,3.91.57,1.26,1.34,1.08,3.74.54,5A5.69,5.69,0,0,1,129.61,455.13Z" style="fill:#263238"></path><path d="M114.48,458.55l-.29-2a3.67,3.67,0,0,0,2.86-2.34,3.28,3.28,0,0,0-.21-2.88c-.4-.41-1.2-.23-1.79,0l-.7-1.88c2.09-.77,3.28-.16,3.92.5,1.29,1.31,1.15,3.71.64,5A5.71,5.71,0,0,1,114.48,458.55Z" style="fill:#263238"></path><path d="M111.54,458.63l-.29-2a3.69,3.69,0,0,0,2.85-2.35,3.25,3.25,0,0,0-.2-2.87c-.41-.41-1.2-.23-1.8,0l-.69-1.87c2.08-.78,3.28-.16,3.92.49,1.28,1.31,1.14,3.72.63,5A5.67,5.67,0,0,1,111.54,458.63Z" style="fill:#263238"></path><path d="M108.59,458.72l-.29-2a3.69,3.69,0,0,0,2.86-2.34,3.28,3.28,0,0,0-.21-2.88c-.4-.41-1.2-.23-1.8,0l-.69-1.88c2.09-.77,3.28-.16,3.92.5,1.28,1.31,1.15,3.71.64,5A5.71,5.71,0,0,1,108.59,458.72Z" style="fill:#263238"></path><rect x="110.13" y="434.08" width="2" height="17.13" transform="translate(-65.51 21.83) rotate(-8.68)" style="fill:#263238"></rect></g><g id="freepik--bird-3--inject-31"><polygon points="241.95 300.75 227.28 361.55 241.8 353.29 254.66 364.15 258.72 301.24 241.95 300.75" style="fill:#FFC727"></polygon><polygon points="258.72 301.24 258.35 307.01 241.19 303.92 241.95 300.75 258.72 301.24" style="opacity:0.1"></polygon><g style="opacity:0.1"><path d="M244.35,300.82q-3.18,19.15-7.84,38,3.18-19.17,7.84-38Z"></path><path d="M256.43,301.17q-1.14,20.13-3.78,40.15,1.14-20.15,3.78-40.15Z"></path><path d="M250.29,301q-2.07,19.89-5.63,39.6,2.06-19.9,5.63-39.6Z"></path><path d="M253.44,301.08q-1.75,20.21-5,40.24,1.74-20.2,5-40.24Z"></path><path d="M247.29,300.9q-2.72,19.83-6.94,39.42,2.73-19.83,6.94-39.42Z"></path></g><path d="M221,238.62s-4.66-16.3,11-24.11S260.7,221,260.7,221s30.09,22.12,30.09,46.9c0,20.61-19.18,34.91-38.8,34.91-15.07,0-36.85-7.77-40.51-28.22S221,238.62,221,238.62Z" style="fill:#FFC727"></path><path d="M263.41,223.15V254c0,12.79-10.9,21.65-23.06,21.65-12.31,0-23-8.45-23-21.41A36.29,36.29,0,0,1,221,238.64v0l0-.08c-.31-1.21-4-16.52,11-24C247.56,206.7,260.7,221,260.7,221s1,.75,2.7,2.13A0,0,0,0,1,263.41,223.15Z" style="fill:#fff;opacity:0.30000000000000004"></path><path d="M221,238.62V306.4s-14.19-19.29-14.19-36C206.77,249.09,221,238.62,221,238.62Z" style="fill:#FFC727"></path><path d="M221,238.62V306.4s-14.19-19.29-14.19-36C206.77,249.09,221,238.62,221,238.62Z" style="opacity:0.1"></path><path d="M212,290.7c-.24-.53-.48-1.07-.71-1.62,0-10.88.08-21.85.36-32.22C211.89,267.75,212,279.29,212,290.7Z" style="opacity:0.1"></path><path d="M215.18,297.14l-.64-1.18c-.12-13.1,0-26.54.32-39.1C215.22,269.8,215.32,283.67,215.18,297.14Z" style="opacity:0.1"></path><path d="M218.37,302.54c-.16-.24-.32-.5-.48-.77-.23-14.91-.15-30.49.24-44.91C218.52,271.53,218.61,287.4,218.37,302.54Z" style="opacity:0.1"></path><path d="M256.43,236.9a14.3,14.3,0,0,1-14.3,14.3A17.1,17.1,0,0,1,231.72,247C229,244.71,221,238.62,221,238.62s-2.4-8.39,2-16h19.14A14.3,14.3,0,0,1,256.43,236.9Z" style="fill:#fff;opacity:0.5"></path><circle cx="235.59" cy="232.58" r="4.32" style="fill:#263238"></circle><polygon points="227.28 233.55 220.62 229.31 208.9 233.55 227.28 233.55" style="fill:#263238"></polygon><polygon points="227.28 233.55 215.9 233.55 220.4 235.29 227.28 233.55" style="fill:#37474f"></polygon><path d="M263.41,223.15V306.4s29.82-7.41,29.82-34.71S263.41,223.15,263.41,223.15Z" style="fill:#FFC727"></path><path d="M263.41,223.15V306.4s29.82-7.41,29.82-34.71S263.41,223.15,263.41,223.15Z" style="opacity:0.1"></path><path d="M266.76,305.32l-.27.1c-.35-16.64-.31-34.45.14-50.78C267.07,270.94,267.11,288.71,266.76,305.32Z" style="opacity:0.1"></path><path d="M271.06,303.51l-.34.16c-.31-16.13-.25-33.27.17-49C271.32,270.35,271.38,287.42,271.06,303.51Z" style="opacity:0.1"></path><path d="M275.38,301.2l-.43.26c-.27-15.48-.19-31.78.21-46.82C275.56,269.6,275.64,285.8,275.38,301.2Z" style="opacity:0.1"></path><path d="M235,305.76c-2-.26-2.77-1.82-3.47-3.53-.25-.6-1.41-3.69,0-5.19.75-.79,1.91-.92,3.46-.37l-.67,1.89c-.87-.31-1.26-.23-1.34-.14-.29.3-.19,1.67.38,3.06.76,1.86,1.18,2.21,1.88,2.3Z" style="fill:#263238"></path><path d="M237.92,305.81c-2-.26-2.78-1.82-3.48-3.53-.25-.6-1.41-3.69,0-5.2.75-.79,1.91-.91,3.46-.36l-.67,1.89c-.87-.31-1.26-.23-1.35-.15-.28.31-.18,1.68.38,3.06.77,1.87,1.19,2.21,1.89,2.31Z" style="fill:#263238"></path><path d="M240.86,305.85c-2-.26-2.77-1.81-3.47-3.52-.25-.61-1.41-3.7,0-5.2.76-.79,1.92-.91,3.46-.36l-.66,1.88c-.88-.31-1.27-.23-1.35-.14-.29.3-.19,1.68.38,3.06.77,1.87,1.18,2.21,1.89,2.3Z" style="fill:#263238"></path><path d="M257.29,304.35c-2-.27-2.78-1.82-3.48-3.53-.25-.6-1.41-3.69,0-5.2.76-.79,1.92-.91,3.46-.36l-.67,1.88c-.87-.31-1.26-.22-1.34-.14-.29.31-.19,1.68.38,3.06.77,1.87,1.18,2.21,1.89,2.3Z" style="fill:#263238"></path><path d="M260.23,304.39c-2-.26-2.77-1.82-3.47-3.52-.25-.61-1.41-3.7,0-5.2.75-.79,1.92-.91,3.46-.36l-.67,1.88c-.87-.31-1.26-.23-1.34-.14-.29.3-.19,1.67.38,3.06.76,1.87,1.18,2.21,1.89,2.3Z" style="fill:#263238"></path><path d="M263.18,304.44c-2-.26-2.77-1.82-3.47-3.53-.25-.6-1.42-3.69,0-5.19.75-.79,1.91-.92,3.46-.37l-.67,1.89c-.88-.31-1.26-.23-1.34-.14-.29.3-.19,1.67.37,3,.77,1.87,1.19,2.21,1.89,2.31Z" style="fill:#263238"></path></g><g id="freepik--bird-2--inject-31"><polygon points="428.07 112.83 469.9 72.21 455.43 73.24 450.75 52.27 414.09 103.56 428.07 112.83" style="fill:#FFC727"></polygon><polygon points="414.09 103.56 424.6 88.83 435.8 105.32 428.07 112.83 414.09 103.56" style="opacity:0.2"></polygon><g style="opacity:0.1"><path d="M426.07,111.5q12.81-14.59,26.74-28.17Q440,97.93,426.07,111.5Z"></path><path d="M416,104.82q11.58-16.5,24.4-32.1-11.59,16.5-24.4,32.1Z"></path><path d="M421.12,108.22q12.25-15.81,25.68-30.66-12.26,15.81-25.68,30.66Z"></path><path d="M418.49,106.48Q430.64,90.24,444,74.94q-12.15,16.23-25.48,31.54Z"></path><path d="M423.62,109.87q12.78-15.41,26.7-29.81-12.78,15.41-26.7,29.81Z"></path></g><path d="M341.83,136.79s-14.25-9.17-7.67-25.36,25.89-14.11,25.89-14.11,35.76-16,58,5.13c19.35,18.38,14.18,42.13-2.49,55-16.21,12.5-39.91,11.05-56.06-2C346.27,144.71,341.83,136.79,341.83,136.79Z" style="fill:#FFC727"></path><path d="M385.87,153.39c-5.53,4.42-15.35,5.9-22.53,4.83h0c-1.31-.87-2.59-1.79-3.82-2.79a100.69,100.69,0,0,1-13.18-12.6.41.41,0,0,1-.09-.1c-2.38-2.94-3.8-5-4.27-5.7l-.08-.13-.06-.08h0v0h0s0,0,0,0l-.46-.33-.45-.35s0,0,0,0l-.26-.19a22.21,22.21,0,0,1-2.16-2l-.59-.64a23.75,23.75,0,0,1-1.84-2.35c-.17-.25-.35-.52-.52-.8s-.37-.61-.55-.92c0,0,0,0,0,0-.15-.27-.29-.55-.44-.84s-.36-.75-.53-1.15c0-.1-.09-.2-.13-.31l-.13-.31a.32.32,0,0,0,0-.09c-.14-.39-.27-.79-.4-1.2l0-.11q-.09-.31-.18-.66c-.14-.56-.27-1.15-.36-1.75a1.41,1.41,0,0,1,0-.27c0-.17,0-.35-.05-.52s0-.3-.05-.45,0-.35-.05-.53a1.92,1.92,0,0,1,0-.24s0,0,0,0c0-.3,0-.61,0-.91s0-.63,0-1a2.09,2.09,0,0,1,0-.25,12.2,12.2,0,0,1,.15-1.47,1.5,1.5,0,0,0,0-.2c0-.19.07-.37.1-.56s.09-.5.14-.74l.15-.66c.08-.32.17-.64.27-1s.16-.54.25-.82.19-.54.29-.83a.93.93,0,0,1,0-.13l.27-.71a22.08,22.08,0,0,1,3-5.19h0c.33-.43.66-.83,1-1.21h0a18.57,18.57,0,0,1,2.18-2.09c.38-.32.77-.6,1.15-.89l.6-.41c.38-.26.78-.51,1.19-.75l.61-.34a28.56,28.56,0,0,1,10.74-3.14c.52-.06,1-.09,1.47-.12l.66,0h1.43l1.08,0a1.37,1.37,0,0,0,.28,0l.23,0h.31a51,51,0,0,1,28.74,15.42C402.1,126.73,397.33,144.21,385.87,153.39Z" style="fill:#fff;opacity:0.30000000000000004"></path><path d="M367.34,112.09A14.3,14.3,0,0,1,366,132.27,17.13,17.13,0,0,1,355.47,136c-3.59.06-13.64.78-13.64.78s-7.34-4.72-9.05-13.38l14.38-12.63A14.3,14.3,0,0,1,367.34,112.09Z" style="fill:#fff;opacity:0.5"></path><path d="M352.08,119.74a4.32,4.32,0,1,1-6.1-.39A4.32,4.32,0,0,1,352.08,119.74Z" style="fill:#263238"></path><polygon points="341.23 128.7 334.12 127.58 325.1 137.5 341.23 128.7" style="fill:#263238"></polygon><polygon points="341.23 128.7 331.87 133.8 337.49 132.82 341.23 128.7" style="fill:#37474f"></polygon><path d="M360.05,97.32l74.88,36.39s6.37-30.06-18.19-42S360.05,97.32,360.05,97.32Z" style="fill:#FFC727"></path><path d="M360.05,97.32l74.88,36.39s6.37-30.06-18.19-42S360.05,97.32,360.05,97.32Z" style="opacity:0.1"></path><path d="M435.42,130.23a2.66,2.66,0,0,1,0,.28c-15.12-7-31.12-14.78-45.61-22.32C404.63,114.92,420.63,122.65,435.42,130.23Z" style="opacity:0.1"></path><path d="M435.67,125.57v.37c-14.65-6.77-30-14.31-44-21.58C406,110.84,421.34,118.25,435.67,125.57Z" style="opacity:0.1"></path><path d="M435.48,120.67c0,.18,0,.34,0,.5-14-6.52-28.67-13.72-42-20.65C407.14,106.7,421.74,113.71,435.48,120.67Z" style="opacity:0.1"></path><path d="M378.54,172.7a5.69,5.69,0,0,1-4.4-3.62c-.5-1.29-.62-3.7.68-5,.64-.65,1.84-1.25,3.92-.46l-.71,1.87c-.59-.23-1.39-.41-1.8,0a3.28,3.28,0,0,0-.23,2.87,3.72,3.72,0,0,0,2.84,2.37Z" style="fill:#263238"></path><path d="M381.48,172.81a5.7,5.7,0,0,1-4.4-3.62c-.5-1.29-.62-3.7.68-5,.64-.65,1.84-1.25,3.92-.46L381,165.6c-.59-.23-1.39-.41-1.79,0a3.25,3.25,0,0,0-.23,2.87,3.68,3.68,0,0,0,2.84,2.36Z" style="fill:#263238"></path><path d="M384.43,172.92a5.69,5.69,0,0,1-4.4-3.62c-.5-1.29-.62-3.7.68-5,.64-.65,1.84-1.25,3.92-.47l-.71,1.87c-.59-.22-1.39-.4-1.8,0a3.28,3.28,0,0,0-.23,2.87,3.7,3.7,0,0,0,2.84,2.36Z" style="fill:#263238"></path><path d="M409.13,172a5.71,5.71,0,0,1-4.33-3.7c-.48-1.31-.55-3.72.77-5,.65-.64,1.87-1.22,3.93-.39l-.74,1.85c-.59-.23-1.38-.43-1.8,0a3.27,3.27,0,0,0-.28,2.87,3.68,3.68,0,0,0,2.79,2.42Z" style="fill:#263238"></path><path d="M412.07,172.16a5.69,5.69,0,0,1-4.33-3.7c-.47-1.3-.55-3.71.77-5,.66-.63,1.87-1.21,3.93-.39l-.74,1.86c-.59-.24-1.38-.44-1.8,0a3.27,3.27,0,0,0-.28,2.87,3.68,3.68,0,0,0,2.79,2.41Z" style="fill:#263238"></path><path d="M415,172.33a5.72,5.72,0,0,1-4.34-3.71c-.47-1.3-.54-3.71.78-5,.65-.63,1.86-1.21,3.93-.38l-.75,1.85c-.59-.23-1.38-.43-1.79,0a3.27,3.27,0,0,0-.29,2.87,3.7,3.7,0,0,0,2.8,2.41Z" style="fill:#263238"></path><rect x="404.33" y="155.19" width="17.13" height="2" transform="matrix(0.18, -0.98, 0.98, 0.18, 186.19, 534.99)" style="fill:#263238"></rect></g><g id="freepik--bird-1--inject-31"><path d="M159.52,112.24,137,32.1s-26.69,15.22-19.29,41.5S159.52,112.24,159.52,112.24Z" style="fill:#263238"></path><path d="M134,34.05l.23-.17C139.1,49.8,143.89,67,147.88,82.8,143,67.23,138.19,50.13,134,34.05Z" style="opacity:0.1"></path><path d="M130.37,37l.29-.25c4.67,15.45,9.26,32,13.12,47.24C139.11,69,134.43,52.53,130.37,37Z" style="opacity:0.1"></path><path d="M126.84,40.35l.34-.36c4.46,14.82,8.8,30.54,12.49,45.12C135.23,70.82,130.76,55.25,126.84,40.35Z" style="opacity:0.1"></path><polygon points="101.59 145.55 48.87 170.45 54.91 157.26 36.93 145.51 97.82 129.2 101.59 145.55" style="fill:#37474f"></polygon><polygon points="97.83 129.2 92.24 130.69 98.63 146.92 101.59 145.55 97.83 129.2" style="opacity:0.1"></polygon><g style="opacity:0.1"><path d="M101.05,143.21q-17.58,8.26-35.77,15.14,17.58-8.26,35.77-15.14Z"></path><path d="M98.34,131.43Q79.25,137.94,59.71,143q19.08-6.51,38.63-11.57Z"></path><path d="M99.72,137.42Q81.12,144.77,62,150.7q18.6-7.35,37.73-13.28Z"></path><path d="M99,134.35q-19,7.11-38.48,12.78Q79.52,140,99,134.35Z"></path><path d="M100.39,140.34q-18.36,8-37.29,14.53,18.36-8,37.29-14.53Z"></path></g><path d="M183.64,120.76s11.54-12.41,1.15-26.46S156.21,87,156.21,87s-38.61-6.64-54.93,19.34c-14.2,22.59-2.75,43.1,16,52.65,18.57,9.45,36.29,9.74,48.83-6.82S183.64,120.76,183.64,120.76Z" style="fill:#37474f"></path><path d="M170.89,145.47A27,27,0,0,1,147,146.85c-13.37-6-24.26-20.92-14.84-37.77a50.92,50.92,0,0,1,24-22h0l.1,0,.16-.06.21-.07.27-.08c3.61-1.11,18.7-4.8,27.81,7.51a24.11,24.11,0,0,1,2.8,4.87c.23.53.42,1.06.59,1.58a18.59,18.59,0,0,1,.6,2.3c.1.5.17,1,.24,1.49a23.13,23.13,0,0,1,.09,2.86c0,.46-.06.92-.11,1.35l-.09.67a22.66,22.66,0,0,1-2.69,7.65,24,24,0,0,1-1.79,2.73v0l-.36.46-.36.43,0,0h0v0h0A119.41,119.41,0,0,1,170.89,145.47Z" style="fill:#fff;opacity:0.2"></path><path d="M152.8,103.14a14.3,14.3,0,0,0,6.26,19.23,17.15,17.15,0,0,0,11.17,1c3.49-.83,13.41-2.62,13.41-2.62s5.94-6.39,5.45-15.2L172,96.88A14.31,14.31,0,0,0,152.8,103.14Z" style="fill:#fff;opacity:0.5"></path><path d="M169.49,106.78a4.32,4.32,0,1,0,5.8-1.89A4.31,4.31,0,0,0,169.49,106.78Z" style="fill:#263238"></path><polygon points="180.31 113.38 188.16 112.61 196.68 121.71 180.31 113.38" style="fill:#263238"></polygon><polygon points="180.31 113.38 190.45 118.53 185.64 118.05 180.31 113.38" style="fill:#37474f"></polygon><path d="M145.13,101.12l-54.46-63S73,63.26,90.83,83.91,145.13,101.12,145.13,101.12Z" style="fill:#37474f"></path><path d="M145.13,101.12l-54.46-63S73,63.26,90.83,83.91,145.13,101.12,145.13,101.12Z" style="opacity:0.1"></path><path d="M88.85,41.16a2,2,0,0,1,.14-.25c11.15,12.35,22.77,25.85,33.11,38.5C111.1,67.37,99.45,54,88.85,41.16Z" style="opacity:0.1"></path><path d="M86.78,45.34l.15-.34c10.79,12,21.95,25,31.95,37.19C108.27,70.59,97.06,57.72,86.78,45.34Z" style="opacity:0.1"></path><path d="M85,49.92l.16-.48C95.51,61,106.11,73.35,115.65,85,105.56,73.93,94.9,61.73,85,49.92Z" style="opacity:0.1"></path><path d="M142.33,160.53h-.17l.07-2a3.7,3.7,0,0,0,3.23-1.8,3.28,3.28,0,0,0,.3-2.87c-.32-.47-1.14-.44-1.76-.33l-.35-2c2.18-.39,3.26.43,3.77,1.18,1,1.52.47,3.86-.26,5A5.72,5.72,0,0,1,142.33,160.53Z" style="fill:#263238"></path><path d="M139.41,160.09h-.16l.07-2a3.66,3.66,0,0,0,3.22-1.8,3.26,3.26,0,0,0,.31-2.86c-.33-.48-1.14-.45-1.77-.34l-.35-2c2.19-.39,3.26.43,3.77,1.18,1,1.52.47,3.87-.26,5A5.68,5.68,0,0,1,139.41,160.09Z" style="fill:#263238"></path><path d="M136.5,159.65h-.17l.07-2a3.7,3.7,0,0,0,3.23-1.8,3.26,3.26,0,0,0,.3-2.86c-.32-.48-1.13-.45-1.76-.34l-.35-2c2.19-.4,3.26.42,3.77,1.17,1,1.52.47,3.87-.26,5A5.71,5.71,0,0,1,136.5,159.65Z" style="fill:#263238"></path><path d="M157,164.46h-.17l.07-2a3.71,3.71,0,0,0,3.23-1.8,3.26,3.26,0,0,0,.3-2.86c-.32-.48-1.14-.45-1.76-.34l-.35-2c2.19-.39,3.26.43,3.77,1.18,1,1.52.47,3.87-.26,5A5.7,5.7,0,0,1,157,164.46Z" style="fill:#263238"></path><path d="M154,164h-.16l.07-2a3.67,3.67,0,0,0,3.22-1.79,3.29,3.29,0,0,0,.31-2.87c-.33-.48-1.14-.44-1.77-.34l-.35-2c2.2-.39,3.26.42,3.77,1.17,1,1.52.47,3.87-.26,5.05A5.68,5.68,0,0,1,154,164Z" style="fill:#263238"></path><path d="M151.13,163.59H151l.06-2a3.69,3.69,0,0,0,3.23-1.79,3.28,3.28,0,0,0,.3-2.87c-.32-.48-1.14-.44-1.76-.33l-.35-2c2.19-.39,3.26.42,3.77,1.18,1,1.52.47,3.86-.26,5A5.72,5.72,0,0,1,151.13,163.59Z" style="fill:#263238"></path></g><g id="freepik--Wires--inject-31"><path d="M500,168v1.64c-40.44-.24-80.88-1.15-121.28-3l-7.39-.35c-40.95-2-81.84-4.92-122.63-9.11-41.8-4.41-83.81-11.23-125.39-17.54C82.37,133.06,41,125.9,0,117.84v-1.68c68.72,13.14,137.6,25.5,206.89,35.22,58.88,7.05,118,11.06,177.27,13.48l7.51.3C427.76,166.55,463.88,167.38,500,168Z" style="fill:#263238"></path><path d="M500,281.53v1.71c-124.45,11.93-249.45,19.23-374.51,17.68-34.59-.16-71.68-1-106.22-2.4L0,297.66v-1.5c70.13,2.77,140.32,4.67,210.48,3.83C307.17,297.34,403.63,289.85,500,281.53Z" style="fill:#263238"></path><path d="M500,390v1.67c-39.29,8.67-78.82,16.61-118.3,23.77-2.65.48-5.29,1-7.93,1.42q-9.27,1.68-18.53,3.27c-44.88,8.21-89.95,15.21-135.15,21.27l-1.41.19c-72.6,9.71-145.52,17-218.52,23H0V462.9c71-6.57,142.12-13.26,212.93-22l1.44-.18q39.33-4.86,78.48-10.66,34.8-5.6,69.52-12.14c2.13-.4,4.25-.79,6.37-1.2C412.62,408.45,456.39,399.31,500,390Z" style="fill:#263238"></path></g></svg>